<?xml version="1.0" encoding="utf-8"?>
<!-- Generator: Adobe Illustrator 26.5.0, SVG Export Plug-In . SVG Version: 6.00 Build 0)  -->
<svg version="1.1" id="Layer_1" xmlns="http://www.w3.org/2000/svg" xmlns:xlink="http://www.w3.org/1999/xlink" x="0px" y="0px"
	 viewBox="0 0 1200 800" style="enable-background:new 0 0 1200 800;" xml:space="preserve">
<style type="text/css">
	.st0{fill:#E6EEF1;}
	.st1{fill:#FFFFFF;}
	.st2{fill:#CCDBE0;}
	.st3{fill:none;stroke:#ABC0C7;stroke-width:0.8846;stroke-linecap:round;stroke-miterlimit:10;}
	.st4{fill:#ABC0C7;}
	.st5{fill:none;stroke:#FFFFFF;stroke-width:0.8846;stroke-miterlimit:10;}
	.st6{fill:#E1ECF0;}
	.st7{fill:none;stroke:#00183D;stroke-width:0.8846;stroke-linecap:round;stroke-miterlimit:10;}
	.st8{fill:none;stroke:#00173C;stroke-width:0.8846;stroke-miterlimit:10;}
	.st9{fill:none;stroke:#00173C;stroke-width:0.8846;stroke-linecap:round;stroke-miterlimit:10;}
	.st10{fill:#FF9373;}
	.st11{fill:#5F9EBC;}
	.st12{fill:#E3E3E3;}
	.st13{fill:#4C606B;}
	.st14{fill:#A9C1C9;}
	.st15{fill:#CAD9DE;}
	.st16{fill:#4585A3;}
	.st17{fill:#00183D;}
	.st18{fill:#FF7E57;}
	.st19{fill:#FF6333;}
	.st20{fill:#002C70;}
	.st21{fill:#002050;}
	.st22{fill:none;stroke:#FF6333;stroke-width:0.7441;stroke-linecap:round;stroke-miterlimit:10;}
	.st23{fill:none;stroke:#00183D;stroke-width:0.186;stroke-linecap:round;stroke-miterlimit:10;}
	.st24{fill:#EBEBEB;}
	.st25{fill:#409456;}
	.st26{fill:none;stroke:#409456;stroke-width:0.7441;stroke-miterlimit:10;}
	.st27{fill:#D16B4B;}
	.st28{fill:#001536;}
	.st29{fill:#C75532;}
	.st30{fill:#D8E0E3;}
	.st31{fill:none;stroke:#00183D;stroke-width:0.3721;stroke-linecap:round;stroke-miterlimit:10;}
	.st32{fill:none;stroke:#000000;stroke-width:0.7441;stroke-miterlimit:10;}
	.st33{fill:#FE6739;}
	.st34{fill:#16262E;}
	.st35{fill:#243841;}
	.st36{fill:#D2D5D6;}
	.st37{fill:none;stroke:#000000;stroke-width:0.7441;stroke-linecap:round;stroke-miterlimit:10;}
	.st38{fill:none;stroke:#05429E;stroke-width:0.7441;stroke-linecap:round;stroke-miterlimit:10;}
	.st39{fill:#2D7D42;}
	.st40{fill:none;stroke:#00183D;stroke-width:0.7441;stroke-linecap:round;stroke-miterlimit:10;}
	.st41{fill:#0F471E;}
	.st42{fill:#073F83;}
	.st43{fill:none;stroke:#073F83;stroke-width:0.7441;stroke-miterlimit:10;}
	.st44{fill:none;stroke:#00183D;stroke-width:0.186;stroke-miterlimit:10;}
	.st45{fill:#FF7247;}
	.st46{fill:#FF784F;}
	.st47{fill:#2F8045;}
	.st48{fill:#234F63;}
	.st49{fill:#3D7691;}
	.st50{fill:#A1A1A1;}
	.st51{fill:#CCCCCC;}
	.st52{fill:#EDEDED;}
	.st53{fill:#A6A6A6;}
	.st54{fill:#2B2B2B;}
	.st55{opacity:0.6118;}
	.st56{fill:#363636;}
	.st57{fill:#4A4A4A;}
	.st58{fill:#3D3D3D;}
	.st59{fill:#1F1F1F;}
	.st60{fill:#3B3B3B;}
	.st61{fill:#C7C7C7;}
	.st62{fill:none;stroke:#BA2125;stroke-width:10.3576;stroke-miterlimit:10;}
	.st63{fill:none;stroke:#BA2125;stroke-width:5.8981;stroke-miterlimit:10;}
</style>
<g>
	<path class="st0" d="M187.49,626.88c-41.72-142.28-83.81-287.19-80.2-435.02c1.01-41.3,6.01-83.81,26.73-119.96
		c20.72-36.14,60.27-64.7,103.02-62.82c51.56,2.28,90.2,45.1,119.8,85.91s52.12,70.45,101.95,83.45
		c51.12,13.33,112.72,3.64,159.04-21.14c47.44-25.39,94.89-50.78,142.33-76.17c51.6-27.61,106.09-55.99,165.09-56
		c59-0.01,122.48,39.39,125.6,96.26c2.63,47.98-35.6,87.45-65.6,125.79c-30,38.34-53.2,94.16-22.35,131.86
		c24.15,29.5,71.13,33.19,96.69,61.57c17.71,19.65,21.68,48.61,14.37,73.68c-7.31,25.07-24.64,46.53-45.02,63.61
		c-44.33,37.14-102.93,55.28-161.28,61.47c-58.35,6.2-117.26,1.38-175.84-2.25C527.12,626.91,361.8,626.05,187.49,626.88z"/>
	<g>
		<rect x="289.95" y="278.37" class="st1" width="88.41" height="298.53"/>
		<rect x="378.36" y="278.37" class="st2" width="56.66" height="298.53"/>
	</g>
	<g>
		<rect x="435.02" y="198.31" class="st1" width="117.52" height="378.59"/>
		<rect x="552.54" y="198.31" class="st2" width="75.31" height="378.59"/>
		<g>
			<line class="st3" x1="435.02" y1="242.75" x2="528.78" y2="242.75"/>
			<line class="st3" x1="435.02" y1="283.91" x2="528.78" y2="283.91"/>
			<line class="st3" x1="435.02" y1="325.07" x2="528.78" y2="325.07"/>
			<line class="st3" x1="435.02" y1="366.23" x2="528.78" y2="366.23"/>
			<line class="st3" x1="435.02" y1="407.39" x2="528.78" y2="407.39"/>
			<line class="st3" x1="435.02" y1="448.54" x2="528.78" y2="448.54"/>
			<line class="st3" x1="435.02" y1="489.7" x2="528.78" y2="489.7"/>
			<line class="st3" x1="435.02" y1="530.86" x2="528.78" y2="530.86"/>
		</g>
	</g>
	<g>
		<line class="st3" x1="311.3" y1="278.37" x2="311.3" y2="576.9"/>
		<line class="st3" x1="328.37" y1="278.37" x2="328.37" y2="576.9"/>
		<line class="st3" x1="345.43" y1="278.37" x2="345.43" y2="576.9"/>
		<line class="st3" x1="362.49" y1="278.37" x2="362.49" y2="576.9"/>
	</g>
	<polygon class="st4" points="627.85,577.34 627.85,325.69 833.18,367.07 833.18,577.34 	"/>
	<rect x="772.27" y="228.39" class="st2" width="111.28" height="348.51"/>
	<rect x="187.42" y="410.31" class="st4" width="378.59" height="75.48"/>
	<g>
		<rect x="187.42" y="440.69" class="st1" width="378.59" height="201.68"/>
		<polygon class="st1" points="376.71,410.31 320.32,458.07 433.1,458.07 		"/>
	</g>
	<g>
		<rect x="566" y="473.49" class="st1" width="284.83" height="168.88"/>
		<polygon class="st1" points="708.42,425.35 566,473.49 850.83,473.49 		"/>
	</g>
	<polygon class="st1" points="850.83,642.37 850.83,425.35 908.72,400.98 965.82,425.35 965.82,642.37 	"/>
	<g>
		<g>
			<g>
				<rect x="268.65" y="468.39" class="st2" width="41.08" height="63.59"/>
				<rect x="271.51" y="471.9" class="st5" width="35.34" height="56.97"/>
				<line class="st5" x1="289.18" y1="471.9" x2="289.18" y2="528.87"/>
				<line class="st5" x1="271.51" y1="487.93" x2="306.86" y2="487.93"/>
			</g>
			<rect x="261.7" y="520.61" class="st0" width="54.98" height="13.25"/>
		</g>
		<g>
			<g>
				<rect x="357.83" y="468.39" class="st2" width="41.08" height="63.59"/>
				<rect x="360.69" y="471.9" class="st5" width="35.34" height="56.97"/>
				<line class="st5" x1="378.36" y1="471.9" x2="378.36" y2="528.87"/>
				<line class="st5" x1="360.69" y1="487.93" x2="396.03" y2="487.93"/>
			</g>
			<rect x="350.87" y="520.61" class="st0" width="54.98" height="13.25"/>
		</g>
		<g>
			<g>
				<rect x="447" y="468.39" class="st2" width="41.08" height="63.59"/>
				<rect x="449.87" y="471.9" class="st5" width="35.34" height="56.97"/>
				<line class="st5" x1="467.54" y1="471.9" x2="467.54" y2="528.87"/>
				<line class="st5" x1="449.87" y1="487.93" x2="485.21" y2="487.93"/>
			</g>
			<rect x="440.05" y="520.61" class="st0" width="54.98" height="13.25"/>
		</g>
	</g>
	<g>
		<g>
			<g>
				<rect x="645.65" y="477.43" class="st2" width="41.08" height="63.59"/>
				<rect x="648.52" y="480.94" class="st5" width="35.34" height="56.97"/>
				<line class="st5" x1="666.19" y1="480.94" x2="666.19" y2="537.9"/>
				<line class="st5" x1="648.52" y1="496.96" x2="683.86" y2="496.96"/>
			</g>
			<rect x="638.7" y="529.65" class="st0" width="54.98" height="13.25"/>
		</g>
		<g>
			<g>
				<rect x="730.11" y="477.43" class="st2" width="41.08" height="63.59"/>
				<rect x="732.97" y="480.94" class="st5" width="35.34" height="56.97"/>
				<line class="st5" x1="750.64" y1="480.94" x2="750.64" y2="537.9"/>
				<line class="st5" x1="732.97" y1="496.96" x2="768.31" y2="496.96"/>
			</g>
			<rect x="723.15" y="529.65" class="st0" width="54.98" height="13.25"/>
		</g>
	</g>
	<g>
		<g>
			<rect x="613.96" y="566.93" class="st0" width="201.68" height="75.33"/>
			<rect x="618.82" y="570.61" class="st1" width="191.95" height="71.65"/>
			<rect x="765.66" y="574.15" class="st2" width="40.69" height="58.38"/>
			<rect x="720.74" y="574.15" class="st2" width="40.69" height="58.38"/>
			<rect x="675.57" y="574.15" class="st2" width="40.69" height="58.38"/>
			<rect x="623.35" y="574.15" class="st2" width="47.77" height="68.11"/>
		</g>
		<g>
			<line class="st5" x1="629.12" y1="574.15" x2="629.12" y2="642.26"/>
			<line class="st5" x1="635.09" y1="574.15" x2="635.09" y2="642.26"/>
			<line class="st5" x1="641.07" y1="574.15" x2="641.07" y2="642.26"/>
			<line class="st5" x1="647.04" y1="574.15" x2="647.04" y2="642.26"/>
			<line class="st5" x1="653.01" y1="574.15" x2="653.01" y2="642.26"/>
			<line class="st5" x1="658.98" y1="574.15" x2="658.98" y2="642.26"/>
			<line class="st5" x1="664.95" y1="574.15" x2="664.95" y2="642.26"/>
		</g>
		<polygon class="st6" points="743.78,632.53 730.51,574.15 742.9,574.15 756.17,632.53 		"/>
		<polygon class="st6" points="698.17,632.53 684.91,574.15 697.29,574.15 710.56,632.53 		"/>
		<polygon class="st6" points="785.54,632.53 772.27,574.15 784.66,574.15 797.92,632.53 		"/>
	</g>
	<g>
		<rect x="296.66" y="566.93" class="st0" width="160.1" height="75.33"/>
		<rect x="301.52" y="570.61" class="st1" width="148.6" height="71.65"/>
		<rect x="403.44" y="574.15" class="st2" width="40.69" height="58.38"/>
		<rect x="358.28" y="574.15" class="st2" width="40.69" height="58.38"/>
		<rect x="306.05" y="574.15" class="st2" width="47.77" height="68.11"/>
		<g>
			<line class="st5" x1="311.83" y1="574.15" x2="311.83" y2="642.26"/>
			<line class="st5" x1="317.8" y1="574.15" x2="317.8" y2="642.26"/>
			<line class="st5" x1="323.77" y1="574.15" x2="323.77" y2="642.26"/>
			<line class="st5" x1="329.74" y1="574.15" x2="329.74" y2="642.26"/>
			<line class="st5" x1="335.71" y1="574.15" x2="335.71" y2="642.26"/>
			<line class="st5" x1="341.68" y1="574.15" x2="341.68" y2="642.26"/>
			<line class="st5" x1="347.65" y1="574.15" x2="347.65" y2="642.26"/>
		</g>
		<polygon class="st6" points="426.48,632.53 413.22,574.15 425.6,574.15 438.87,632.53 		"/>
		<polygon class="st6" points="380.88,632.53 367.61,574.15 379.99,574.15 393.26,632.53 		"/>
	</g>
	<line class="st7" x1="151.6" y1="642.37" x2="1092.93" y2="642.37"/>
</g>
<g>
	<path class="st7" d="M1004.27,507.76c1.5,7.17,0.01,18.4-7.2,19.67c-1.62,0.29-2.13-1.44-1.79-2.11c0.34-0.67,1.25-0.87,1.95-0.59
		c0.69,0.28,1.18,0.91,1.52,1.58c1.53,3,0.57,6.62-0.42,9.84"/>
	<path class="st7" d="M981.82,510.42c-1.22-1.4-1.58-3.5-0.88-5.23c0.7-1.72,2.41-2.99,4.26-3.15c-0.47,1.11-0.36,2.36-0.23,3.55
		c0.12,1.19,0.25,2.44-0.2,3.56C984.32,510.26,982.79,511.54,981.82,510.42z"/>
	<path class="st7" d="M994.49,557.19c1.54-0.2,3.16,0.36,4.26,1.47c1.09,1.11,1.63,2.74,1.4,4.28
		C997.25,562.77,994.62,560.38,994.49,557.19z"/>
	<g>
		<path class="st8" d="M1001.9,561.35c0,16.19-13.67,29.18-30.1,28.04c-13.57-0.94-24.69-11.73-25.98-25.27
			c-0.85-8.92,2.46-17.08,8.23-22.77c3.1-3.05,3.95-7.7,2.43-11.77c-0.95-2.54-1.35-5.35-1.07-8.28
			c0.82-8.59,7.68-15.57,16.25-16.54c11.16-1.25,20.62,7.45,20.62,18.36c0,2.27-0.41,4.45-1.16,6.46c-1.55,4.15-0.6,8.75,2.53,11.88
			C998.75,546.55,1001.9,553.58,1001.9,561.35z"/>
		<line class="st9" x1="973.8" y1="520.07" x2="973.8" y2="641.97"/>
		<line class="st9" x1="980.64" y1="531.04" x2="973.8" y2="547.06"/>
		<line class="st9" x1="959.05" y1="549.17" x2="973.8" y2="564.45"/>
	</g>
</g>
<g>
	<path class="st7" d="M888.79,548.81c1.21-0.16,2.48,0.28,3.34,1.15c0.85,0.87,1.27,2.15,1.1,3.35
		C890.95,553.18,888.89,551.3,888.79,548.81z"/>
	<path class="st7" d="M919.71,584.36c0.31,1.18,0.04,2.5-0.71,3.46c-0.75,0.96-1.96,1.54-3.18,1.53
		C915.65,587.07,917.24,584.79,919.71,584.36z"/>
	<path class="st7" d="M919.71,568.97c0.31,1.18,0.04,2.5-0.71,3.46s-1.96,1.54-3.18,1.53C915.65,571.68,917.24,569.4,919.71,568.97z
		"/>
	<g>
		<path class="st8" d="M925.28,588.73c0,12.69-10.72,22.87-23.59,21.98c-10.64-0.73-19.35-9.19-20.36-19.81
			c-0.67-6.99,1.93-13.39,6.45-17.85c2.43-2.39,3.09-6.03,1.9-9.23c-0.74-1.99-1.06-4.19-0.84-6.49
			c0.64-6.73,6.02-12.21,12.74-12.96c8.75-0.98,16.16,5.84,16.16,14.39c0,1.78-0.32,3.49-0.91,5.06c-1.21,3.25-0.47,6.86,1.99,9.31
			C922.81,577.13,925.28,582.64,925.28,588.73z"/>
		<line class="st9" x1="903.26" y1="556.37" x2="903.26" y2="642.37"/>
		<line class="st9" x1="908.62" y1="564.97" x2="903.26" y2="577.52"/>
		<line class="st9" x1="891.7" y1="579.18" x2="903.26" y2="591.16"/>
	</g>
</g>
<g>
	<path class="st0" d="M886.51,663.09c1.23,0.09,2.5-0.11,3.51-0.71c0.12-0.07,0.24-0.15,0.36-0.24c0.68-0.51,1.14-1.3,0.9-2.04
		c-0.23-0.73-1.07-1.23-1.95-1.4s-1.79-0.09-2.69,0c-14.63,1.36-29.49,0.9-43.96-1.36c-1.68-0.26-3.81-0.41-4.66,0.89
		c-0.42,0.64-0.32,1.43,0.12,2.06c0.79,1.14,2.34,1.63,3.77,1.97c2.87,0.69,5.88,0.88,8.86,0.68
		C862.86,662.13,875.13,662.24,886.51,663.09z"/>
	<g>
		<path class="st10" d="M842.29,646.05c-0.92,2.85-1.99,5.65-3.21,8.38c0.96,0.28,1.85,0.83,2.54,1.55
			c1.76-2.91,3.51-5.82,5.27-8.73C845.56,646.69,844.23,646.14,842.29,646.05z"/>
		<path class="st10" d="M880.23,649.11c1.71,2.45,3.3,5,4.73,7.62c0.81-0.6,1.78-0.98,2.78-1.09c-1.26-3.16-2.51-6.32-3.77-9.48
			C882.72,646.9,881.47,647.63,880.23,649.11z"/>
		<g>
			<path class="st11" d="M878.12,661.5l11.86-3.17l-0.25-0.78l-1.61-4.06l-4.98,1.37l-1.2,2.13c-0.83-0.01-1.5,0.12-2.03,0.34
				C877.29,658.39,878.12,661.5,878.12,661.5z"/>
			<path class="st12" d="M878.12,661.5l11.86-3.17l-0.25-0.78l-7.23,2.07c-0.69-1.18-1.71-1.88-2.59-2.3
				C877.29,658.39,878.12,661.5,878.12,661.5z"/>
			<g>
				<path class="st1" d="M883.07,657.48c0.02,0,0.03-0.02,0.04-0.03c0.02-0.04,0.01-0.09-0.03-0.11l-0.97-0.69
					c-0.04-0.02-0.08-0.01-0.1,0.02c-0.02,0.04-0.01,0.09,0.03,0.11l0.97,0.69C883.03,657.48,883.05,657.49,883.07,657.48z"/>
				<path class="st1" d="M883.52,656.95c0.02,0,0.03-0.02,0.04-0.03c0.02-0.04,0.01-0.09-0.02-0.11l-0.99-0.75
					c-0.03-0.03-0.08-0.02-0.1,0.02c-0.02,0.04-0.01,0.09,0.02,0.11l0.99,0.75C883.48,656.95,883.5,656.95,883.52,656.95z"/>
				<path class="st1" d="M884.1,656.24c0.02,0,0.03-0.02,0.04-0.04c0.02-0.04,0.01-0.09-0.03-0.11l-1.23-0.81
					c-0.04-0.02-0.08-0.01-0.1,0.03c-0.02,0.04-0.01,0.09,0.03,0.11l1.23,0.81C884.06,656.25,884.08,656.25,884.1,656.24z"/>
			</g>
		</g>
		<g>
			<path class="st11" d="M830.75,653.54l10.9,5.63l0.34-0.74l1.54-4.09l-4.6-2.34l-2.32,0.77c-0.61-0.57-1.19-0.92-1.73-1.12
				C832.23,650.68,830.75,653.54,830.75,653.54z"/>
			<path class="st12" d="M830.75,653.54l10.9,5.63l0.34-0.74l-6.74-3.33c0.28-1.34,0-2.54-0.37-3.44
				C832.23,650.68,830.75,653.54,830.75,653.54z"/>
			<g>
				<path class="st1" d="M837.11,653.9c0.02,0.01,0.03,0.01,0.05,0c0.04-0.01,0.07-0.06,0.06-0.1l-0.25-1.16
					c-0.01-0.04-0.05-0.06-0.09-0.05c-0.04,0.01-0.07,0.06-0.06,0.1l0.25,1.16C837.08,653.88,837.09,653.89,837.11,653.9z"/>
				<path class="st1" d="M837.8,653.81c0.02,0.01,0.03,0.01,0.05,0c0.04-0.01,0.07-0.06,0.06-0.1l-0.23-1.22
					c-0.01-0.04-0.05-0.07-0.09-0.05c-0.04,0.01-0.07,0.06-0.06,0.1l0.23,1.22C837.77,653.78,837.78,653.8,837.8,653.81z"/>
				<path class="st1" d="M838.7,653.68c0.02,0.01,0.04,0.01,0.06,0c0.04-0.01,0.06-0.06,0.05-0.1l-0.37-1.42
					c-0.01-0.04-0.05-0.06-0.09-0.05c-0.04,0.02-0.06,0.06-0.05,0.1l0.37,1.42C838.67,653.65,838.69,653.67,838.7,653.68z"/>
			</g>
		</g>
		<g>
			<path class="st0" d="M868.08,597.62c6.55,17.69,13.11,35.37,19.66,53.06c-2.09,0.75-4.12,1.67-6.06,2.75
				c-8.98-12.73-16.83-26.27-23.42-40.38C861.45,608.15,864.25,603,868.08,597.62z"/>
			<path class="st0" d="M857.27,598.21c-5.51,17.37-11.46,34.59-17.84,51.66c2.11,1.21,4.21,2.41,6.32,3.62
				c8.55-14.7,17.1-29.39,25.65-44.09c1.32-2.26,2.67-4.97,1.62-7.37c-1.13-2.58-4.45-3.34-7.26-3.18
				C862.94,599.01,860.03,599.74,857.27,598.21z"/>
		</g>
		<path class="st10" d="M858.92,584.22c-0.39,1.74-0.78,3.49-1.24,5.19c-3.52,3.12-7.17,6.08-10.93,8.89
			c-1.43-0.07-2.86,0.77-3.48,2.06c-0.17,0.35-0.29,0.76-0.17,1.14c0.12,0.38,0.54,0.67,0.91,0.54c0.06,0.29,0.31,0.53,0.6,0.57
			c0.29,0.04,0.6-0.12,0.74-0.38c0.19,0.2,0.5,0.24,0.77,0.16c0.27-0.08,0.49-0.25,0.7-0.43c0.85-0.74,1.53-1.67,1.97-2.69
			c4.68-2.14,9.26-4.49,13.76-7c1.47-2.31,2.77-4.73,3.9-7.22C863.95,585.32,861.41,585.24,858.92,584.22z"/>
		<path class="st13" d="M858.06,561.26c-1-0.59-1.15-2.11-0.47-3.05c0.68-0.94,1.96-1.3,3.11-1.16c0.74,0.09,1.47,0.38,2.02,0.9
			c0.54,0.52,0.87,1.28,0.78,2.02c0.54-0.31,1.25-0.21,1.75,0.16c0.5,0.36,0.81,0.94,0.98,1.54c0.28,1,0.18,2.11-0.33,3.01
			c-0.52,0.9-1.47,1.55-2.5,1.64c-1.26,0.1-2.48-0.63-3.28-1.61C859.31,563.73,859.34,562.01,858.06,561.26z"/>
		<polygon class="st10" points="862.41,564.87 866.68,570.92 862.76,573.21 859.9,565.98 		"/>
		<path class="st11" d="M873.32,586.45c0.49,5.47,0.35,11.52,0.05,17.01c-13.9,1.67-17.36-3.37-17.36-3.37s1.19-21.26,5.43-27.29
			c1.16-1.64,3.12-2.85,5.11-2.61c4.06,0.49,7.36,8.95,9.7,15.39C875.31,585.97,874.32,586.26,873.32,586.45z"/>
		<path class="st10" d="M875.83,585.74c0,0,1.71,11.11,2.47,17.4c1.19,1.65,1.87,3.67,1.9,5.71c0,0.29,0,0.58-0.12,0.85
			s-0.36,0.49-0.64,0.51c-0.11,0.23-0.38,0.37-0.63,0.35c-0.25-0.03-0.48-0.23-0.53-0.48c-0.27,0.29-0.78,0.22-1.07-0.05
			c-0.29-0.27-0.41-0.67-0.52-1.06c-0.47-1.78-0.71-3.62-0.89-5.41c-1.83-5.97-4.45-16.58-4.45-16.58L875.83,585.74z"/>
		<path class="st10" d="M860.77,563.77c0.66-0.58,1.86-0.34,2.23,0.46c0.37,0.8-0.2,1.88-1.07,2.01c-0.25,0.68-0.59,1.35-1.17,1.78
			c-0.57,0.44-1.42,0.57-2.01,0.16c-0.46-0.32-0.67-0.88-0.82-1.42c-0.49-1.7-0.66-3.48-0.5-5.24c0.02-0.24,0.06-0.49,0.21-0.68
			c0.2-0.25,0.58-0.31,0.89-0.22c0.31,0.1,0.57,0.32,0.79,0.55C860.03,561.9,860.54,562.8,860.77,563.77z"/>
	</g>
</g>
<g>
	<path class="st0" d="M409.61,662.53c-1.23,0.09-2.5-0.11-3.51-0.71c-0.12-0.07-0.24-0.15-0.36-0.24c-0.68-0.51-1.14-1.3-0.9-2.04
		c0.23-0.73,1.07-1.23,1.95-1.4c0.88-0.18,1.79-0.09,2.69,0c14.63,1.36,29.49,0.9,43.96-1.36c1.68-0.26,3.81-0.41,4.66,0.89
		c0.42,0.64,0.32,1.43-0.12,2.06c-0.79,1.14-2.34,1.63-3.77,1.97c-2.87,0.69-5.88,0.88-8.86,0.68
		C433.25,661.57,420.99,661.67,409.61,662.53z"/>
	<g>
		<path class="st10" d="M431.34,591.57c-1.56,2.42-3.11,4.83-4.67,7.25c-0.9,4.11-1.81,8.23-2.73,12.41
			c-0.61-0.11-1.14,0.51-1.25,1.12s0.04,1.24,0.01,1.86c-0.02,0.41-0.12,0.82-0.1,1.24s0.2,0.86,0.58,1.03
			c0.3,0.13,0.66,0.07,0.93-0.11c0.28-0.17,0.49-0.43,0.67-0.7c0.86-1.26,1.3-2.8,1.16-4.37c3.05-5.86,6.1-11.73,9.15-17.59
			C433.9,593,432.7,592.29,431.34,591.57z"/>
		<path class="st14" d="M439.02,585.83c-0.23-0.91-1.4-1.3-2.3-1.03c-0.9,0.28-1.57,1.01-2.2,1.7c-1.82,2.03-3.64,4.06-5.45,6.08
			c1.18,1.16,2.35,2.33,3.53,3.49C434.51,592.55,436.72,589.18,439.02,585.83z"/>
		<path class="st10" d="M444.59,575.93c0.29,1.41,0.57,2.82,0.86,4.23c0.09,0.47,0.19,0.96,0.02,1.4c-0.22,0.59-0.86,0.94-1.49,1
			c-0.63,0.06-1.25-0.11-1.86-0.28c-0.49,1.82-0.97,3.63-1.46,5.45c-1.12-0.36-2.24-0.72-3.36-1.07c0.67-2.77,1.33-5.55,2.13-8.28
			c0.33-1.13,0.74-2.34,1.67-3.05S444.29,574.44,444.59,575.93z"/>
		<path class="st15" d="M443.71,595.03c0,0-0.09-6.8-1.43-8.65c-1.03-1.41-2.92-2.3-4.56-1.72c-1.42,0.5-2.29,1.89-3,3.21
			c-2.6,4.8-4.61,9.92-5.96,15.21c2.87,1.85,6.25,2.89,9.66,2.98C438.37,602.11,443.71,595.03,443.71,595.03z"/>
		<path class="st10" d="M443.71,595.03l-5.19,1.91c1.01,1.95,2.36,3.92,3.5,5.43c1.06,1.42,3.2,1.41,4.25-0.02l6.74-9.16
			c0,0,1.78-0.48,3.13-1.44c0.08-0.38-0.22-0.79-0.6-0.82c0.38-0.24,0.16-0.96-0.28-0.96c0.31-0.63-0.45-1.37-1.15-1.28
			s-1.22,0.66-1.62,1.25s-0.75,1.23-1.37,1.57c-1.96,1.89-4.03,3.67-6.2,5.32C444.52,596.33,444.13,595.84,443.71,595.03z"/>
		<g>
			<g>
				<path class="st10" d="M451.94,647.25c0.92,2.85,1.99,5.65,3.21,8.38c-0.96,0.28-1.85,0.83-2.54,1.55
					c-1.76-2.91-3.51-5.82-5.27-8.73C448.67,647.89,450.01,647.34,451.94,647.25z"/>
				<g>
					<path class="st11" d="M463.49,654.74l-10.9,5.63l-0.34-0.74l-1.54-4.09l4.6-2.34l2.32,0.77c0.61-0.57,1.19-0.92,1.73-1.12
						C462.01,651.89,463.49,654.74,463.49,654.74z"/>
					<path class="st12" d="M463.49,654.74l-10.9,5.63l-0.34-0.74l6.74-3.33c-0.28-1.34,0-2.54,0.37-3.44
						C462.01,651.89,463.49,654.74,463.49,654.74z"/>
					<g>
						<path class="st1" d="M457.12,655.1c-0.02,0.01-0.03,0.01-0.05,0c-0.04-0.01-0.07-0.06-0.06-0.1l0.25-1.16
							c0.01-0.04,0.05-0.06,0.09-0.05c0.04,0.01,0.07,0.06,0.06,0.1l-0.25,1.16C457.15,655.08,457.14,655.09,457.12,655.1z"/>
						<path class="st1" d="M456.43,655.01c-0.02,0.01-0.03,0.01-0.05,0c-0.04-0.01-0.07-0.06-0.06-0.1l0.23-1.22
							c0.01-0.04,0.05-0.07,0.09-0.05c0.04,0.01,0.07,0.06,0.06,0.1l-0.23,1.22C456.46,654.98,456.45,655,456.43,655.01z"/>
						<path class="st1" d="M455.53,654.88c-0.02,0.01-0.04,0.01-0.06,0c-0.04-0.02-0.06-0.06-0.05-0.1l0.37-1.42
							c0.01-0.04,0.05-0.06,0.09-0.05c0.04,0.02,0.06,0.06,0.05,0.1l-0.37,1.42C455.56,654.85,455.55,654.87,455.53,654.88z"/>
					</g>
				</g>
			</g>
			<path class="st11" d="M439.21,602.97c4.57,15.72,9.13,31.43,13.7,47.15c-1.46,0.54-2.93,1.08-4.39,1.62
				c-8.01-14.13-15.13-28.76-21.29-43.79C431.12,607.65,434.91,606.24,439.21,602.97z"/>
		</g>
		<g>
			<g>
				<path class="st10" d="M412.76,646.67c-1.67,2.48-3.21,5.05-4.6,7.7c-0.82-0.58-1.79-0.94-2.79-1.04
					c1.2-3.18,2.41-6.36,3.61-9.54C410.23,644.5,411.49,645.21,412.76,646.67z"/>
				<g>
					<path class="st11" d="M414,660.38l-11.17-5.09l0.37-0.73l2.26-3.74l4.68,2.17l0.83,2.3c0.82,0.13,1.46,0.36,1.95,0.67
						C415.33,657.45,414,660.38,414,660.38z"/>
					<path class="st12" d="M414,660.38l-11.17-5.09l0.37-0.73l6.79,3.24c0.88-1.05,2-1.57,2.94-1.84
						C415.33,657.45,414,660.38,414,660.38z"/>
					<g>
						<path class="st1" d="M409.78,655.6c-0.02-0.01-0.03-0.02-0.04-0.04c-0.01-0.04,0.01-0.09,0.04-0.11l1.07-0.52
							c0.04-0.02,0.08,0,0.1,0.04c0.01,0.04-0.01,0.09-0.04,0.11l-1.07,0.52C409.82,655.61,409.8,655.61,409.78,655.6z"/>
						<path class="st1" d="M409.43,655c-0.02-0.01-0.03-0.02-0.04-0.04c-0.02-0.04,0-0.09,0.04-0.11l1.1-0.57
							c0.04-0.02,0.08,0,0.1,0.04c0.02,0.04,0,0.09-0.04,0.11l-1.1,0.57C409.47,655.01,409.45,655.01,409.43,655z"/>
						<path class="st1" d="M408.98,654.21c-0.02-0.01-0.03-0.02-0.04-0.04c-0.01-0.04,0.01-0.09,0.05-0.1l1.35-0.59
							c0.04-0.02,0.08,0,0.09,0.04c0.01,0.04-0.01,0.09-0.05,0.1l-1.35,0.59C409.01,654.22,408.99,654.22,408.98,654.21z"/>
					</g>
				</g>
			</g>
			<path class="st11" d="M439.7,609.3c-9.53,13.3-19.06,26.61-28.59,39.91c-1.33-0.82-2.66-1.63-3.99-2.45
				c6.15-15.03,13.26-29.67,21.27-43.8C431.01,605.83,434.46,607.94,439.7,609.3z"/>
		</g>
		<path class="st13" d="M442.47,573.24c0.64-0.31,1.41-0.38,2.07-0.1s1.14,0.97,1.08,1.68c-0.06,0.71-0.73,1.34-1.43,1.26
			c0.17,0.69-0.12,1.46-0.7,1.87c-0.58,0.4-1.41,0.4-2,0c-0.22,1.5-0.47,3.06-1.31,4.32c-0.84,1.26-2.46,2.15-3.9,1.65
			c-1.28,2.32-4.44,3.4-6.87,2.34c-1.41-0.61-2.56-1.95-2.64-3.48c-0.08-1.53,1.14-3.11,2.67-3.13c-0.7-1.23,0.19-2.92,1.51-3.43
			s2.84-0.11,4.08,0.59c-0.04-0.95,0.45-1.91,1.26-2.42c0.8-0.51,1.88-0.56,2.72-0.12c-0.22-0.93,0.42-1.98,1.35-2.21
			C441.29,571.84,442.35,572.47,442.47,573.24z"/>
		<path class="st16" d="M430.25,598.08l9.45,4.44c-0.64,3.98-1.54,7.91-2.69,11.78c-0.45,1.52-2.01,2.43-3.56,2.11
			c-2.61-0.53-5.15-1.39-7.54-2.55c-1.46-0.71-2.12-2.43-1.51-3.93C426.06,605.84,427.92,601.85,430.25,598.08z"/>
		<path class="st16" d="M430.23,600.46c-0.03,0-0.07-0.01-0.1-0.02c-0.18-0.06-0.29-0.25-0.23-0.44
			c1.93-6.13,6.19-11.57,11.68-14.91c0.17-0.1,0.38-0.05,0.48,0.12c0.1,0.16,0.05,0.38-0.12,0.48c-5.35,3.26-9.5,8.55-11.38,14.53
			C430.52,600.36,430.38,600.46,430.23,600.46z"/>
	</g>
</g>
<g>
	<path class="st0" d="M235.83,675.93c5.58,0,10.73-0.46,16.25-1.26c0.78-0.11,1.69-0.18,2.22,0.4c0.53,0.58,0.4,1.56-0.1,2.17
		s-1.24,0.93-1.98,1.2c-3.61,1.3-7.46,1.71-11.27,2.12c-4.86,0.52-9.72,1.03-14.61,1.1c-6.34,0.09-12.67-0.59-18.98-1.26
		c-4.66-0.5-9.32-0.99-13.99-1.49c-0.65-0.07-1.4-0.2-1.73-0.78c-0.37-0.64,0.04-1.51,0.67-1.89c0.63-0.38,1.39-0.4,2.12-0.41
		C208.29,675.66,221.04,675.93,235.83,675.93z"/>
	<g>
		<g>
			<g>
				<path class="st17" d="M182.47,576.43c1.38-1.85,4.52-3.38,6.76-2.71c7.12,2.11,6.64,12.16,1.2,12.3
					c-0.73,0.02-1.01,0.62-1.56,0.12C186.01,583.54,183.45,580.51,182.47,576.43z"/>
				<path class="st17" d="M186.84,574.98c0.84-1.61,2.55-2.74,4.36-2.89s3.68,0.68,4.78,2.13c0.62,0.82,1.02,1.82,1.84,2.43
					c1,0.75,2.41,0.71,3.59,0.28c1.17-0.43,2.19-1.19,3.26-1.83c1.11-0.67,2.33-1.23,3.63-1.24c1.29-0.02,2.66,0.62,3.2,1.79
					c0.33,0.72,0.36,1.63,0.98,2.12c0.8,0.64,1.99,0.14,2.76-0.53c0.77-0.67,1.49-1.53,2.49-1.68c1.29-0.18,2.42,0.94,2.93,2.14
					c0.79,1.84,0.56,4.18-0.84,5.6c-1.41,1.43-4.02,1.58-5.37,0.1c-0.48-0.52-0.77-1.19-1.21-1.74s-1.11-1.03-1.8-0.91
					c-1.14,0.2-1.45,1.65-2.03,2.66c-0.72,1.25-2.2,1.98-3.64,1.92c-1.44-0.06-2.81-0.84-3.69-1.98c-0.92-1.19-1.63-2.91-3.13-3.03
					c-1.54-0.12-2.85,1.67-4.35,1.29c-0.99-0.25-1.5-1.33-1.82-2.3c-0.32-0.97-0.69-2.06-1.62-2.5c-0.85-0.4-1.85-0.09-2.79-0.06
					C187.43,576.8,186.2,576.21,186.84,574.98z"/>
			</g>
			<path class="st18" d="M168.74,596.87c0.76,1.57,2.06,2.88,3.63,3.65c2.12,5.32,6.02,15.87,9.04,15.62
				c3.35-0.28,9.83-8.69,9.83-8.69s1.06-4.25,1.22-7.28c0.18-3.43,1.08-6.82,2.63-9.88c-2.24-1.63-3.96-3.95-4.86-6.57
				c-1.54,1.35-3.55,3.95-3.55,3.95s0.1,0.18,0.26,0.49c0.25,0.51,0.64,1.38,0.95,2.46c0.45,1.59,0.73,3.65,0.14,5.72
				c-1.13,3.99-5.18,7.92-6.86,9.9c-2.28-2.36-4.57-4.73-6.82-7.16c0.27-1.89,0.37-3.8,0.3-5.71c-0.01-0.39-0.04-0.78-0.21-1.13
				c-0.18-0.34-0.55-0.62-0.93-0.56c-0.37,0.06-0.64,0.41-0.72,0.77c-0.08,0.37-0.02,0.75,0.05,1.11c-0.43-0.44-0.9-0.9-1.5-1
				s-1.33,0.37-1.23,0.97c-0.37-0.16-0.84,0.01-1.02,0.37c-0.18,0.36-0.04,0.84,0.31,1.04c-0.41-0.11-0.83,0.27-0.91,0.68
				C168.4,596.07,168.56,596.49,168.74,596.87z"/>
			<path class="st19" d="M186.87,612.44c0,0-0.58-6.18-0.34-9.65c1.05,2.81,2.4,7.45,2.4,7.45L186.87,612.44z"/>
			<path class="st19" d="M186.95,588.16c0.25,0.51,0.64,1.38,0.95,2.46c0.54-0.58,0.95-1.28,1.28-2c0.39-0.87,0.67-1.79,0.94-2.7
				C189.16,586.79,188.09,587.55,186.95,588.16z"/>
			<g>
				<path class="st18" d="M198.68,631.39c0.43,0.69,0.87,1.41,1.3,2.15c0.47,0.8,0.95,1.61,1.43,2.45c0.33,0.57,0.67,1.15,1.01,1.74
					c0.53,0.91,1.07,1.82,1.62,2.72c0.68,1.11,1.38,2.21,2.1,3.27c1.91,2.8,4.01,5.35,6.39,7.18c4.06,3.11,14.45,8.69,22.97,13.43
					c2.94,1.63,5.65,3.17,7.81,4.48c0.16-1.3,2.21-3,2.21-3l-6.92-6.34l-18.13-16.63c0,0-1.35-3.11-3.13-7.07
					c-1.66-3.69-3.7-8.13-5.38-11.49c-0.14,0.18-0.29,0.36-0.44,0.54c-0.1,0.11-0.2,0.23-0.31,0.34c-1.83,1.95-4.18,3.17-6.78,4.19
					c-1.08,0.42-2.2,0.81-3.34,1.21C200.31,630.81,199.49,631.09,198.68,631.39z"/>
				<path class="st20" d="M195.24,632.36c-0.01,0.46,0.25,0.87,0.5,1.26c0.64,0.99,1.3,1.97,1.98,2.93c1.4,1.97,2.88,3.88,4.44,5.73
					c0.76,0.89,1.53,1.77,2.32,2.63c0.55-0.39,1.11-0.79,1.66-1.18c3.73-2.65,7.47-5.31,11.2-7.96c0.54-0.38,1.07-0.76,1.61-1.14
					c-2.33-3.45-4.66-6.9-6.99-10.35c-0.82-1.22-1.65-2.44-2.47-3.66c-5.71,2.15-10.16,5.91-13.64,10.42
					C195.55,631.42,195.24,631.86,195.24,632.36z"/>
			</g>
			<path class="st21" d="M197.72,636.54c1.4,1.97,2.88,3.88,4.44,5.73c0.63-0.6,1.26-1.21,1.88-1.82c1.89-1.89,3.66-3.88,5.02-6.17
				c1.62-2.74,2.57-6.02,2.17-9.14c-0.08-0.61-0.21-1.22-0.4-1.82c-2.13,2-4.26,4-6.38,6c-1.13,1.06-2.26,2.12-3.38,3.18
				c-0.36,0.34-0.73,0.68-1.08,1.03c-0.6,0.58-1.17,1.19-1.69,1.85C198.02,635.73,197.76,636.11,197.72,636.54z"/>
			<path class="st18" d="M192.94,590.8c1.85-0.92,4.05-0.11,5.95,0.7c19.2,8.18,18.02,7.48,18.62,8.42
				c1.49,2.36-7.48,15.33-7.48,15.33l-1.86-2.11l2.07-9.24c0,0-3.98-1.05-8.88-2.15c2.16,6.21,3.29,9.65,3.29,9.65
				s-10.56-0.19-12.55-8.87C191.2,598.67,192.04,594.61,192.94,590.8z"/>
			<g>
				<path class="st18" d="M194.85,662.43c1.71,1.89,3.39,3.68,4.96,5.24c0.44-0.89,2.32-2.17,3.04-2.84
					c-0.91-1.6-1.9-3.48-2.91-5.46c-4-7.84-8.22-17.26-8.22-17.26l5.01-3.16l1.87-1.18l2.81-1.78l3.37-2.12l-2.63-2.38l-1.04-0.95
					l-2.72-2.47l-3.29-2.98c0,0-2.9,1.86-6.26,4.3c-4.55,3.31-9.94,7.7-10.04,9.98C178.66,642.72,187.02,653.76,194.85,662.43z"/>
				<path class="st20" d="M202.67,614.33c2.22,1.1,4.34,2.47,5.98,4.32c1.65,1.85,2.8,4.2,2.91,6.68c0.16,3.57-1.86,6.96-4.56,9.31
					c-2.7,2.35-6.02,3.82-9.29,5.53c-3-3.65-5.99-7.29-9-10.92c2.34-2.06,4.69-4.12,7.07-6.15c-0.7-0.94-1.4-1.88-2.07-2.65
					C196.93,618.47,199.98,616.26,202.67,614.33z"/>
			</g>
			<path class="st1" d="M195.95,590.51c0,0-1.83,5.27-1.75,7.24c0.22,5.96,4.9,7.73,8.31,7.34c2.3,5.73,3.79,10.16,3.79,10.16
				s-8.66,9.79-14.58,8.08c-2.12-4.89-5.22-18.14-5.47-19.52c-0.23-1.29-0.03-3.72,0.6-4.85c3.14,3.94,7.85-8.97,7.85-8.97
				L195.95,590.51z"/>
			<path class="st18" d="M190.24,581.75c0.32-0.67,1.05-1.12,1.79-1.1c0.74,0.02,1.45,0.5,1.73,1.19c0.28,0.68,0.12,1.53-0.39,2.06
				c-0.51,0.53-1.35,0.73-2.06,0.57c-0.27,1.27-1.62,2.72-2.59,3.58c-5.74,5.02-10.21-5.41-6.52-11.01
				c0.77-1.17,2.26-1.78,3.66-1.62c1.39,0.16,2.66,1.04,3.41,2.22C190.03,578.82,190.3,580.27,190.24,581.75z"/>
			<path class="st18" d="M208.25,612.73c-1.57,0.35-3.28,1.04-4.85,1.38c-0.33,0.07-0.67,0.15-0.95,0.33
				c-0.28,0.18-0.51,0.5-0.48,0.84c0.02,0.34,0.37,0.64,0.69,0.55c-0.35,0.54-0.04,1.37,0.57,1.55c0.03,0.5,0.42,0.96,0.91,1.06
				c-0.07,0.57,0.58,1.02,1.15,0.97c0.57-0.05,1.05-0.44,1.48-0.82c1.17-1.03,2.26-2.16,3.26-3.36
				C209.35,614.49,208.82,613.4,208.25,612.73z"/>
			<path class="st17" d="M180.38,580.75c0.11,0,0.83-0.02,1.73-0.02c0.01-0.29,0.04-0.57,0.09-0.85c0.08-0.4,0.24-0.78,0.52-1.08
				c-0.2,0.62-0.25,1.29-0.16,1.94c1.12,0.02,2.39,0.07,3.11,0.22c0.08-0.59,0.25-1.47,0.54-1.98c-0.03,0.62-0.04,1.37-0.07,1.98
				c1.38,0.27,2.74,0.41,4.12,0.68c0.28-1.16,0.18-2.4-0.28-3.5c-0.46-1.1-1.26-2.05-2.28-2.68c-0.6-0.37-1.29-0.63-1.99-0.61
				c-0.65,0.01-1.53,0.24-2.1,0.55C182.4,576.06,180.41,578.12,180.38,580.75z"/>
			<polygon class="st19" points="201.35,601.75 197,600.5 202.22,604.25 			"/>
			<path class="st22" d="M181.1,606.42c-0.62,0.63-1.24,1.27-1.85,1.9"/>
			<path class="st22" d="M212.42,601.2c-0.77,0.63-1.45,1.36-2.02,2.17"/>
			<path class="st17" d="M183.15,586.72c-0.16,0-0.33-0.07-0.4-0.23c-0.04-0.09-0.04-0.19-0.04-0.29l0.13-3.32
				c0-0.04,0.04-0.08,0.08-0.08c0,0,0,0,0,0c0.05,0,0.08,0.04,0.08,0.09l-0.13,3.32c0,0.08-0.01,0.15,0.02,0.21
				c0.05,0.11,0.2,0.15,0.31,0.13c0.14-0.03,0.27-0.12,0.38-0.2c0.04-0.03,0.09-0.02,0.11,0.02c0.03,0.04,0.02,0.09-0.02,0.11
				c-0.13,0.09-0.27,0.19-0.45,0.23C183.21,586.72,183.18,586.72,183.15,586.72z"/>
			<path class="st23" d="M184.12,581.41c0.51-0.04,1.03,0.13,1.41,0.47"/>
			<path class="st23" d="M180.62,581.79c0.42-0.29,0.96-0.39,1.46-0.28"/>
			<path class="st23" d="M191.89,581.06c-0.1,0.43-0.01,0.9,0.23,1.27c0.25,0.37,0.65,0.62,1.09,0.69"/>
			<path class="st23" d="M191.54,583.57c-0.13-0.5,0.16-1.07,0.64-1.27"/>
			<ellipse cx="184.61" cy="583.54" rx="0.22" ry="0.34"/>
			<path d="M181.57,583.05c0.12,0,0.22,0.15,0.22,0.34c0,0.19-0.1,0.34-0.22,0.34c-0.12,0-0.22-0.15-0.22-0.34
				C181.35,583.2,181.44,583.05,181.57,583.05z"/>
			<path class="st1" d="M185.14,586.43c-0.17,0.46-0.67,0.79-1.16,0.76c0.15,0.21,0.37,0.39,0.62,0.42
				c0.26,0.04,0.54-0.08,0.65-0.32c0.06-0.14,0.06-0.3,0.02-0.44C185.22,586.71,185.16,586.58,185.14,586.43z"/>
			<path class="st22" d="M172.9,593.85c0.19,0.32,0.37,0.66,0.43,1.03c0.05,0.37-0.03,0.78-0.31,1.03
				c-0.27,0.26-0.74,0.31-1.02,0.05c0.04,0.33-0.13,0.68-0.41,0.85s-0.67,0.15-0.94-0.04c-0.04,0.29-0.29,0.54-0.58,0.59
				c-0.29,0.04-0.6-0.12-0.73-0.39"/>
			<path class="st22" d="M202.97,615.72c0.81-0.31,1.63-0.55,2.48-0.73"/>
			<path class="st22" d="M203.61,617.16c0.76-0.37,1.52-0.74,2.28-1.11"/>
			<path class="st22" d="M204.43,618.28c0.76-0.48,1.51-0.96,2.27-1.44"/>
		</g>
		<path class="st24" d="M194.85,662.43c1.71,1.89,3.39,3.68,4.96,5.24c0.44-0.89,2.32-2.17,3.04-2.84c-0.91-1.6-1.9-3.48-2.91-5.46
			C198.32,660.52,196.62,661.54,194.85,662.43z"/>
		<path class="st24" d="M235.51,664.33c2.94,1.63,5.65,3.17,7.81,4.48c0.16-1.3,2.21-3,2.21-3l-6.92-6.34
			C237.64,661.13,236.61,662.75,235.51,664.33z"/>
		<g>
			<path class="st25" d="M241.5,678.07c0.56-0.19,0.9-0.77,1.18-1.31c2.11-3.98,4.07-8.1,5.15-12.53c-0.48-0.32-0.98-0.59-1.51-0.81
				c-0.62-0.26-1.26-0.44-1.9-0.54c-0.23-0.04-0.46-0.07-0.69-0.08c-0.34-0.02-0.67-0.03-0.99-0.01c0.34,1.09,0.15,2.32-0.49,3.22
				c-0.64,0.9-1.72,1.44-2.79,1.48c0.06,2.83,0.12,5.65,0.18,8.47c0.01,0.52,0.03,1.08,0.31,1.53c0.08,0.12,0.17,0.23,0.29,0.33
				C240.59,678.09,241.08,678.22,241.5,678.07z"/>
			<path class="st1" d="M241.5,678.07c0.56-0.19,0.9-0.77,1.18-1.31c2.11-3.98,4.07-8.1,5.15-12.53c-0.48-0.32-0.98-0.59-1.51-0.81
				c-0.72,1.99-1.27,4.05-1.62,6.14c-0.66-1.11-0.6-2.48-0.44-3.75c0.12-0.97,0.28-1.97,0.16-2.93c-0.23-0.04-0.46-0.07-0.69-0.08
				c0.03,1.11-0.06,2.22-0.28,3.29c-0.23,1.1-0.59,2.17-0.7,3.3c-0.12,1.12,0.05,2.35,0.74,3.26c-0.74,1.92-1.85,3.69-3.25,5.16
				C240.59,678.09,241.08,678.22,241.5,678.07z"/>
			<g>
				<path class="st1" d="M241.94,672.03c-0.28-0.28-0.67-0.43-1.05-0.4c-0.38,0.03-0.73,0.25-0.94,0.57l0.17,0.12
					c0.17-0.28,0.47-0.46,0.79-0.48c0.32-0.03,0.65,0.1,0.89,0.34L241.94,672.03z"/>
				<path class="st1" d="M241.89,670.8c-0.23-0.32-0.6-0.54-0.98-0.57c-0.38-0.04-0.77,0.1-1.04,0.37l0.14,0.15
					c0.23-0.23,0.56-0.35,0.88-0.32c0.33,0.03,0.64,0.21,0.84,0.49L241.89,670.8z"/>
				<path class="st1" d="M241.98,669.48c-0.26-0.32-0.64-0.53-1.03-0.56c-0.39-0.03-0.8,0.11-1.08,0.38l0.14,0.15
					c0.24-0.23,0.59-0.36,0.93-0.33c0.34,0.03,0.67,0.21,0.89,0.48L241.98,669.48z"/>
			</g>
			<path class="st26" d="M239.98,667.66c-1.34,0.36-2.51,1.3-3.16,2.55c-0.07,0.13-0.13,0.26-0.13,0.4s0.05,0.3,0.17,0.38
				c0.21,0.13,0.47-0.05,0.64-0.22C238.41,669.85,239.23,668.83,239.98,667.66z"/>
			<path class="st26" d="M240.6,668.36c-1.25,0.35-2.56,0.53-3.87,0.51c-0.18,0-0.38-0.01-0.54-0.09c-0.17-0.09-0.31-0.27-0.28-0.46
				c0.02-0.13,0.12-0.23,0.22-0.31c0.52-0.4,1.25-0.37,1.91-0.28C238.91,667.84,239.77,668.04,240.6,668.36z"/>
		</g>
		<g>
			<path class="st25" d="M194.63,677.02c0.59,0.08,1.15-0.29,1.64-0.65c3.66-2.63,7.24-5.45,10.18-8.95
				c-0.28-0.5-0.62-0.97-0.99-1.39c-0.44-0.5-0.94-0.95-1.47-1.33c-0.19-0.14-0.38-0.27-0.58-0.38c-0.29-0.17-0.59-0.32-0.89-0.45
				c-0.18,1.13-0.9,2.15-1.87,2.67c-0.97,0.52-2.18,0.52-3.16,0.08c-1.2,2.56-2.4,5.12-3.6,7.67c-0.22,0.47-0.45,0.98-0.4,1.51
				c0.01,0.14,0.05,0.29,0.11,0.42C193.8,676.64,194.19,676.96,194.63,677.02z"/>
			<path class="st1" d="M194.63,677.02c0.59,0.08,1.15-0.29,1.64-0.65c3.66-2.63,7.24-5.45,10.18-8.95
				c-0.28-0.5-0.62-0.97-0.99-1.39c-1.53,1.47-2.94,3.06-4.18,4.78c-0.1-1.29,0.57-2.49,1.27-3.55c0.54-0.81,1.12-1.64,1.44-2.56
				c-0.19-0.14-0.38-0.27-0.58-0.38c-0.46,1.01-1.04,1.96-1.72,2.83c-0.69,0.89-1.49,1.69-2.09,2.65c-0.6,0.96-1,2.13-0.78,3.25
				c-1.52,1.39-3.3,2.48-5.21,3.18C193.8,676.64,194.19,676.96,194.63,677.02z"/>
			<g>
				<path class="st1" d="M197.71,671.8c-0.12-0.38-0.41-0.68-0.77-0.83c-0.36-0.14-0.77-0.1-1.09,0.1l0.1,0.18
					c0.28-0.17,0.62-0.2,0.93-0.08c0.3,0.12,0.54,0.38,0.65,0.7L197.71,671.8z"/>
				<path class="st1" d="M198.2,670.68c-0.07-0.39-0.3-0.75-0.62-0.95c-0.33-0.2-0.74-0.25-1.1-0.13l0.06,0.2
					c0.31-0.1,0.65-0.06,0.93,0.11c0.28,0.17,0.48,0.48,0.53,0.81L198.2,670.68z"/>
				<path class="st1" d="M198.87,669.53c-0.09-0.4-0.34-0.76-0.68-0.96s-0.76-0.26-1.13-0.14l0.06,0.2c0.32-0.1,0.69-0.06,0.98,0.12
					c0.29,0.18,0.51,0.49,0.58,0.83L198.87,669.53z"/>
			</g>
			<path class="st26" d="M197.89,667.01c-1.36-0.27-2.83,0.05-3.96,0.88c-0.11,0.08-0.23,0.17-0.3,0.3s-0.09,0.29-0.01,0.42
				c0.13,0.21,0.44,0.16,0.67,0.09C195.51,668.29,196.7,667.74,197.89,667.01z"/>
			<path class="st26" d="M198.13,667.92c-1.28-0.24-2.52-0.66-3.69-1.26c-0.16-0.08-0.33-0.17-0.45-0.33
				c-0.11-0.15-0.15-0.38-0.04-0.53c0.08-0.11,0.21-0.16,0.34-0.18c0.64-0.13,1.28,0.22,1.83,0.59
				C196.85,666.7,197.54,667.27,198.13,667.92z"/>
		</g>
	</g>
</g>
<g>
	<path class="st0" d="M718.79,733.16c-1.99,0.13-4.03-0.16-5.66-0.98c-0.2-0.1-0.39-0.21-0.58-0.33c-1.1-0.7-1.84-1.79-1.46-2.81
		c0.37-1,1.73-1.68,3.14-1.93c1.41-0.24,2.89-0.12,4.34,0c23.61,1.87,47.6,1.24,70.95-1.87c2.72-0.36,6.15-0.56,7.52,1.23
		c0.67,0.88,0.51,1.96-0.19,2.83c-1.27,1.56-3.77,2.24-6.09,2.71c-4.64,0.95-9.49,1.21-14.3,0.93
		C756.96,731.84,737.16,731.99,718.79,733.16z"/>
	<g>
		<g>
			<path class="st27" d="M708.6,718.66c1.72,0.19,3.4,0.85,4.79,1.88c2.09-3.81,21.24-43.27,29.06-58.29
				c0.72-1.39,1.35-2.57,1.85-3.49c0.54-0.98,0.94-1.66,1.18-2.01c-0.67-0.81-2.4-1.36-4.52-1.78c-4.61-0.92-11.05-1.19-12.53-2.05
				c-0.45,1.13-1.47,4.38-2.83,8.88C720.41,678.98,710.32,714.34,708.6,718.66z"/>
			<g>
				<path class="st20" d="M725.22,728.76l-20.48-5.47l0.43-1.35l2.78-7.01l8.6,2.36l2.07,3.68c1.44-0.02,2.59,0.2,3.51,0.58
					C726.64,723.39,725.22,728.76,725.22,728.76z"/>
				<path class="st28" d="M725.22,728.76l-20.48-5.47l0.43-1.35l12.49,3.58c1.19-2.03,2.95-3.25,4.48-3.97
					C726.64,723.39,725.22,728.76,725.22,728.76z"/>
				<g>
					<path class="st1" d="M716.66,721.83c-0.03-0.01-0.06-0.03-0.07-0.06c-0.04-0.06-0.02-0.15,0.04-0.19l1.67-1.2
						c0.06-0.04,0.14-0.03,0.17,0.04c0.04,0.06,0.02,0.15-0.04,0.19l-1.67,1.2C716.73,721.83,716.69,721.84,716.66,721.83z"/>
					<path class="st1" d="M715.89,720.9c-0.03-0.01-0.05-0.03-0.07-0.05c-0.04-0.06-0.02-0.15,0.04-0.19l1.71-1.29
						c0.06-0.04,0.14-0.03,0.18,0.03c0.04,0.06,0.02,0.15-0.04,0.19l-1.71,1.29C715.96,720.9,715.92,720.91,715.89,720.9z"/>
					<path class="st1" d="M714.89,719.69c-0.03-0.01-0.06-0.03-0.08-0.06c-0.03-0.07-0.01-0.15,0.05-0.19l2.12-1.39
						c0.06-0.04,0.14-0.02,0.17,0.05c0.03,0.07,0.01,0.15-0.05,0.19l-2.12,1.39C714.95,719.69,714.92,719.7,714.89,719.69z"/>
				</g>
			</g>
			<g>
				<path class="st27" d="M751.97,657.17c0.74,1.23,3.13,5.31,6.35,10.81c9.89,16.92,27.65,47.44,29.94,51.24
					c1.19-1.26,2.73-2.2,4.4-2.69c-1.8-4.03-15.72-44.02-20.73-58.66c-0.86-2.5-1.45-4.26-1.68-4.97
					C766.9,653.07,754.28,656.22,751.97,657.17z"/>
				<g>
					<path class="st20" d="M807.05,715.01l-18.83,9.73l-0.59-1.28l-2.66-7.06l7.95-4.04l4.01,1.33c1.05-0.98,2.05-1.59,2.99-1.94
						C804.49,710.08,807.05,715.01,807.05,715.01z"/>
					<path class="st28" d="M807.05,715.01l-18.83,9.73l-0.59-1.28l11.65-5.75c-0.49-2.31,0-4.39,0.64-5.95
						C804.49,710.08,807.05,715.01,807.05,715.01z"/>
					<g>
						<path class="st1" d="M796.06,715.64c-0.03,0.01-0.06,0.02-0.09,0.01c-0.07-0.02-0.11-0.1-0.1-0.17l0.43-2.01
							c0.02-0.07,0.08-0.11,0.15-0.09c0.07,0.02,0.11,0.1,0.1,0.17l-0.43,2.01C796.11,715.6,796.09,715.63,796.06,715.64z"/>
						<path class="st1" d="M794.86,715.48c-0.03,0.01-0.06,0.02-0.09,0.01c-0.07-0.02-0.12-0.1-0.1-0.17l0.4-2.1
							c0.01-0.07,0.08-0.11,0.15-0.09c0.07,0.02,0.12,0.1,0.1,0.17l-0.4,2.1C794.92,715.43,794.89,715.46,794.86,715.48z"/>
						<path class="st1" d="M793.31,715.25c-0.03,0.01-0.06,0.02-0.1,0c-0.07-0.03-0.11-0.1-0.09-0.18l0.63-2.46
							c0.02-0.07,0.09-0.11,0.16-0.08c0.07,0.03,0.11,0.11,0.09,0.18l-0.63,2.46C793.36,715.21,793.34,715.24,793.31,715.25z"/>
					</g>
				</g>
			</g>
			<path class="st29" d="M725.6,661.79c5.62,0.15,11.23,0.3,16.85,0.46c0.72-1.39,1.35-2.57,1.85-3.49c-0.22-0.66-0.57-1.29-1-1.82
				c-0.65-0.79-1.46-1.43-2.34-1.97c-4.61-0.92-11.05-1.19-12.53-2.05C727.98,654.04,726.96,657.29,725.6,661.79z"/>
			<path class="st17" d="M760.3,556.46c0.85,0.17,1.77-0.51,1.86-1.37c0.09-0.86-0.66-1.72-1.52-1.73c0.55-0.16,0.58-1.01,0.16-1.4
				c-0.42-0.39-1.04-0.43-1.61-0.43c-0.09-0.71-0.54-1.42-1.24-1.6c-0.69-0.17-1.53,0.43-1.41,1.13c-0.27-0.5-0.92-0.75-1.45-0.57
				s-0.89,0.79-0.79,1.34c-0.58-0.25-1.21-0.51-1.83-0.35c-0.61,0.16-1.07,0.96-0.66,1.45c-0.37-0.36-1.03-0.37-1.41-0.01
				c-0.38,0.35-0.42,1.01-0.09,1.41c-0.58-0.27-1.36,0.01-1.63,0.59c-0.27,0.58,0,1.36,0.59,1.64c-0.65-0.25-1.46,0.01-1.85,0.6
				s-0.3,1.43,0.18,1.93c-0.59,0.07-1.02,0.76-0.82,1.32s0.98,0.81,1.48,0.48c-0.17,0.47-0.07,1.03,0.26,1.41
				c0.33,0.38,0.87,0.56,1.36,0.46c-0.37,0.27-0.38,0.85-0.13,1.24c0.25,0.38,0.69,0.6,1.13,0.73c1.14,0.34,2.4,0.21,3.45-0.34
				c0.53,0.65,1.53,0.77,2.3,0.44s1.34-1.02,1.74-1.75c0.54-1.01,0.82-2.17,0.8-3.32c-0.01-0.4-0.04-0.83,0.16-1.17
				c0.18-0.29,0.5-0.46,0.8-0.63c0.3-0.17,0.61-0.36,0.75-0.68C761,556.95,760.85,556.5,760.3,556.46z"/>
			<path class="st29" d="M751.97,657.17c0.74,1.23,3.13,5.31,6.35,10.81c4.54-3.37,9.07-6.73,13.61-10.1
				c-0.86-2.5-1.45-4.26-1.68-4.97C766.9,653.07,754.28,656.22,751.97,657.17z"/>
			<g>
				<polygon class="st30" points="738.34,616.01 725.43,654.68 745.49,661.03 763.18,625.29 				"/>
				<path class="st0" d="M761.23,619.43l11.85,35.65l-24.16,5.95c0,0-16.83-18.71-14.89-35c0.58-4.83,7.68-5.78,12.54-5.49
					C751.44,620.81,761.23,619.43,761.23,619.43z"/>
			</g>
			<path class="st27" d="M758.38,595.27c0.68,3.01,1.35,6.03,2.14,8.96c6.07,5.39,12.39,10.5,18.88,15.35
				c2.46-0.12,4.93,1.34,6.02,3.55c0.3,0.61,0.5,1.32,0.3,1.97s-0.93,1.16-1.57,0.93c-0.1,0.5-0.54,0.91-1.04,0.98
				c-0.5,0.07-1.04-0.2-1.28-0.65c-0.33,0.35-0.87,0.42-1.33,0.28c-0.46-0.13-0.85-0.43-1.21-0.75c-1.47-1.28-2.65-2.89-3.41-4.65
				c-8.08-3.7-16-7.76-23.78-12.09c-2.54-3.99-4.79-8.17-6.74-12.48C749.69,597.17,754.09,597.03,758.38,595.27z"/>
			<polygon class="st27" points="744.97,572.29 751.75,576.25 754.91,568.24 755.82,565.95 756.68,563.75 752.34,561.83 			"/>
			<path class="st20" d="M733.5,599.12c-0.85,9.44-0.61,19.91-0.08,29.38c24.02,2.88,30.24-1.49,30.24-1.49s-2.29-41.06-9.63-51.47
				c-2-2.84-5.38-4.93-8.83-4.52c-7.02,0.85-12.72,15.46-16.76,26.59C730.07,598.29,731.77,598.79,733.5,599.12z"/>
			<path class="st27" d="M729.17,597.9c0,0-2.96,19.19-4.26,30.07c-2.06,2.85-3.23,6.35-3.29,9.87c-0.01,0.5,0.01,1.01,0.2,1.46
				s0.61,0.85,1.11,0.87c0.19,0.4,0.65,0.65,1.09,0.6c0.44-0.05,0.83-0.4,0.92-0.83c0.46,0.51,1.35,0.38,1.85-0.09
				c0.5-0.47,0.72-1.17,0.89-1.83c0.8-3.08,1.22-6.25,1.54-9.34c3.16-10.32,7.69-28.64,7.69-28.64L729.17,597.9z"/>
			<path class="st29" d="M754.91,568.24l0.9-2.29c-0.6-0.52-1.14-1.12-1.6-1.78C753.81,565.54,754.1,567.08,754.91,568.24z"/>
			<path class="st27" d="M755.18,559.93c-1.14-1.01-3.21-0.58-3.85,0.8c-0.65,1.38,0.35,3.24,1.85,3.47
				c0.54,1.46,1.33,2.91,2.83,3.56c0.44,0.19,0.93,0.28,1.41,0.23c1.71-0.16,2.29-1.57,2.67-2.89c0.24-0.83,0.58-2.51,0.58-2.51
				l1.34-0.11c0.29-0.1,0.42-0.42,0.29-0.69c-0.34-0.7-1.29-2.16-1.27-2.77c0.03-0.98,0-1.97-0.09-2.95
				c-0.04-0.41-0.1-0.85-0.36-1.17c-0.35-0.44-1.01-0.54-1.54-0.37c-0.54,0.16-0.98,0.55-1.37,0.95
				C756.47,556.71,755.58,558.26,755.18,559.93z"/>
		</g>
		<path class="st31" d="M759.67,558.1c-0.77-0.29-1.72-0.03-2.23,0.61"/>
		<path class="st31" d="M753.81,560.02c-0.16,0.33-0.33,0.66-0.61,0.88c-0.29,0.22-0.74,0.27-0.99,0.02"/>
		<path class="st31" d="M753.04,561.99c0.31-0.28,0.42-0.77,0.26-1.16"/>
		<ellipse class="st17" cx="759.12" cy="560.07" rx="0.23" ry="0.48"/>
		<path class="st31" d="M759.79,563.26c-0.1,0.27-0.39,0.45-0.67,0.42c-0.28-0.03-0.53-0.27-0.56-0.55"/>
	</g>
</g>
<g>
	<path class="st0" d="M656.17,785.44c13.65,0.12,27.29,0.24,40.94,0.36c6.9,0.06,14.23,0.02,20.1-3.32c1.94-1.1,3.59-3.9,1.64-4.98
		c-0.6-0.33-1.34-0.32-2.03-0.3c-5.99,0.15-11.99,0.31-17.98,0.46c-13.53,0.34-27.06,0.69-40.59,1.03
		c-1.83,0.05-3.72,0.11-5.37,0.84c-1.65,0.74-2.98,2.35-2.69,4.01C650.48,785.2,652.76,785.41,656.17,785.44z"/>
	<path class="st0" d="M556.18,778.7c11.38-0.35,22.75-0.7,34.13-1.05c4.73-0.14,10.68,0.39,12.24,4.27
		c1.74,4.32-4.02,8.26-9.23,8.89c-11.93,1.43-23.24-5.59-35.28-5.63c-8.86-0.03-17.12,3.7-25.82,5.16
		c-12.05,2.02-25.03-0.58-34.85-6.97c-1.22-0.79-2.51-1.87-2.39-3.19c0.2-2.1,3.42-2.62,5.84-2.56
		C518.32,778.05,535.82,779.32,556.18,778.7z"/>
	<g>
		<g>
			<path class="st17" d="M562.21,540.5c-4.51-2.23-10.3-1.57-14.2,1.62s-5.7,8.72-4.42,13.59c0.67,2.54,2.2,4.95,4.52,6.18
				c2.88,1.53,6.42,1.03,9.5-0.04c2.13-0.74,4.22-1.76,5.77-3.4c2.24-2.38,3.09-5.84,2.78-9.09
				C565.84,546.1,565.26,542,562.21,540.5z"/>
			<g>
				<path class="st17" d="M546.69,545.23c-0.72,2.62-3.49,4.5-6.2,4.25c-2.71-0.26-5.06-2.58-5.41-5.28s1.32-5.51,3.83-6.56
					c2.35-0.98,5.29-0.37,6.98,1.53S547.83,544.14,546.69,545.23z"/>
				<path class="st17" d="M537.61,544.15c-0.62,2.27-3.02,3.9-5.37,3.68c-2.35-0.22-4.38-2.23-4.68-4.57
					c-0.3-2.34,1.14-4.77,3.31-5.68c2.03-0.85,4.58-0.32,6.05,1.33C538.38,540.55,538.59,543.21,537.61,544.15z"/>
				<path class="st17" d="M529.48,543.1c-0.44,1.62-2.16,2.79-3.83,2.63c-1.68-0.16-3.13-1.59-3.35-3.26
					c-0.21-1.67,0.82-3.41,2.37-4.06c1.45-0.61,3.27-0.23,4.32,0.95C530.04,540.52,530.19,542.42,529.48,543.1z"/>
			</g>
		</g>
		<g>
			<path class="st32" d="M607.62,656.11c-4.64,1.24-9.31,2.68-13.35,5.29c-4.04,2.6-7.44,6.52-8.45,11.22
				c-0.41,1.91-0.23,4.28,1.43,5.32c1.93,1.22,4.43-0.13,6.2-1.59C599.63,671.23,604.38,664.37,607.62,656.11z"/>
			<g>
				<path class="st25" d="M583.69,756.49l-22.25,1.79L544.45,636.2c0,0,4.81-4.01,6.46-4.08c5.48-0.22,12.16,0.51,17.76,1.92
					L583.69,756.49z"/>
				<path class="st25" d="M534.7,623.32l-23.03,133.12l22.24,1.88l31.64-129.4L534.7,623.32z"/>
			</g>
			<path class="st10" d="M611.52,659.29c-0.19,0.36-0.43,0.72-0.8,0.89c-0.37,0.16-0.9,0.03-1.02-0.36
				c-0.22,0.37-0.48,0.77-0.89,0.9c-0.41,0.13-0.96-0.25-0.82-0.66c-0.16,0.4-0.61,0.66-1.03,0.61c-0.43-0.06-0.79-0.43-0.83-0.85
				c-0.33,0.42-0.78,0.88-1.29,0.76c-0.65-0.16-0.72-1.08-0.46-1.69c0.27-0.61,0.73-1.19,0.67-1.86c-3.08,1.22-3.24-5.05-3.24-5.05
				l-26.89-26.96l-4.27-4.28l-6.12-6.14l11.5-7.25l6.09,8.45l0.58,0.8l23.24,32.23c0,0,4.46,1.7,5.56,3.75
				C612.58,654.64,612.6,657.23,611.52,659.29z"/>
			<path class="st33" d="M581.66,615.16c-2.99,4.59-3.72,5.59-6.74,9.85l-4.27-4.28c3.46-2.3,5.84-6.06,10.05-6.91L581.66,615.16z"
				/>
			<path class="st20" d="M581.57,608.75c-2.74,2.17-5.6,4.11-8.44,6.07c-2.49,1.71-4.97,3.43-7.37,5.32
				c-0.59-0.68-1.11-1.41-1.57-2.19c-3.15-5.34-3.47-12.8-5.51-18.63c-2.33-6.68-3.8-13.63-5.26-20.56
				c-0.34-1.62-0.69-3.26-0.6-4.92c0.09-1.65,0.65-3.34,1.87-4.46C565.27,580.86,572.34,596.17,581.57,608.75z"/>
			<path class="st21" d="M573.12,614.82c-2.49,1.71-4.97,3.43-7.37,5.32c-0.59-0.68-1.11-1.41-1.57-2.19
				c-1.15-8.48-2.29-16.97-3.43-25.45c-0.69-5.13-1.39-10.28-2.78-15.27C566.2,588.13,571.46,601.25,573.12,614.82z"/>
			<path class="st10" d="M555.29,572.32c-0.8,1.52-2.44,2.56-4.23,2.96c-1.79,0.4-3.72,0.15-5.36-0.69
				c-1.09-0.56-2.11-1.46-2.37-2.66c-0.14-0.64-0.75-1.97-0.75-1.97s5.62-10.14,6.27-14.82c1.9-0.26,4.84,2.73,4.84,2.73
				s0.23,1.77,0.54,4.23c0.16,1.37,0.35,2.95,0.52,4.56C554.96,568.61,555.16,570.6,555.29,572.32z"/>
			<path class="st33" d="M554.75,566.68c-1.48-0.99-2.7-2.37-3.56-3.94c-0.89-1.63-1.42-3.45-1.65-5.29
				c1.56,1.56,3.12,3.12,4.68,4.67C554.39,563.48,554.57,565.06,554.75,566.68z"/>
			<path class="st10" d="M564.18,544.36c0.64,2.9,1.28,5.82,1.67,8.75c0.1,0.78,1.29,2.44,1.97,3.34c0.24,0.32,0.14,0.79-0.22,0.97
				l-1.39,0.71c0,0-0.58,4.5-2.33,6.05c-1.83,1.62-4.74,2.08-7.21,1.41c-2.47-0.67-4.51-2.34-5.79-4.34c-1.28-2-1.86-4.29-2.06-6.58
				c-1.55,0.39-3.36-0.52-3.78-1.89c-0.42-1.38,0.63-2.98,2.19-3.33c1.56-0.35,3.34,0.61,3.82,1.95
				C555.85,550.35,560.34,548.24,564.18,544.36z"/>
			<path class="st20" d="M543.88,567.84c2.45,4,12.89,10.99,11.2,1.96c19.14,31.26,17.5,71.59,17.5,71.59s-30.51,4.53-44.72,0
				c-1.21-26.6-4.83-53.72,3.39-66.48C533.55,571.31,538.83,568.43,543.88,567.84z"/>
			<path d="M590.41,603.33c-0.25,0-0.5-0.09-0.69-0.28c-0.39-0.38-0.39-1-0.01-1.39l11.72-11.89c0.38-0.39,1-0.39,1.39-0.01
				c0.39,0.38,0.39,1,0.01,1.39l-11.72,11.89C590.92,603.24,590.66,603.33,590.41,603.33z"/>
			<path class="st10" d="M593.27,595.93c0.27-0.7-0.49-1.38-1.14-1c0,0-0.01,0-0.01,0.01c-0.45,0.27-0.8,0.69-1.13,1.1
				c-1.77,2.2-3.54,4.4-5.37,6.56c-10.11,6.41-17.62,10.28-28.6,15.13c-0.74-1.05,0.13-1.91-0.69-2.91c0,0.03-15.32,5.06-20.2,6.5
				c0.28,5.43,6.42,13.81,11.64,15.34c11.64,3.43,35.53-25.87,42.08-29.97c2.37-1.48,5.92-2.43,7.83-4.47
				c1.91-2.03,3.35-4.63,3.5-7.42c0.02-0.35-0.03-0.78-0.35-0.93c-0.32-0.14-0.67,0.09-0.93,0.32c-3.12,2.61-6.24,5.22-9.37,7.83
				C591.21,600.79,592.61,597.66,593.27,595.93z"/>
			<path class="st20" d="M557.97,616c-7.74,2.45-15.47,4.91-23.21,7.36c-1.64-10.04-3.28-20.08-4.48-30.18
				c-0.49-4.14-0.9-8.4,0.15-12.43s3.83-7.87,7.84-9.02c3.1-0.89,6.65,0.02,8.94,2.3c2.09,2.08,3.04,5.01,3.87,7.84
				C554.27,592.8,556.64,603.99,557.97,616z"/>
			<g>
				<path class="st34" d="M681.91,763.67c-1.16,1.67-2.96,2.76-4.57,4.01c-1.61,1.24-3.16,2.84-3.43,4.86
					c-0.24,1.79,0.61,3.6,1.86,4.91c0.91,0.95,2.06,1.75,3.01,2.66c1.05,0.99,0.32,2.75-1.12,2.71l-2.66-0.08
					c-0.56-0.02-1.06-0.32-1.32-0.81c-1.58-2.98-5.11-4.89-5.96-8.19c-0.48-1.88,0.02-3.88,0.76-5.68c1.13-2.75,2.91-5.36,5.53-6.77
					C676.62,759.88,680.18,759.99,681.91,763.67z"/>
				<path class="st34" d="M713.71,753.72c0.61,3.32,0.23,6.82-1.08,9.93c-0.5,1.19-1.14,2.52-0.64,3.71
					c0.31,0.73,0.98,1.23,1.55,1.8c1.7,1.71,2.41,4.35,1.79,6.68c-0.25,0.95-0.71,1.83-1.33,2.58c-0.74,0.91-2.21,0.11-1.84-1.01
					c0.36-1.1,0.47-2.23,0.1-3.32c-0.57-1.68-2.14-2.78-3.41-4.03c-2.62-2.57-4.19-6.33-3.6-9.95
					C705.85,756.5,708.86,753.26,713.71,753.72z"/>
				<g>
					<path class="st35" d="M671.91,750.97c-0.55,2.16-0.91,5.04-0.95,7.92c-5.39-2.45-9.7-7.07-12.01-12.51
						c-0.98-2.3-1.6-4.75-1.78-7.25c-0.04-0.53-0.06-1.09,0.19-1.56c0.24-0.47,0.83-0.81,1.32-0.59c0.45,0.2,0.6,0.76,0.71,1.24
						c0.5,2.24,1.17,4.49,2.23,6.5c0.46,0.88,1,1.71,1.64,2.48C665.36,749.75,668.67,751.49,671.91,750.97z"/>
					<path class="st34" d="M661.62,744.74c-0.86,0.59-1.75,1.14-2.67,1.65c-0.98-2.3-1.6-4.75-1.78-7.25
						c-0.04-0.53-0.06-1.09,0.19-1.56c0.24-0.47,0.83-0.81,1.32-0.59c0.45,0.2,0.6,0.76,0.71,1.24
						C659.89,740.47,660.56,742.72,661.62,744.74z"/>
				</g>
				<path class="st35" d="M733.84,740.08c-1.28,0.5-2.71,0.26-4.09,0.32c-3.71,0.16-7.03,2.54-9.31,5.47
					c-2.28,2.94-3.71,6.43-5.29,9.8c-1.58,3.37-3.39,6.74-6.21,9.16c-4.21,3.61-10.17,4.6-15.66,3.9c-5.5-0.7-10.67-2.91-15.77-5.09
					c-0.67,2.23-2.85,3.69-5.05,4.46c-2.2,0.77-4.56,1.04-6.72,1.92c-2.16,0.88-4.21,2.58-4.56,4.88c-0.19,1.29,0.17,2.6,0.13,3.9
					c-0.03,1.3-0.67,2.78-1.94,3.06c-1.22,0.26-2.43-0.78-2.79-1.98c-0.37-1.2-0.12-2.49,0.13-3.72c0.61-2.96,1.29-6.06,2.83-8.6
					c0.51-0.85,1.12-1.63,1.86-2.33c1.06-1,2.34-1.76,3.33-2.83c1.66-1.78,2.32-4.16,2.97-6.56c0.36-1.34,0.72-2.68,1.25-3.93
					c0.37-0.87,0.81-1.69,1.4-2.43c2.11-2.67,5.64-3.8,9.03-4.06c3.39-0.26,6.8,0.19,10.19,0c1.96-0.11,3.84-0.48,5.65-1.08
					c7-2.31,12.89-7.98,17.79-14.49c1.5-2,4.46-2.38,6.84-1.61c2.38,0.77,4.34,2.45,6.28,4.02c1.94,1.58,4.04,3.13,6.49,3.58
					c0.95,0.17,2.06,0.24,2.64,1.01C736.1,737.93,735.12,739.59,733.84,740.08z"/>
				<path class="st34" d="M702.67,760.41c-0.21,5.83-0.12,11.67,0.26,17.48c0.93,0.57,1.8,1.23,2.61,1.96
					c1.04,0.95,0.43,2.68-0.98,2.73l-2.36,0.08c-0.6,0.02-1.16-0.3-1.43-0.83c-2.32-4.55-3.71-9.58-4.38-14.56
					c-2.74-1.65-4.67-4.59-5.05-7.77c-0.06-0.48-0.03-0.98,0.15-1.43c0.61-1.58,2.19-1.51,3.54-1.37
					C697.82,756.99,700.61,757.3,702.67,760.41z"/>
				<path class="st36" d="M704.32,734.41c1.89-0.01,3.34-1.61,4.43-3.16s2.21-3.29,4.03-3.82c1.45-0.43,3.14,0.13,4.06,1.33
					s1.02,2.97,0.24,4.27c-0.82,1.35-2.39,2.09-3.19,3.45c-0.69,1.19-0.68,2.63-0.78,4.01c-0.1,1.37-0.4,2.87-1.49,3.71
					c-1.46,1.13-3.74,0.6-5.19,1.74c-1.27,1-1.48,2.95-2.78,3.9c-0.86,0.63-2.07,0.68-3.07,0.28c-1-0.4-1.8-1.18-2.41-2.06
					c-1.69-2.43-1.98-5.76-0.76-8.46C698.63,736.9,701.29,734.42,704.32,734.41z"/>
				<path class="st36" d="M695.23,744.32c-0.11,1.21-0.67,2.39-1.59,3.21c-1.27,1.13-3.15,1.5-4.75,0.96
					c-1.4-0.48-2.77-1.62-4.17-1.16c-1.18,0.39-1.91,1.83-3.15,1.89c-1.21,0.07-2.07-1.2-3.24-1.52c-1.11-0.3-2.3,0.34-3.08,1.19
					c-0.78,0.85-1.3,1.92-2.02,2.82c-0.7,0.88-1.78,1.65-2.88,1.38c-0.63-0.16-1.09-0.62-1.39-1.2c0.37-0.87,0.81-1.69,1.4-2.43
					c2.11-2.67,5.64-3.8,9.03-4.06c3.39-0.26,6.8,0.19,10.19,0C691.54,745.29,693.42,744.92,695.23,744.32z"/>
				<path class="st36" d="M667.91,761.99c-0.41,0.32-0.9,0.53-1.27,0.89c-0.54,0.52-0.74,1.29-1.04,1.98
					c-0.67,1.57-2.02,2.95-3.7,3.21c-0.81,0.13-1.67-0.07-2.36-0.51c0.51-0.85,1.12-1.63,1.86-2.33c1.06-1,2.34-1.76,3.33-2.83
					c1.66-1.78,2.32-4.16,2.97-6.56c0.48,0.67,0.89,1.37,1.14,2.16C669.27,759.39,669.04,761.09,667.91,761.99z"/>
				<path class="st37" d="M710.03,763.94c-4.68-1.81-9.27-3.84-13.65-6.05c-1.27,3.71-2.84,7.32-4.69,10.77"/>
				<path class="st37" d="M695.51,744.32c-0.4,5.77-0.44,7.94,0.87,13.57"/>
				<path class="st32" d="M695.51,744.32c-30.19-30.09-59.77-56.82-89.96-86.91"/>
				<circle class="st34" cx="734.93" cy="736.55" r="0.65"/>
				<g>
					<ellipse class="st34" cx="724.21" cy="733.78" rx="0.54" ry="1.03"/>
				</g>
			</g>
			<path class="st38" d="M530.81,597.38c1.52,10.2,2.37,15.86,3.9,25.95c7.78-2.4,15.57-4.8,23.39-7.17
				c-3.9-20.96-5.75-42.75-15.24-44.32"/>
			<path class="st39" d="M560.96,654.14c0,0-5.62,20.7-9.36,31.43l1.38,9.31L560.96,654.14z"/>
			<ellipse class="st17" cx="563.04" cy="553.6" rx="0.49" ry="0.83"/>
			<path class="st40" d="M562.26,559.7c0.25,0.41,0.72,0.69,1.2,0.7c0.48,0.01,0.97-0.23,1.24-0.63"/>
			<path class="st40" d="M547.37,550.05c0.15,1.08-0.27,2.23-1.09,2.96"/>
			<path class="st40" d="M547.4,551.6c0.78-0.09,1.58,0.48,1.75,1.24"/>
			<path class="st40" d="M559.67,550.28c0.41-0.89,1.32-1.53,2.3-1.62"/>
		</g>
		<path class="st41" d="M583.69,756.5c0.09,1.08-1.99,2.19-5.16,2.97c-1.66,0.4-3.62,0.71-5.72,0.89c-2.12,0.17-4.11,0.17-5.82,0.04
			c-3.24-0.26-5.46-1.03-5.54-2.11c-0.08-0.99,1.66-2.01,4.41-2.78c1.8-0.5,4.03-0.89,6.47-1.09c2.02-0.16,3.94-0.17,5.6-0.05
			C581.29,754.61,583.61,755.39,583.69,756.5z"/>
		<path class="st41" d="M533.91,758.33c-0.1,1.21-2.87,2.01-6.76,2.15c-1.41,0.05-2.98,0.01-4.61-0.13
			c-2.57-0.22-4.93-0.65-6.78-1.21c-2.56-0.77-4.17-1.75-4.09-2.7c0.08-1,2.01-1.73,4.89-2.02c1.85-0.19,4.09-0.2,6.49,0
			c2.05,0.17,3.95,0.48,5.57,0.88C531.87,756.09,534,757.23,533.91,758.33z"/>
		<g>
			<path class="st10" d="M580.28,774.24l-9.79,1.3l-3.5-15.16l-1.13-4.88c1.8-0.5,4.03-0.89,6.47-1.09c2.02-0.16,3.94-0.17,5.6-0.05
				l0.6,5.1L580.28,774.24z"/>
			<path class="st42" d="M597.21,778.84c-0.76,0.9-2.04,1.14-3.22,1.31c-8.69,1.27-17.51,2.17-26.27,1.28
				c-0.23-1.08-0.35-2.17-0.35-3.27c0-1.3,0.14-2.58,0.43-3.81c0.1-0.45,0.22-0.88,0.35-1.31c0.2-0.63,0.44-1.24,0.71-1.82
				c1.71,1.32,4.06,1.77,6.14,1.18c2.08-0.59,3.84-2.21,4.69-4.13c5.03,1.94,10.05,3.87,15.08,5.81c0.93,0.36,1.91,0.76,2.51,1.56
				c0.17,0.22,0.29,0.46,0.37,0.73C597.93,777.2,597.78,778.17,597.21,778.84z"/>
			<path class="st1" d="M597.21,778.84c-0.76,0.9-2.04,1.14-3.22,1.31c-8.69,1.27-17.51,2.17-26.27,1.28
				c-0.23-1.08-0.35-2.17-0.35-3.27c4.1-0.02,8.2,0.3,12.21,1.01c-1.5-1.93-4.03-2.69-6.41-3.22c-1.83-0.41-3.74-0.76-5.38-1.61
				c0.1-0.45,0.22-0.88,0.35-1.31c1.97,0.78,4.03,1.32,6.12,1.61c2.15,0.3,4.33,0.33,6.44,0.85c2.1,0.52,4.19,1.61,5.31,3.46
				c4-0.11,7.97-1,11.64-2.59C597.93,777.2,597.78,778.17,597.21,778.84z"/>
			<g>
				<path class="st1" d="M586.04,775.74c-0.31-0.69-0.29-1.5,0.05-2.17c0.34-0.67,0.98-1.17,1.71-1.34l0.09,0.38
					c-0.62,0.14-1.16,0.56-1.45,1.13c-0.29,0.57-0.3,1.26-0.04,1.84L586.04,775.74z"/>
				<path class="st1" d="M583.89,774.85c-0.41-0.63-0.52-1.44-0.31-2.16c0.21-0.72,0.74-1.34,1.43-1.65l0.17,0.36
					c-0.58,0.27-1.03,0.79-1.21,1.41c-0.18,0.61-0.08,1.3,0.26,1.84L583.89,774.85z"/>
				<path class="st1" d="M581.44,774.16c-0.38-0.67-0.48-1.51-0.25-2.24s0.78-1.38,1.47-1.72l0.17,0.35
					c-0.6,0.29-1.07,0.84-1.26,1.48c-0.2,0.63-0.11,1.36,0.21,1.93L581.44,774.16z"/>
			</g>
			<path class="st43" d="M579.63,769.35c1.63-2.21,4.17-3.73,6.89-4.1c0.28-0.04,0.56-0.06,0.82,0.02c0.26,0.08,0.51,0.29,0.56,0.56
				c0.08,0.48-0.43,0.82-0.87,1.02C584.72,767.91,582.29,768.75,579.63,769.35z"/>
			<path class="st43" d="M580.44,770.93c1.55-2.05,2.82-4.32,3.75-6.71c0.13-0.34,0.26-0.69,0.23-1.05s-0.27-0.73-0.62-0.8
				c-0.25-0.05-0.51,0.06-0.72,0.2c-1.1,0.69-1.58,2.03-1.9,3.28C580.75,767.52,580.47,769.22,580.44,770.93z"/>
		</g>
		<g>
			<path class="st10" d="M528.62,755.3l-1.47,5.18l-4.06,14.27l-9.55-2.56l2.21-13.04l0.8-4.73c1.85-0.19,4.09-0.2,6.49,0
				C525.09,754.59,526.99,754.9,528.62,755.3z"/>
			<path class="st42" d="M536.95,785.5c-1.05,0.54-2.32,0.26-3.47-0.03c-8.51-2.17-17-4.73-24.74-8.92c0.2-1.08,0.52-2.14,0.93-3.15
				c0.5-1.2,1.12-2.33,1.86-3.36c0.26-0.37,0.54-0.73,0.83-1.08c0.43-0.5,0.88-0.97,1.35-1.4c1.08,1.87,3.07,3.2,5.21,3.45
				c2.15,0.25,4.39-0.56,5.92-2.01c3.9,3.72,7.79,7.44,11.69,11.16c0.72,0.69,1.48,1.43,1.72,2.4c0.07,0.27,0.09,0.54,0.07,0.82
				C538.24,784.26,537.73,785.11,536.95,785.5z"/>
			<path class="st1" d="M536.95,785.5c-1.05,0.54-2.32,0.26-3.47-0.03c-8.51-2.17-17-4.73-24.74-8.92c0.2-1.08,0.52-2.14,0.93-3.15
				c3.8,1.56,7.46,3.42,10.88,5.63c-0.65-2.36-2.68-4.03-4.68-5.44c-1.53-1.08-3.16-2.14-4.34-3.55c0.26-0.37,0.54-0.73,0.83-1.08
				c1.52,1.48,3.21,2.76,5.03,3.84c1.87,1.1,3.87,1.97,5.61,3.26c1.74,1.28,3.25,3.1,3.58,5.23c3.73,1.43,7.74,2.14,11.74,2.08
				C538.24,784.26,537.73,785.11,536.95,785.5z"/>
			<g>
				<path class="st1" d="M527.83,778.35c-0.02-0.75,0.31-1.5,0.88-1.98c0.57-0.49,1.35-0.71,2.1-0.58l-0.07,0.39
					c-0.63-0.11-1.29,0.07-1.77,0.49c-0.48,0.41-0.76,1.04-0.74,1.68L527.83,778.35z"/>
				<path class="st1" d="M526.19,776.7c-0.13-0.74,0.07-1.53,0.54-2.11c0.47-0.58,1.2-0.95,1.95-0.98l0.02,0.39
					c-0.64,0.02-1.26,0.33-1.66,0.83c-0.4,0.5-0.57,1.17-0.46,1.8L526.19,776.7z"/>
				<path class="st1" d="M524.19,775.12c-0.09-0.76,0.14-1.58,0.63-2.17c0.49-0.59,1.25-0.97,2.02-1.02l0.02,0.39
					c-0.66,0.04-1.31,0.37-1.74,0.88s-0.63,1.21-0.54,1.87L524.19,775.12z"/>
			</g>
			<path class="st43" d="M524.37,769.99c2.35-1.41,5.28-1.84,7.94-1.14c0.27,0.07,0.54,0.15,0.75,0.33c0.21,0.18,0.36,0.46,0.3,0.73
				c-0.11,0.47-0.71,0.59-1.19,0.61C529.62,770.62,527.05,770.45,524.37,769.99z"/>
			<path class="st43" d="M524.51,771.75c2.22-1.3,4.26-2.9,6.04-4.75c0.25-0.26,0.5-0.54,0.61-0.88c0.11-0.35,0.04-0.78-0.27-0.98
				c-0.21-0.14-0.49-0.14-0.74-0.09c-1.28,0.22-2.24,1.27-3.02,2.3C526.1,768.72,525.19,770.19,524.51,771.75z"/>
		</g>
	</g>
</g>
<g>
	<path class="st0" d="M400.91,738.54c3.35,1.26,4.11,4.34,1.41,6.16c-2.69,1.82-6.9,2.9-10.86,2.97c-6.33,0.11-12.4-1.52-18.64-2.23
		c-14.74-1.66-29.52,1.89-44.26,3.56c-11.64,1.32-25.01,1.01-34.5-3.11c-3.59-1.56-2.43-5.21,1.8-5.69
		c18.62-2.09,38.99,3.46,58.11,1.26c8.83-1.02,17.07-3.66,25.88-4.74C386.87,735.86,394.83,736.25,400.91,738.54z"/>
	<g>
		<path class="st17" d="M381.49,586.12c-0.29,3.11-0.98,6.52-3.48,8.36c-2.15,1.59-5.11,1.57-7.69,0.91c-2.58-0.66-5-1.9-7.58-2.57
			c-8.35-2.17-17.14,1.73-25.7,1.24c-0.3-2.49-0.77-4.95-1.41-7.36c0.03,1.73,0.06,3.47-0.2,5.18c-0.1,0.66-0.25,1.33-0.45,1.97
			c-0.1-0.01-0.21-0.02-0.31-0.04c-1.5-0.24-2.99-0.66-4.36-1.3c-0.25-0.89-0.45-1.8-0.58-2.71c-0.27-1.99-0.16-4.08,0.66-5.93
			c-1.29,1.83-2.62,3.77-2.82,6.01c-0.02,0.31-0.03,0.62-0.02,0.93c-2.01-1.64-3.46-4.03-3.65-6.61c-0.23-3.24,1.48-6.29,3.35-8.93
			c1.88-2.65,5.33-3.9,8.47-9.26c2.36-4.04,5.34-18.74,11.33-16.39c1.57-1.56,3.96-2.26,6.13-1.79c2.17,0.47,4.05,2.09,4.84,4.17
			c1.06,2.81,0.2,6.2,1.75,8.77c1.23,2.01,3.63,2.97,5.94,3.41c2.31,0.43,4.72,0.47,6.93,1.26c3.8,1.37,6.57,4.86,7.88,8.68
			C381.84,577.95,381.85,582.1,381.49,586.12z"/>
		<path class="st44" d="M346.34,549.56c-2.27,0.25-4.26,1.76-5.59,3.61s-2.12,4.04-2.85,6.21c-0.73,2.17-1.44,4.37-2.67,6.3
			c-1.28,2.03-3.07,3.67-4.81,5.32c-1.74,1.65-3.47,3.37-4.6,5.49c-1.13,2.12-1.57,4.72-0.64,6.93"/>
		<path class="st10" d="M399.67,733.37c-1.91,0.21-3.1,1.6-4.64,2.75c0,0-14.61-23.1-27.64-43.59
			c-9.57-15.07-18.28-28.72-19.67-30.71c2.09-2.5,19.29-1.82,25.05-2.56c0.8-0.1,1.38-0.23,1.67-0.4c0.27,0.68,0.77,2.08,1.45,4.03
			c0.85,2.44,1.97,5.75,3.27,9.61C386.05,692.94,397.88,728.85,399.67,733.37z"/>
		<path class="st45" d="M379.17,672.5c-3.93,6.67-7.85,13.35-11.77,20.02c-9.57-15.07-18.28-28.72-19.67-30.71
			c2.09-2.5,19.29-1.82,25.05-2.56c1.1,1.11,2.12,2.32,3.12,3.63C376.74,665.33,377.86,668.64,379.17,672.5z"/>
		<g>
			<path class="st35" d="M381.93,745.23l22.69-6.06l-0.47-1.49l-3.08-7.77l-9.53,2.62l-2.3,4.08c-1.6-0.02-2.87,0.22-3.89,0.64
				C380.35,739.28,381.93,745.23,381.93,745.23z"/>
			<path class="st12" d="M381.93,745.23l22.69-6.06l-0.47-1.49l-13.83,3.97c-1.32-2.25-3.27-3.6-4.96-4.4
				C380.35,739.28,381.93,745.23,381.93,745.23z"/>
			<g>
				<path class="st1" d="M391.41,737.54c0.03-0.01,0.06-0.03,0.08-0.06c0.04-0.07,0.02-0.17-0.05-0.21l-1.85-1.33
					c-0.07-0.05-0.15-0.03-0.19,0.04c-0.04,0.07-0.02,0.17,0.05,0.21l1.85,1.33C391.33,737.55,391.37,737.55,391.41,737.54z"/>
				<path class="st1" d="M392.26,736.52c0.03-0.01,0.06-0.03,0.08-0.06c0.04-0.07,0.02-0.17-0.04-0.22l-1.89-1.43
					c-0.07-0.05-0.15-0.03-0.19,0.04c-0.04,0.07-0.02,0.17,0.04,0.22l1.89,1.43C392.18,736.52,392.22,736.53,392.26,736.52z"/>
				<path class="st1" d="M393.37,735.18c0.03-0.01,0.07-0.03,0.08-0.07c0.04-0.07,0.01-0.17-0.06-0.21l-2.35-1.54
					c-0.07-0.04-0.15-0.02-0.19,0.05c-0.04,0.07-0.01,0.17,0.06,0.21l2.35,1.54C393.29,735.18,393.33,735.19,393.37,735.18z"/>
			</g>
		</g>
		<g>
			<path class="st10" d="M368.96,656.91c-0.64,1.06-2.95,4.3-6.3,8.9c-0.34,0.46-0.69,0.94-1.05,1.43
				c-14.88,20.34-46.86,63.02-49.53,67.43c-1.32-1.39-3.02-2.43-4.87-2.97c1.47-3.32,14.45-33.11,24.2-55.85
				c3.54-8.27,6.65-15.6,8.64-20.4c1.16-2.82,1.93-4.77,2.17-5.51C345.93,650.11,366.4,655.84,368.96,656.91z"/>
			<g>
				<path class="st35" d="M291.26,730l20.87,10.78l0.66-1.42l2.95-7.82l-8.81-4.47l-4.45,1.47c-1.17-1.09-2.28-1.77-3.31-2.14
					C294.09,724.53,291.26,730,291.26,730z"/>
				<path class="st12" d="M291.26,730l20.87,10.78l0.66-1.42l-12.9-6.37c0.54-2.56,0-4.87-0.71-6.59
					C294.09,724.53,291.26,730,291.26,730z"/>
				<g>
					<path class="st1" d="M303.44,730.69c0.03,0.02,0.07,0.02,0.1,0.01c0.08-0.03,0.13-0.11,0.11-0.19l-0.48-2.23
						c-0.02-0.08-0.09-0.12-0.17-0.1c-0.08,0.03-0.13,0.11-0.11,0.19l0.48,2.23C303.38,730.64,303.41,730.67,303.44,730.69z"/>
					<path class="st1" d="M304.76,730.51c0.03,0.02,0.06,0.02,0.1,0.01c0.08-0.02,0.13-0.11,0.11-0.19l-0.44-2.33
						c-0.01-0.08-0.09-0.13-0.17-0.1c-0.08,0.02-0.13,0.11-0.11,0.19l0.44,2.33C304.7,730.46,304.73,730.49,304.76,730.51z"/>
					<path class="st1" d="M306.49,730.26c0.03,0.02,0.07,0.02,0.11,0c0.08-0.03,0.12-0.12,0.1-0.2l-0.7-2.72
						c-0.02-0.08-0.1-0.12-0.18-0.09c-0.08,0.03-0.12,0.12-0.1,0.2l0.7,2.72C306.43,730.21,306.45,730.24,306.49,730.26z"/>
				</g>
			</g>
		</g>
		<path class="st45" d="M362.66,665.8c-0.34,0.46-0.69,0.94-1.05,1.43c-10.06,2.87-20.13,5.74-30.2,8.61
			c3.54-8.27,6.65-15.6,8.64-20.4C347.85,658.28,355.42,661.75,362.66,665.8z"/>
		<path class="st10" d="M345.18,597.33c-0.75,3.34-1.5,6.68-2.37,9.93c-6.73,5.97-13.72,11.64-20.92,17.01
			c-2.73-0.13-5.46,1.48-6.67,3.93c-0.33,0.68-0.55,1.46-0.33,2.18c0.22,0.72,1.03,1.29,1.73,1.03c0.11,0.55,0.6,1.01,1.15,1.09
			c0.56,0.08,1.15-0.22,1.41-0.72c0.36,0.38,0.96,0.46,1.47,0.32c0.51-0.15,0.94-0.48,1.34-0.83c1.63-1.42,2.93-3.21,3.78-5.15
			c8.95-4.1,17.73-8.6,26.34-13.4c2.81-4.42,5.31-9.05,7.47-13.82C354.81,599.43,349.94,599.28,345.18,597.33z"/>
		<polygon class="st10" points="361.89,577.73 352.21,580.93 350.2,568.96 349.73,566.18 349.32,563.75 355.34,562.49 		"/>
		<path class="st25" d="M372.74,601.6c0.94,10.46,9.53,55.41,8.95,65.91c-26.61,3.19-56.1,0.89-56.1,0.89S341.87,587,350,575.47
			c2.21-3.14,5.96-5.46,9.79-5c7.78,0.94,14.09,17.13,18.57,29.45C376.55,600.67,374.66,601.23,372.74,601.6z"/>
		<path class="st10" d="M377.54,600.24c0,0,3.28,21.26,4.72,33.31c2.29,3.16,3.58,7.03,3.64,10.93c0.01,0.55-0.01,1.11-0.23,1.62
			c-0.22,0.5-0.68,0.94-1.23,0.97c-0.21,0.44-0.72,0.72-1.21,0.66c-0.49-0.06-0.91-0.44-1.02-0.92c-0.51,0.56-1.5,0.42-2.05-0.1
			s-0.79-1.29-0.99-2.03c-0.89-3.41-1.35-6.93-1.71-10.35c-3.5-11.44-8.52-31.73-8.52-31.73L377.54,600.24z"/>
		<path class="st46" d="M352.66,563.96c0.1,1.94-0.87,3.88-2.46,5l-0.47-2.78C350.85,565.66,351.85,564.89,352.66,563.96z"/>
		<path class="st10" d="M352.25,559.31c3.67-2.09,5.38,4.05,0.81,4.59c-0.33,0.53-1.57,1.38-3.03,2.27c-2.83,1.72-6.5,0-7.03-3.27
			l-0.49-3.02l-0.97-0.78c-0.4-0.32-0.37-0.94,0.05-1.22c0.84-0.56,2.02-1.43,2.25-1.98c0.71-1.7,1.6-3.18,2.51-4.09
			c0.6-0.59,1.67-0.82,2.41-0.42c0.65,0.35,1.12,0.96,1.51,1.59C351.49,554.87,352.2,557.08,352.25,559.31z"/>
		<path class="st44" d="M355.7,549.93c1.61,0.34,2.53,2.08,2.83,3.7s0.23,3.33,0.9,4.84c1.24,2.83,4.61,4,7.67,4.44
			c3.06,0.43,6.34,0.48,8.91,2.19c2.31,1.54,3.67,4.22,4.2,6.94s0.33,5.54,0.13,8.31"/>
		<path class="st47" d="M358.69,586.73c1.4,9.88,5.51,17.26,5.51,17.26l4.75-1.39l2.54,10c0,0-8.25-0.69-11.4-8.16
			C357.93,599.33,357.52,595.62,358.69,586.73z"/>
		
			<ellipse transform="matrix(0.1613 -0.9869 0.9869 0.1613 -261.243 814.4109)" class="st46" cx="348.54" cy="560.91" rx="1.12" ry="1.86"/>
		<g>
			<path class="st23" d="M345.89,555.24c0.74,0.25,1.41,0.68,1.95,1.23"/>
			<path class="st23" d="M353.29,559.71c0.01,0.74,0.56,1.44,1.27,1.63"/>
			<path class="st23" d="M352.82,562.11c-0.04-0.57,0.28-1.15,0.79-1.41"/>
			<path class="st23" d="M343.75,562.24c0.26,0.22,0.63,0.31,0.96,0.23c0.33-0.08,0.62-0.33,0.75-0.65"/>
			<path class="st23" d="M345.6,556.92c-0.12,0.35,0.05,0.78,0.39,0.94c0.33,0.16,0.78,0.03,0.96-0.3"/>
		</g>
	</g>
</g>
<path class="st7" d="M882.36,558.52c1.61,1.59,2.84,3.55,3.58,5.68c0.28,0.81,0.49,1.68,0.29,2.52s-0.91,1.6-1.77,1.59
	c-0.86-0.01-1.59-1.06-1.13-1.78c0.37-0.57,1.24-0.62,1.81-0.24c0.56,0.37,0.86,1.04,1.02,1.7c0.44,1.86-0.09,3.91-1.36,5.33"/>
<g>
	<path class="st7" d="M939.69,165.14c6.25-6.31,6.99-17.29,1.66-24.39c-5.34-7.1-16.09-9.44-23.89-5.19
		c-1.96,1.06-3.83,2.65-4.33,4.82s1.02,4.84,3.24,4.8c1.81-0.03,3.21-1.8,3.43-3.59c0.22-1.79-0.46-3.57-1.22-5.2
		c-4.93-10.52-15.07-19.25-26.69-19.59c-11.61-0.33-23.29,10.01-21.88,21.54c-2.8-5.47-9.81-8.04-15.77-6.56
		c-5.96,1.48-10.7,6.44-12.89,12.18c-2.19,5.74-2.09,12.16-0.76,18.16"/>
	<line class="st7" x1="957.27" y1="165.14" x2="860.86" y2="165.14"/>
	<line class="st7" x1="966.89" y1="170.64" x2="870.49" y2="170.64"/>
</g>
<g>
	<path class="st7" d="M254.1,198.09h-82.37c-1.82-6.77,0.9-14.75,6.86-18.58c7.1-4.56,17.64-2.45,22.46,4.48
		c-2.23-10.26,6.5-21.45,17-21.79s19.92,10.27,18.35,20.65c1.7-3.96,7.15-5.34,11.05-3.49c3.89,1.85,6.21,6.1,6.85,10.37
		C254.72,192.5,254.52,195.3,254.1,198.09z"/>
	<path class="st7" d="M235.76,164.81c2.21,2.35,3.72,5.35,4.28,8.52c0.14,0.79,0.07,1.85-0.7,2.07c-0.6,0.18-1.24-0.41-1.26-1.04
		c-0.02-0.63,0.45-1.19,1.01-1.47c0.56-0.28,1.21-0.32,1.84-0.32c2.14,0,4.47,0.53,5.77,2.23"/>
</g>
<line class="st7" x1="154.01" y1="205.99" x2="238.49" y2="205.99"/>
<line class="st7" x1="139.86" y1="213.9" x2="224.33" y2="213.9"/>
<g>
	<g>
		<g>
			<rect x="1032.19" y="218.83" class="st48" width="20.43" height="325.63"/>
			<path class="st49" d="M1064.5,641.97l-7.89-125.09c-0.48-7.68-6.85-13.66-14.55-13.66l0,0c-7.75,0-14.14,6.06-14.56,13.79
				l-6.75,124.96H1064.5z"/>
			<path class="st49" d="M1053.5,264.05V207.8h-8.93c-10.94,0-19.82,8.87-19.82,19.82l0,16.62c0,10.94,8.87,19.82,19.82,19.82
				H1053.5z"/>
		</g>
	</g>
	<g>
		<g>
			<path class="st50" d="M1005.38,233.47v-7.01h1.94c2.05,0,3.72,1.66,3.72,3.72v3.29H1005.38z"/>
			<polygon class="st51" points="996.22,233.66 992.86,231.06 1023.46,217.53 1023.29,222.09 			"/>
			<polygon class="st51" points="1025.63,215.65 985.89,230.27 982.17,231.63 979.93,218.74 1023.1,202.48 1024.6,210.28 
				1024.61,210.35 			"/>
			<polygon class="st52" points="1024.71,210.86 1026.32,217.98 987.2,235.1 985.56,228.35 			"/>
			<g>
				<path class="st51" d="M1001.96,235.43v-2.3h35.33v6.73h-30.9C1003.94,239.85,1001.96,237.87,1001.96,235.43z"/>
				<rect x="1001.96" y="233.12" class="st50" width="35.33" height="1.75"/>
			</g>
			<g>
				<rect x="1038.68" y="226.46" class="st53" width="1.12" height="20.05"/>
				<path class="st51" d="M1033.08,242.82v-12.67c0-2.04,1.65-3.69,3.69-3.69h1.92v20.05h-1.92
					C1034.73,246.51,1033.08,244.86,1033.08,242.82z"/>
			</g>
			<path d="M949.51,221.79l-4.52-11.54c-0.84-2.16,0.71-4.5,3.02-4.56l31.41-1.9l4.78,15.11l-31.93,4.26
				C951.13,223.49,949.94,222.89,949.51,221.79z"/>
			<path class="st54" d="M958.54,231.85l-3.5-19.97c-0.35-2,1.19-3.83,3.22-3.83h23.3c1.3,0,2.42,0.93,2.66,2.21l4.21,22.7
				c0.22,1.2-0.7,2.3-1.92,2.3H962.6C960.6,235.26,958.88,233.82,958.54,231.85z"/>
			<path class="st51" d="M1023.72,205.7l-7.62,3.08c-0.45,0.18-0.82,0.52-1.03,0.96l-1.78,3.56c-0.33,0.66-0.91,1.17-1.6,1.41
				l-25.33,8.84c-1.6,0.56-3.36-0.22-4.02-1.79l-5.05-12.01c-0.51-1.21-1.31-2.24-2.29-3.02c-1.36-1.08-3.08-1.69-4.9-1.66
				l-22.65,0.7l74.46-7.12C1022.27,198.62,1023.72,205.7,1023.72,205.7z"/>
			<path class="st52" d="M1024.75,207.14l-38.39,16.41c-1.6,0.56-3.36-0.22-4.02-1.79l-5.05-12.01c-0.51-1.21-1.31-2.24-2.29-3.02
				l47.55-8.2L1024.75,207.14z"/>
			<g>
				<ellipse class="st50" cx="1037.6" cy="244.29" rx="0.32" ry="0.64"/>
				<ellipse class="st50" cx="1034.52" cy="244.29" rx="0.32" ry="0.64"/>
			</g>
			<g>
				<ellipse class="st50" cx="1037.6" cy="228.96" rx="0.32" ry="0.64"/>
				<ellipse class="st50" cx="1034.52" cy="228.96" rx="0.32" ry="0.64"/>
			</g>
			<g class="st55">
				<path class="st56" d="M980.44,235.25l-13.52-0.13c-0.13,0-0.26-0.02-0.37-0.06c-0.5-0.15-0.89-0.59-0.95-1.14l-1.95-18.14
					c-0.08-0.79,0.54-1.49,1.33-1.49h13.05c0.14,0,0.27,0.02,0.4,0.06c0.31,0.1,0.57,0.3,0.74,0.58c0.1,0.16,0.16,0.33,0.19,0.53
					l0.88,6.66l0.15,1.12l0.07,0.52l0.06,0.42l1.27,9.56C981.89,234.54,981.25,235.25,980.44,235.25z"/>
				<path class="st57" d="M980.44,235.25l-13.52-0.13c-0.13,0-0.26-0.02-0.37-0.06c-0.1-0.17-0.17-0.36-0.19-0.56l-1.95-18.14
					c-0.09-0.79,0.54-1.49,1.33-1.49h13.05c0.13,0,0.26,0.02,0.39,0.06c0.1,0.16,0.16,0.33,0.19,0.53l0.88,6.66l0.15,1.12l0.07,0.52
					l0.06,0.42l1.27,9.56C981.89,234.54,981.25,235.25,980.44,235.25z"/>
				<g>
					<path class="st56" d="M979.15,227.06h-12.21c-0.34,0-0.63-0.25-0.68-0.59l-1.48-10.05c-0.06-0.41,0.26-0.78,0.67-0.78
						l7.68-0.08l0.38-0.01l1.1-0.01l2.51-0.03l0.67-0.01c0.35-0.01,0.64,0.25,0.68,0.59l0.77,5.81l0.17,1.28l0.12,0.87l0.09,0.66
						l0.2,1.55C979.88,226.7,979.56,227.06,979.15,227.06z"/>
					<path class="st57" d="M979.62,224.74c-0.22,0.1-0.45,0.18-0.69,0.24c-2.56,0.61-5.28-1.62-6.07-4.98
						c-0.38-1.6-0.25-3.17,0.27-4.43l0.38-0.01l1.1-0.01l2.51-0.03l0.67-0.01c0.35-0.01,0.64,0.25,0.68,0.59l0.77,5.81l0.17,1.28
						l0.12,0.87L979.62,224.74z"/>
					<path class="st58" d="M979.42,223.21l-0.17-1.28l-0.77-5.81c-0.05-0.34-0.34-0.6-0.68-0.59l-0.67,0.01l-2.51,0.03l-1.1,0.01
						c-0.26,1.07-0.27,2.29,0.02,3.53c0.78,3.32,3.47,5.54,6.01,4.99L979.42,223.21z"/>
					<path class="st59" d="M979.25,221.92l-0.77-5.81c-0.05-0.34-0.34-0.6-0.68-0.59l-0.67,0.01l-2.51,0.03
						c-0.09,0.83-0.04,1.72,0.18,2.62c0.64,2.72,2.56,4.71,4.63,5.03L979.25,221.92z"/>
					<path class="st60" d="M979.25,221.92c-1.39-0.43-2.51-1.53-2.85-3c-0.29-1.22,0.01-2.44,0.72-3.4l0.67-0.01
						c0.35-0.01,0.64,0.25,0.68,0.59L979.25,221.92z"/>
				</g>
			</g>
			
				<ellipse transform="matrix(0.9842 -0.1771 0.1771 0.9842 -23.2567 176.6233)" class="st61" cx="977.67" cy="218.58" rx="0.45" ry="0.7"/>
		</g>
		<rect x="1001.96" y="232.04" class="st51" width="11.74" height="4.63"/>
	</g>
</g>
<g>
	<circle class="st62" cx="194.78" cy="607.84" r="53.34"/>
	<line class="st62" x1="158.02" y1="607.84" x2="120.73" y2="607.84"/>
	<line class="st62" x1="269.88" y1="607.84" x2="232.59" y2="607.84"/>
	<line class="st62" x1="195.3" y1="570.56" x2="195.3" y2="533.27"/>
	<line class="st62" x1="195.3" y1="682.42" x2="195.3" y2="645.13"/>
</g>
<g>
	<circle class="st62" cx="752.02" cy="581.95" r="53.34"/>
	<line class="st62" x1="715.26" y1="581.95" x2="677.97" y2="581.95"/>
	<line class="st62" x1="827.12" y1="581.95" x2="789.83" y2="581.95"/>
	<line class="st62" x1="752.54" y1="544.66" x2="752.54" y2="507.37"/>
	<line class="st62" x1="752.54" y1="656.52" x2="752.54" y2="619.24"/>
</g>
<g>
	<circle class="st63" cx="435.3" cy="586.09" r="30.38"/>
	<line class="st63" x1="414.37" y1="586.09" x2="393.13" y2="586.09"/>
	<line class="st63" x1="478.07" y1="586.09" x2="456.83" y2="586.09"/>
	<line class="st63" x1="435.6" y1="564.86" x2="435.6" y2="543.63"/>
	<line class="st63" x1="435.6" y1="628.56" x2="435.6" y2="607.32"/>
</g>
</svg>
