<svg xmlns="http://www.w3.org/2000/svg" viewBox="0 0 500 500"><g id="freepik--background-simple--inject-100"><path d="M80.42,203.08c10-34.33,59.74-53.64,103.94-44.66C222.91,166.26,238,193.81,281,193.9c40,.07,75.71-10.49,112.12,18.4,28.64,22.73,27.74,53.19,22.9,83.12-13.24,81.82-68.62,106.3-160.69,78.75-44-13.17-96.9-34-132.58-61.46C79.89,279.76,68,245.66,80.42,203.08Z" style="fill:#0ABDE3"></path><path d="M80.42,203.08c10-34.33,59.74-53.64,103.94-44.66C222.91,166.26,238,193.81,281,193.9c40,.07,75.71-10.49,112.12,18.4,28.64,22.73,27.74,53.19,22.9,83.12-13.24,81.82-68.62,106.3-160.69,78.75-44-13.17-96.9-34-132.58-61.46C79.89,279.76,68,245.66,80.42,203.08Z" style="fill:#fff;opacity:0.9"></path></g><g id="freepik--Shadow--inject-100"><ellipse id="freepik--path--inject-100" cx="250" cy="416.24" rx="193.89" ry="11.32" style="fill:#f5f5f5"></ellipse></g><g id="freepik--Car--inject-100"><path d="M236.06,414.1c12.53,0,22.69-20.12,22.69-44.94s-10.16-44.94-22.69-44.94H207V414.1Z" style="fill:#263238"></path><ellipse cx="206.85" cy="369.16" rx="22.69" ry="44.94" style="fill:#263238"></ellipse><path d="M402.43,414.1c12.53,0,22.68-20.12,22.68-44.94S415,324.22,402.43,324.22H373.32V414.1Z" style="fill:#263238"></path><ellipse cx="373.21" cy="369.16" rx="22.69" ry="44.94" style="fill:#263238"></ellipse><path d="M87.34,391.47,71.8,387.64a18.54,18.54,0,0,1-12.22-9.81v0a18.59,18.59,0,0,0-4.31-5.65l-3.82-3.4a18.58,18.58,0,0,1-6.14-15.65l2.1-22a18.58,18.58,0,0,1,13.22-16.05l11.11-3.28,40.08-2.86Z" style="fill:#0ABDE3"></path><path d="M121.23,414.1c12.53,0,22.69-20.12,22.69-44.94s-10.16-44.94-22.69-44.94H92.13V414.1Z" style="fill:#263238"></path><ellipse cx="92.02" cy="369.16" rx="22.69" ry="44.94" style="fill:#263238"></ellipse><ellipse cx="92.02" cy="369.16" rx="15.92" ry="35.52" style="fill:#0ABDE3"></ellipse><path d="M322.25,391.47l39.18-87.56s-58.62-43.64-133-43.64c-120.55,0-116.41,16.25-156.75,51.53l17.61,12.42c31.33,0,33.94,49.66,38.95,63.63a5.43,5.43,0,0,0,5.12,3.62H322.25" style="fill:#0ABDE3"></path><path d="M287.6,414.1c12.53,0,22.68-20.12,22.68-44.94s-10.15-44.94-22.68-44.94H258.49V414.1Z" style="fill:#263238"></path><ellipse cx="258.38" cy="369.16" rx="22.69" ry="44.94" style="fill:#263238"></ellipse><ellipse cx="258.38" cy="369.16" rx="15.92" ry="35.52" style="fill:#0ABDE3"></ellipse><path d="M298.87,384.24c-3.61-16.4-20.87-60-41.56-60l-22.42-20.36H361.43c8.76,0,47.67,5.38,69.72,20.31,17.81,12.06,20,30.37,22.56,57.12.53,5.46-4.25,10.15-10.29,10.16-50.7,0-112.06.19-134.4.26C304.09,391.78,299.84,388.63,298.87,384.24Z" style="fill:#0ABDE3"></path><path d="M352.28,303.91H269.79a11.68,11.68,0,0,1-9.69-5.09c-9.18-13.6-25.43-27.38-37.34-33.91C306.16,264.91,352.28,303.91,352.28,303.91Z" style="fill:#fff;opacity:0.8"></path><path d="M220.72,269c10,7.24,21.38,18.46,27.77,29.61a3.52,3.52,0,0,1-3,5.29H110.3c-14.34,0-9.58-35.72,65.33-38.4,7.06-.61,23.52-.63,32.62-.59A21.41,21.41,0,0,1,220.72,269Z" style="fill:#fff;opacity:0.8"></path><path d="M313.17,372l43.33,3.27a2.68,2.68,0,0,1,2.48,2.68v3a2.68,2.68,0,0,1-2.68,2.68H313a2.69,2.69,0,0,1-2.69-2.68v-6.23A2.69,2.69,0,0,1,313.17,372Z" style="fill:#263238"></path><path d="M450.9,372.6,439,375a2.68,2.68,0,0,0-2.16,2.63v3.25a2.68,2.68,0,0,0,2.69,2.68h12.6a2.68,2.68,0,0,0,2.67-3l-.67-5.64A2.69,2.69,0,0,0,450.9,372.6Z" style="fill:#263238"></path><path d="M348.83,321.58l-60.5-2.94s-.62,10.72,21.8,13A59,59,0,0,0,348.83,321.58Z" style="fill:#fff;opacity:0.8"></path><path d="M47.4,331.12A18.42,18.42,0,0,1,48.65,326l4.1-.12s.19,15.73-5.75,14.74a2.92,2.92,0,0,1-.49-.12Z" style="opacity:0.30000000000000004"></path><path d="M425.19,320.62a69,69,0,0,1,5.95,3.59,42.76,42.76,0,0,1,7.95,6.88,23.87,23.87,0,0,1-2.57.58c-13.43,2.31-23.19-10.09-23.19-10.09Z" style="fill:#fff;opacity:0.8"></path><path d="M367.57,338.48h42.81a7.35,7.35,0,0,1,4.19,1.34l7.48,5.25a7.49,7.49,0,0,1,3.15,5.11l1.91,14.17a6.38,6.38,0,0,1-6.39,7.36H374.94a7.53,7.53,0,0,1-6.6-4.1l-8.55-16.67a6.74,6.74,0,0,1,.54-7.27l2.14-2.75A6.39,6.39,0,0,1,367.57,338.48Z" style="fill:#263238"></path><path d="M141.9,373.05h83.72a2,2,0,0,1,2,2.17l-.43,4.87a2,2,0,0,1-2,1.82H141.46a2,2,0,0,1-2-2.17l.43-4.88A2,2,0,0,1,141.9,373.05Z" style="opacity:0.1"></path><polygon points="168.59 264.91 173.6 263.94 163.35 308.94 158.55 308.94 168.59 264.91" style="fill:#0ABDE3"></polygon><path d="M186.88,314H169.73l-.44,1.8a2.56,2.56,0,0,0,2.55,3.38h10.37a4.6,4.6,0,0,0,4.22-3.38Z" style="fill:#263238"></path><path d="M127.89,314H110.75l-.44,1.8a2.56,2.56,0,0,0,2.55,3.38h10.37a4.6,4.6,0,0,0,4.22-3.38Z" style="fill:#263238"></path><path d="M161.46,367.23a.57.57,0,0,1-.57-.56l-1.26-58.92a.59.59,0,0,1,.56-.59h0a.57.57,0,0,1,.57.56L162,366.65a.58.58,0,0,1-.56.58Z" style="opacity:0.1"></path></g></svg>