<svg xmlns="http://www.w3.org/2000/svg" viewBox="0 0 500 500"><g id="freepik--Device--inject-66"><rect x="118.88" y="403.8" width="116.93" height="13.34" style="fill:#0ABDE3"></rect><rect x="118.88" y="403.8" width="116.93" height="13.34" style="opacity:0.30000000000000004"></rect><rect x="121.92" y="405.7" width="2.93" height="9.55" style="fill:#263238"></rect><rect x="127.06" y="405.7" width="2.93" height="9.55" style="fill:#263238"></rect><rect x="132.21" y="405.7" width="2.93" height="9.55" style="fill:#263238"></rect><rect x="137.35" y="405.7" width="2.93" height="9.55" style="fill:#263238"></rect><rect x="142.49" y="405.7" width="2.93" height="9.55" style="fill:#263238"></rect><rect x="147.63" y="405.7" width="2.93" height="9.55" style="fill:#263238"></rect><rect x="152.78" y="405.7" width="2.93" height="9.55" style="fill:#263238"></rect><rect x="157.92" y="405.7" width="2.93" height="9.55" style="fill:#263238"></rect><rect x="163.06" y="405.7" width="2.93" height="9.55" style="fill:#263238"></rect><rect x="168.2" y="405.7" width="2.93" height="9.55" style="fill:#263238"></rect><rect x="173.34" y="405.7" width="2.93" height="9.55" style="fill:#263238"></rect><rect x="178.49" y="405.7" width="2.93" height="9.55" style="fill:#263238"></rect><rect x="183.63" y="405.7" width="2.93" height="9.55" style="fill:#263238"></rect><rect x="188.77" y="405.7" width="2.93" height="9.55" style="fill:#263238"></rect><rect x="193.91" y="405.7" width="2.93" height="9.55" style="fill:#263238"></rect><rect x="199.06" y="405.7" width="2.93" height="9.55" style="fill:#263238"></rect><rect x="204.2" y="405.7" width="2.93" height="9.55" style="fill:#263238"></rect><rect x="209.34" y="405.7" width="2.93" height="9.55" style="fill:#263238"></rect><rect x="214.48" y="405.7" width="2.93" height="9.55" style="fill:#263238"></rect><rect x="219.63" y="405.7" width="2.93" height="9.55" style="fill:#263238"></rect><rect x="224.77" y="405.7" width="2.93" height="9.55" style="fill:#263238"></rect><rect x="229.91" y="405.7" width="2.93" height="9.55" style="fill:#263238"></rect><rect x="235.81" y="403.8" width="18.24" height="13.34" transform="translate(489.87 820.95) rotate(180)" style="fill:#263238"></rect><rect x="112.8" y="168.05" width="123.02" height="235.75" style="fill:#0ABDE3"></rect><rect x="112.8" y="168.05" width="123.02" height="235.75" style="fill:#fff;opacity:0.30000000000000004"></rect><rect x="120.86" y="166.03" width="131.21" height="2.02" style="fill:#263238"></rect><rect x="107.92" y="277.9" width="1" height="9.93" style="fill:#0ABDE3"></rect><rect x="107.92" y="291.17" width="1" height="25.83" style="fill:#0ABDE3"></rect><rect x="235.81" y="168.05" width="24.33" height="235.75" transform="translate(495.95 571.85) rotate(180)" style="fill:#0ABDE3"></rect><rect x="115.66" y="230.41" width="117.29" height="23.4" rx="3.27" style="fill:#0ABDE3;opacity:0.6000000000000001;mix-blend-mode:multiply"></rect><rect x="115.66" y="230.41" width="117.29" height="23.4" rx="3.27" style="opacity:0.2"></rect><path d="M223.08,239l-4.73-9.76V255H233V242.11H228.1A5.57,5.57,0,0,1,223.08,239Z" style="fill:#0ABDE3"></path><rect x="115.66" y="170.87" width="117.29" height="25.83" style="fill:#0ABDE3"></rect><rect x="115.66" y="170.87" width="117.29" height="25.83" style="fill:#fff;opacity:0.2"></rect><rect x="115.66" y="375" width="117.29" height="25.83" style="fill:#0ABDE3"></rect><rect x="115.66" y="375" width="117.29" height="25.83" style="fill:#fff;opacity:0.2"></rect><rect x="115.66" y="345.84" width="117.29" height="25.83" style="fill:#0ABDE3"></rect><rect x="115.66" y="345.84" width="117.29" height="25.83" style="fill:#fff;opacity:0.2"></rect><rect x="115.66" y="316.68" width="117.29" height="25.83" style="fill:#0ABDE3"></rect><rect x="115.66" y="316.68" width="117.29" height="25.83" style="fill:#fff;opacity:0.2"></rect><rect x="115.66" y="287.52" width="117.29" height="25.83" style="fill:#0ABDE3"></rect><rect x="115.66" y="287.52" width="117.29" height="25.83" style="fill:#fff;opacity:0.2"></rect><rect x="115.66" y="258.36" width="117.29" height="25.83" style="fill:#0ABDE3"></rect><rect x="115.66" y="258.36" width="117.29" height="25.83" style="fill:#fff;opacity:0.2"></rect><rect x="101.06" y="229.2" width="117.29" height="25.83" style="fill:#0ABDE3"></rect><rect x="101.06" y="229.2" width="117.29" height="25.83" style="fill:#fff;opacity:0.2"></rect><rect x="115.66" y="200.03" width="117.29" height="25.83" style="fill:#0ABDE3"></rect><rect x="115.66" y="200.03" width="117.29" height="25.83" style="fill:#fff;opacity:0.2"></rect><rect x="177.29" y="174.56" width="52.13" height="18.45" rx="3.77" style="fill:#0ABDE3"></rect><rect x="211.37" y="174.97" width="4.72" height="17.65" rx="1.6" transform="translate(397.52 -29.94) rotate(90)" style="fill:#fff;opacity:0.2"></rect><rect x="177.29" y="203.72" width="52.13" height="18.45" rx="3.77" style="fill:#0ABDE3"></rect><rect x="211.37" y="204.13" width="4.72" height="17.65" rx="1.6" transform="translate(426.68 -0.78) rotate(90)" style="fill:#fff;opacity:0.2"></rect><rect x="162.69" y="232.89" width="52.13" height="18.45" rx="3.77" style="fill:#0ABDE3"></rect><rect x="196.77" y="233.29" width="4.72" height="17.65" rx="1.6" transform="translate(441.24 42.98) rotate(90)" style="fill:#fff;opacity:0.2"></rect><rect x="177.29" y="262.05" width="52.13" height="18.45" rx="3.77" style="fill:#0ABDE3"></rect><rect x="211.37" y="262.45" width="4.72" height="17.65" rx="1.6" transform="translate(485 57.54) rotate(90)" style="fill:#fff;opacity:0.2"></rect><rect x="177.29" y="291.21" width="52.13" height="18.45" rx="3.77" style="fill:#0ABDE3"></rect><rect x="211.37" y="291.61" width="4.72" height="17.65" rx="1.6" transform="translate(514.16 86.7) rotate(90)" style="fill:#fff;opacity:0.2"></rect><rect x="177.29" y="320.37" width="52.13" height="18.45" rx="3.77" style="fill:#0ABDE3"></rect><rect x="211.37" y="320.77" width="4.72" height="17.65" rx="1.6" transform="translate(543.32 115.86) rotate(90)" style="fill:#fff;opacity:0.2"></rect><rect x="177.29" y="349.53" width="52.13" height="18.45" rx="3.77" style="fill:#0ABDE3"></rect><rect x="211.37" y="349.93" width="4.72" height="17.65" rx="1.6" transform="translate(572.48 145.03) rotate(90)" style="fill:#fff;opacity:0.2"></rect><rect x="177.29" y="378.69" width="52.13" height="18.45" rx="3.77" style="fill:#0ABDE3"></rect><rect x="211.37" y="379.09" width="4.72" height="17.65" rx="1.6" transform="translate(601.65 174.19) rotate(90)" style="fill:#fff;opacity:0.2"></rect><circle cx="168.22" cy="183.79" r="2.98" style="fill:#0ABDE3"></circle><circle cx="159.7" cy="183.79" r="2.98" style="fill:#0ABDE3"></circle><circle cx="151.19" cy="183.79" r="2.98" style="fill:#0ABDE3"></circle><circle cx="151.19" cy="183.79" r="2.98" style="fill:#fff;opacity:0.4"></circle><path d="M145.65,183.79a3,3,0,1,1-3-3A3,3,0,0,1,145.65,183.79Z" style="fill:#0ABDE3"></path><circle cx="168.22" cy="212.95" r="2.98" style="fill:#0ABDE3"></circle><circle cx="159.7" cy="212.95" r="2.98" style="fill:#0ABDE3"></circle><circle cx="151.19" cy="212.95" r="2.98" style="fill:#0ABDE3"></circle><path d="M145.65,213a3,3,0,1,1-3-3A3,3,0,0,1,145.65,213Z" style="fill:#0ABDE3"></path><path d="M145.65,213a3,3,0,1,1-3-3A3,3,0,0,1,145.65,213Z" style="fill:#fff;opacity:0.4"></path><circle cx="153.62" cy="242.11" r="2.98" style="fill:#0ABDE3"></circle><circle cx="153.62" cy="242.11" r="2.98" style="fill:#fff;opacity:0.4"></circle><circle cx="145.1" cy="242.11" r="2.98" style="fill:#0ABDE3"></circle><circle cx="136.59" cy="242.11" r="2.98" style="fill:#0ABDE3"></circle><circle cx="136.59" cy="242.11" r="2.98" style="fill:#fff;opacity:0.4"></circle><circle cx="128.07" cy="242.11" r="2.98" style="fill:#0ABDE3"></circle><circle cx="168.22" cy="271.27" r="2.98" style="fill:#0ABDE3"></circle><circle cx="168.22" cy="271.27" r="2.98" style="fill:#fff;opacity:0.4"></circle><circle cx="159.7" cy="271.27" r="2.98" style="fill:#0ABDE3"></circle><circle cx="159.7" cy="271.27" r="2.98" style="fill:#fff;opacity:0.4"></circle><circle cx="151.19" cy="271.27" r="2.98" style="fill:#0ABDE3"></circle><path d="M145.65,271.27a3,3,0,1,1-3-3A3,3,0,0,1,145.65,271.27Z" style="fill:#0ABDE3"></path><circle cx="168.22" cy="300.43" r="2.98" style="fill:#0ABDE3"></circle><circle cx="159.7" cy="300.43" r="2.98" style="fill:#0ABDE3"></circle><circle cx="159.7" cy="300.43" r="2.98" style="fill:#fff;opacity:0.4"></circle><circle cx="151.19" cy="300.43" r="2.98" style="fill:#0ABDE3"></circle><path d="M145.65,300.43a3,3,0,1,1-3-3A3,3,0,0,1,145.65,300.43Z" style="fill:#0ABDE3"></path><circle cx="168.22" cy="329.59" r="2.98" style="fill:#0ABDE3"></circle><circle cx="159.7" cy="329.59" r="2.98" style="fill:#0ABDE3"></circle><circle cx="151.19" cy="329.59" r="2.98" style="fill:#0ABDE3"></circle><circle cx="151.19" cy="329.59" r="2.98" style="fill:#fff;opacity:0.4"></circle><path d="M145.65,329.59a3,3,0,1,1-3-3A3,3,0,0,1,145.65,329.59Z" style="fill:#0ABDE3"></path><path d="M145.65,329.59a3,3,0,1,1-3-3A3,3,0,0,1,145.65,329.59Z" style="fill:#fff;opacity:0.4"></path><path d="M171.2,358.76a3,3,0,1,1-3-3A3,3,0,0,1,171.2,358.76Z" style="fill:#0ABDE3"></path><path d="M171.2,358.76a3,3,0,1,1-3-3A3,3,0,0,1,171.2,358.76Z" style="fill:#fff;opacity:0.4"></path><path d="M162.69,358.76a3,3,0,1,1-3-3A3,3,0,0,1,162.69,358.76Z" style="fill:#0ABDE3"></path><path d="M154.17,358.76a3,3,0,1,1-3-3A3,3,0,0,1,154.17,358.76Z" style="fill:#0ABDE3"></path><path d="M145.65,358.76a3,3,0,1,1-3-3A3,3,0,0,1,145.65,358.76Z" style="fill:#0ABDE3"></path><circle cx="168.22" cy="387.92" r="2.98" style="fill:#0ABDE3"></circle><circle cx="159.7" cy="387.92" r="2.98" style="fill:#0ABDE3"></circle><circle cx="151.19" cy="387.92" r="2.98" style="fill:#0ABDE3"></circle><circle cx="151.19" cy="387.92" r="2.98" style="fill:#fff;opacity:0.4"></circle><path d="M145.65,387.92a3,3,0,1,1-3-3A3,3,0,0,1,145.65,387.92Z" style="fill:#0ABDE3"></path><path d="M133.74,183.79a6.46,6.46,0,1,1-6.45-6.46A6.46,6.46,0,0,1,133.74,183.79Z" style="fill:#0ABDE3"></path><path d="M133.74,183.79a6.46,6.46,0,1,1-6.45-6.46A6.46,6.46,0,0,1,133.74,183.79Z" style="fill:#fff;opacity:0.4"></path><path d="M133.74,213a6.46,6.46,0,1,1-6.45-6.46A6.46,6.46,0,0,1,133.74,213Z" style="fill:#0ABDE3"></path><path d="M133.74,213a6.46,6.46,0,1,1-6.45-6.46A6.46,6.46,0,0,1,133.74,213Z" style="fill:#fff;opacity:0.4"></path><path d="M119.14,242.11a6.46,6.46,0,1,1-6.45-6.46A6.46,6.46,0,0,1,119.14,242.11Z" style="fill:#0ABDE3"></path><path d="M119.14,242.11a6.46,6.46,0,1,1-6.45-6.46A6.46,6.46,0,0,1,119.14,242.11Z" style="fill:#fff;opacity:0.4"></path><path d="M133.74,271.27a6.46,6.46,0,1,1-6.45-6.46A6.46,6.46,0,0,1,133.74,271.27Z" style="fill:#0ABDE3"></path><path d="M133.74,271.27a6.46,6.46,0,1,1-6.45-6.46A6.46,6.46,0,0,1,133.74,271.27Z" style="fill:#fff;opacity:0.4"></path><path d="M133.74,300.43a6.46,6.46,0,1,1-6.45-6.45A6.46,6.46,0,0,1,133.74,300.43Z" style="fill:#0ABDE3"></path><path d="M133.74,300.43a6.46,6.46,0,1,1-6.45-6.45A6.46,6.46,0,0,1,133.74,300.43Z" style="fill:#fff;opacity:0.4"></path><path d="M133.74,329.59a6.46,6.46,0,1,1-6.45-6.45A6.46,6.46,0,0,1,133.74,329.59Z" style="fill:#0ABDE3"></path><path d="M133.74,329.59a6.46,6.46,0,1,1-6.45-6.45A6.46,6.46,0,0,1,133.74,329.59Z" style="fill:#fff;opacity:0.4"></path><path d="M133.74,358.76a6.46,6.46,0,1,1-6.45-6.46A6.45,6.45,0,0,1,133.74,358.76Z" style="fill:#0ABDE3"></path><path d="M133.74,358.76a6.46,6.46,0,1,1-6.45-6.46A6.45,6.45,0,0,1,133.74,358.76Z" style="fill:#fff;opacity:0.4"></path><path d="M133.74,387.92a6.46,6.46,0,1,1-6.45-6.46A6.45,6.45,0,0,1,133.74,387.92Z" style="fill:#0ABDE3"></path><path d="M133.74,387.92a6.46,6.46,0,1,1-6.45-6.46A6.45,6.45,0,0,1,133.74,387.92Z" style="fill:#fff;opacity:0.4"></path></g><g id="freepik--Cloud--inject-66"><path d="M222.55,145.48a16.63,16.63,0,0,0-8.19-11.55h0c0-.13,0-.26,0-.39a16.69,16.69,0,0,0-16.69-16.69h-6.4v1.27a16.74,16.74,0,0,0-9.23,9.6,10.25,10.25,0,0,0-1.66-.15,10,10,0,0,0-9.27,6.29,11.25,11.25,0,0,0-6.88.51,12.14,12.14,0,0,0-7.73,10.85,11.94,11.94,0,0,0,11.94,12.2h45.21a9.07,9.07,0,0,0,9.16-8.87v-.1A16.06,16.06,0,0,0,222.55,145.48Z" style="fill:#0ABDE3"></path><path d="M216.16,145.48A16.63,16.63,0,0,0,208,133.93h0c0-.13,0-.26,0-.39a16.69,16.69,0,0,0-32.33-5.82,9.88,9.88,0,0,0-10.92,6.14,11.25,11.25,0,0,0-6.88.51,12.14,12.14,0,0,0-7.73,10.85,11.93,11.93,0,0,0,11.93,12.2h45.22a9.08,9.08,0,0,0,9.16-8.87v-.1A16.06,16.06,0,0,0,216.16,145.48Z" style="fill:#0ABDE3"></path><path d="M216.16,145.48A16.63,16.63,0,0,0,208,133.93h0c0-.13,0-.26,0-.39a16.69,16.69,0,0,0-32.33-5.82,9.88,9.88,0,0,0-10.92,6.14,11.25,11.25,0,0,0-6.88.51,12.14,12.14,0,0,0-7.73,10.85,11.93,11.93,0,0,0,11.93,12.2h45.22a9.08,9.08,0,0,0,9.16-8.87v-.1A16.06,16.06,0,0,0,216.16,145.48Z" style="fill:#fff;opacity:0.30000000000000004"></path></g><g id="freepik--Line--inject-66"><rect x="191.67" y="106.32" width="0.84" height="2.51" style="fill:#0ABDE3"></rect><rect x="191.67" y="106.32" width="0.84" height="2.51" style="opacity:0.2"></rect><path d="M353.38,163.34h-.84v-5h.84Zm0-10h-.84v-5h.84Zm0-10h-.84v-5h.84Zm0-10h-.84v-5h.84Zm0-10h-.84v-5h.84Zm0-10h-.84v-5h.84Zm0-10h-.84v-5h.84Zm-160.87-2.08h-.84V97.89a14.17,14.17,0,0,1,.09-1.6l.83.1a14.91,14.91,0,0,0-.08,1.5Zm159.3-7.68a12.63,12.63,0,0,0-2.43-4.14L350,89a13.43,13.43,0,0,1,2.6,4.42ZM194.05,91.81l-.73-.4a13.64,13.64,0,0,1,3.26-4l.54.65A12.57,12.57,0,0,0,194.05,91.81Zm151.52-5.24A12.39,12.39,0,0,0,341,85.26l.07-.84a13.43,13.43,0,0,1,4.93,1.4ZM201.33,85.8l-.25-.79a13.53,13.53,0,0,1,4.11-.64h.95v.84h-.95A12.86,12.86,0,0,0,201.33,85.8ZM336,85.21h-5v-.84h5Zm-10,0h-5v-.84h5Zm-10,0h-5v-.84h5Zm-10,0h-5v-.84h5Zm-10,0h-5v-.84h5Zm-10,0h-5v-.84h5Zm-10,0h-5v-.84h5Zm-10,0h-5v-.84h5Zm-10,0h-5v-.84h5Zm-10,0h-5v-.84h5Zm-10,0h-5v-.84h5Zm-10,0h-5v-.84h5Zm-10,0h-5v-.84h5Z" style="fill:#0ABDE3"></path><path d="M353.38,163.34h-.84v-5h.84Zm0-10h-.84v-5h.84Zm0-10h-.84v-5h.84Zm0-10h-.84v-5h.84Zm0-10h-.84v-5h.84Zm0-10h-.84v-5h.84Zm0-10h-.84v-5h.84Zm-160.87-2.08h-.84V97.89a14.17,14.17,0,0,1,.09-1.6l.83.1a14.91,14.91,0,0,0-.08,1.5Zm159.3-7.68a12.63,12.63,0,0,0-2.43-4.14L350,89a13.43,13.43,0,0,1,2.6,4.42ZM194.05,91.81l-.73-.4a13.64,13.64,0,0,1,3.26-4l.54.65A12.57,12.57,0,0,0,194.05,91.81Zm151.52-5.24A12.39,12.39,0,0,0,341,85.26l.07-.84a13.43,13.43,0,0,1,4.93,1.4ZM201.33,85.8l-.25-.79a13.53,13.53,0,0,1,4.11-.64h.95v.84h-.95A12.86,12.86,0,0,0,201.33,85.8ZM336,85.21h-5v-.84h5Zm-10,0h-5v-.84h5Zm-10,0h-5v-.84h5Zm-10,0h-5v-.84h5Zm-10,0h-5v-.84h5Zm-10,0h-5v-.84h5Zm-10,0h-5v-.84h5Zm-10,0h-5v-.84h5Zm-10,0h-5v-.84h5Zm-10,0h-5v-.84h5Zm-10,0h-5v-.84h5Zm-10,0h-5v-.84h5Zm-10,0h-5v-.84h5Z" style="opacity:0.2"></path><rect x="352.54" y="168.36" width="0.84" height="2.51" style="fill:#0ABDE3"></rect><rect x="352.54" y="168.36" width="0.84" height="2.51" style="opacity:0.2"></rect></g><g id="freepik--Character--inject-66"><polygon points="286.2 409.64 293.55 409.64 294.34 392.63 286.99 392.63 286.2 409.64" style="fill:#e4897b"></polygon><path d="M293.8,408.79h-8a.62.62,0,0,0-.61.51L284,415.83a1.11,1.11,0,0,0,1.1,1.3c2.89-.05,7.07-.22,10.71-.22,4.25,0,4.85.24,9.83.24,3,0,3.75-3,2.48-3.33-5.8-1.26-7.41-1.39-12.49-4.45A3.43,3.43,0,0,0,293.8,408.79Z" style="fill:#263238"></path><polygon points="294.33 392.64 293.93 401.4 286.58 401.4 286.99 392.64 294.33 392.64" style="fill:#ce6f64"></polygon><path d="M335.44,165.12c-.14,2.31-.3,4.84-.37,7.26s-.12,4.88-.09,7.29.12,4.81.33,7.11a37.06,37.06,0,0,0,1.05,6.43,11.4,11.4,0,0,0,.87,2.32,4.7,4.7,0,0,0,.38.64l.45.73c.29.48.64,1,1,1.46,1.31,1.95,2.76,3.89,4.26,5.84,3,3.85,6.27,7.74,9.48,11.55l-3.83,4.47a91.59,91.59,0,0,1-12.47-9.73,74,74,0,0,1-5.64-5.81c-.45-.53-.91-1-1.33-1.6l-.65-.84a8.5,8.5,0,0,1-.69-1,21.2,21.2,0,0,1-2.28-4.62,44.43,44.43,0,0,1-2-8.53c-.41-2.75-.59-5.46-.73-8.14s-.13-5.35,0-8,.21-5.24.51-8Z" style="fill:#e4897b"></path><path d="M338,180.18l-3.12,1.25-5.25,2.09-9.32,3.73s-4.25-22.11-2-28.83c2.52-7.38,11.42-7.21,16.23,1.2C339.3,167.82,338,180.18,338,180.18Z" style="fill:#0ABDE3"></path><path d="M338,180.18l-3.12,1.25-5.25,2.09-9.32,3.73s-4.25-22.11-2-28.83c2.52-7.38,11.42-7.21,16.23,1.2C339.3,167.82,338,180.18,338,180.18Z" style="fill:#fff;opacity:0.6000000000000001"></path><path d="M334.46,181.61l-4.79,1.91c-.8-3.47-1.54-9.28.83-13.63C333.74,172.6,334.24,178.07,334.46,181.61Z" style="fill:#0ABDE3"></path><path d="M334.46,181.61l-4.79,1.91c-.8-3.47-1.54-9.28.83-13.63C333.74,172.6,334.24,178.07,334.46,181.61Z" style="fill:#fff;opacity:0.4"></path><path d="M329.7,212.33H289.49c-.29-3.61.62-13.39,0-26.71-.14-3.07-.36-6.32-.69-9.73a166.32,166.32,0,0,0-3.82-23,102.3,102.3,0,0,1,13.4-1.7,147.71,147.71,0,0,1,17.1,0,73.62,73.62,0,0,1,11.66,2.14S336.61,170.06,329.7,212.33Z" style="fill:#0ABDE3"></path><path d="M329.7,212.33H289.49c-.29-3.61.62-13.39,0-26.71-.14-3.07-.36-6.32-.69-9.73a166.32,166.32,0,0,0-3.82-23,102.3,102.3,0,0,1,13.4-1.7,147.71,147.71,0,0,1,17.1,0,73.62,73.62,0,0,1,11.66,2.14S336.61,170.06,329.7,212.33Z" style="fill:#fff;opacity:0.6000000000000001"></path><path d="M289.51,185.62c-.14-3.07-.36-6.32-.69-9.73,1.3-.81,3-.86,3.35,3.9C292.49,184.19,291,185.41,289.51,185.62Z" style="fill:#0ABDE3"></path><path d="M289.51,185.62c-.14-3.07-.36-6.32-.69-9.73,1.3-.81,3-.86,3.35,3.9C292.49,184.19,291,185.41,289.51,185.62Z" style="fill:#fff;opacity:0.4"></path><polygon points="364.17 221.11 358.37 224.72 351.21 223.19 356.91 216.12 364.17 221.11" style="fill:#e4897b"></polygon><path d="M350.21,215l6.7,1.08-5.7,7.07s-3.58-.36-4.55-5.2Z" style="fill:#e4897b"></path><path d="M299.41,131.94c1.27,5.5,2.71,15.58-1,19.25,0,0,1.87,3.69,12.09,3.69,9.33,0,5-3.69,5-3.69-6.19-1.47-6.19-6-5.28-10.29Z" style="fill:#e4897b"></path><path d="M303.82,135.6l6.4,5.3a16.73,16.73,0,0,0-.42,3c-1.95,1.9-5.67-2.91-6-5.36A8.32,8.32,0,0,1,303.82,135.6Z" style="fill:#ce6f64"></path><path d="M321.24,118c2.56,3.18-.43,13.2-5.73,13S316.38,111.92,321.24,118Z" style="fill:#263238"></path><path d="M300.5,122.8c-.58,7.42-1.29,11.71,1.91,16.13a9.83,9.83,0,0,0,17.18-2.14c2.51-6.31,3-17.37-3.79-21.55A9.88,9.88,0,0,0,300.5,122.8Z" style="fill:#e4897b"></path><path d="M297.82,113.47l8,2.84c-3.51,4.69,1.59,15.75-4.61,13.68C298.37,129.05,289.11,118.81,297.82,113.47Z" style="fill:#263238"></path><path d="M301.7,115.39c3,2.22,15.31,4.86,22.34.94a21.88,21.88,0,0,1-4.19-1.58s5.26-.25,7.59-4.14a16.83,16.83,0,0,1-9.66-1.22,8.7,8.7,0,0,0,5.37-4.56c-9.71.12-30.62,2.09-27,8.92S301.7,115.39,301.7,115.39Z" style="fill:#263238"></path><path d="M297.5,114.49a13.78,13.78,0,0,1-3.95-2.83C293.09,112.81,293.09,115.92,297.5,114.49Z" style="fill:#263238"></path><path d="M296,130.3a7.47,7.47,0,0,0,4,3.85c2.33.95,3.7-1,3.22-3.36-.43-2.09-2.16-5.1-4.58-5.06S295.1,128.17,296,130.3Z" style="fill:#e4897b"></path><polygon points="308.75 409.64 316.09 409.64 317.61 392.63 310.27 392.63 308.75 409.64" style="fill:#e4897b"></polygon><path d="M316.43,408.79h-8a.61.61,0,0,0-.61.51l-1.22,6.53a1.11,1.11,0,0,0,1.1,1.3c2.9-.05,7.07-.22,10.71-.22,4.25,0,7.94.24,12.92.24,3,0,3.75-3,2.47-3.33-5.79-1.26-10.49-1.39-15.56-4.45A3.46,3.46,0,0,0,316.43,408.79Z" style="fill:#263238"></path><polygon points="317.61 392.64 316.83 401.4 309.48 401.4 310.26 392.64 317.61 392.64" style="fill:#ce6f64"></polygon><path d="M319.5,409.92a2.23,2.23,0,0,0,1.48-.15,1,1,0,0,0,.48-.88.58.58,0,0,0-.24-.54c-.77-.55-3.36.54-3.66.67a.18.18,0,0,0-.1.16.21.21,0,0,0,.12.17A9.52,9.52,0,0,0,319.5,409.92Zm1.3-1.36a.48.48,0,0,1,.22.08c.05,0,.09.08.09.22a.7.7,0,0,1-.32.6,3.65,3.65,0,0,1-2.67-.28A7.05,7.05,0,0,1,320.8,408.56Z" style="fill:#0ABDE3"></path><path d="M317.62,409.36h.09c.82-.3,2.51-1.69,2.46-2.54a.61.61,0,0,0-.51-.55.94.94,0,0,0-.78.11c-1,.57-1.4,2.68-1.41,2.77a.2.2,0,0,0,.15.22Zm1.87-2.78.08,0c.23.07.24.17.24.22,0,.5-1.07,1.58-1.91,2a4.19,4.19,0,0,1,1.17-2.19A.65.65,0,0,1,319.49,406.58Z" style="fill:#0ABDE3"></path><path d="M306.71,399.3h12s18.41-70.32,18.06-94.17c-.35-22.94-7-92.8-7-92.8H303.27s2.05,15.54,4.39,34.71c2.09,16.92,4.39,36.69,5.71,51.09.38,4.28.69,8.08.87,11.2C315.61,332.75,306.71,399.3,306.71,399.3Z" style="fill:#0ABDE3"></path><path d="M306.71,399.3h12s18.41-70.32,18.06-94.17c-.35-22.94-7-92.8-7-92.8H303.27s2.05,15.54,4.39,34.71c2.09,16.92,4.39,36.69,5.71,51.09.38,4.28.69,8.08.87,11.2C315.61,332.75,306.71,399.3,306.71,399.3Z" style="opacity:0.30000000000000004"></path><path d="M307.66,247c2.09,16.92,4.39,36.69,5.71,51.09,2.79-12.57,9.6-49.11-.62-67.59C310.19,234.19,308.63,240.5,307.66,247Z" style="fill:#0ABDE3"></path><path d="M307.66,247c2.09,16.92,4.39,36.69,5.71,51.09,2.79-12.57,9.6-49.11-.62-67.59C310.19,234.19,308.63,240.5,307.66,247Z" style="opacity:0.4"></path><path d="M315.44,212.33s-1,67.37-4.91,88.89c-4.28,23.57-12.8,98.08-12.8,98.08H284s2-72.61,4.1-95.94c2.26-25.33,1.43-91,1.43-91Z" style="fill:#0ABDE3"></path><path d="M315.44,212.33s-1,67.37-4.91,88.89c-4.28,23.57-12.8,98.08-12.8,98.08H284s2-72.61,4.1-95.94c2.26-25.33,1.43-91,1.43-91Z" style="opacity:0.30000000000000004"></path><polygon points="283.44 399.6 298.27 399.6 299.36 394 282.93 393.54 283.44 399.6" style="fill:#263238"></polygon><polygon points="306.03 399.6 320.86 399.6 321.96 394 305.58 394.29 306.03 399.6" style="fill:#263238"></polygon><path d="M289.22,391.17h0a.12.12,0,0,1-.11-.14c.09-.7,1.12-65.86,3-86.82,2-22.75.76-83.11.8-83.62a.13.13,0,0,1,.14-.11.14.14,0,0,1,.12.14c0,.51,1.23,60.87-.81,83.62-1.87,21-2.9,86.13-3,86.83A.13.13,0,0,1,289.22,391.17Z" style="fill:#0ABDE3"></path><path d="M289.22,391.17h0a.12.12,0,0,1-.11-.14c.09-.7,1.12-65.86,3-86.82,2-22.75.76-83.11.8-83.62a.13.13,0,0,1,.14-.11.14.14,0,0,1,.12.14c0,.51,1.23,60.87-.81,83.62-1.87,21-2.9,86.13-3,86.83A.13.13,0,0,1,289.22,391.17Z" style="fill:#fff;opacity:0.30000000000000004"></path><path d="M311.41,126.88c-.09.59.16,1.13.56,1.2s.78-.36.86-1-.17-1.14-.56-1.21S311.49,126.28,311.41,126.88Z" style="fill:#263238"></path><path d="M318.34,127.71c-.08.6.17,1.13.56,1.2s.78-.36.86-1-.17-1.14-.56-1.21S318.42,127.11,318.34,127.71Z" style="fill:#263238"></path><path d="M316,127.92a22.66,22.66,0,0,0,2.16,5.61,3.51,3.51,0,0,1-2.95,0Z" style="fill:#de5753"></path><path d="M314,136a.17.17,0,0,0,.2-.15.19.19,0,0,0-.16-.2,5,5,0,0,1-3.72-2.38.17.17,0,0,0-.24-.08.17.17,0,0,0-.08.23A5.32,5.32,0,0,0,314,136Z" style="fill:#263238"></path><path d="M309.58,122.56a.35.35,0,0,0,.31-.06,2.77,2.77,0,0,1,2.49-.55.35.35,0,0,0,.45-.22.38.38,0,0,0-.24-.46,3.48,3.48,0,0,0-3.15.67.34.34,0,0,0-.05.5A.39.39,0,0,0,309.58,122.56Z" style="fill:#263238"></path><path d="M290.92,151.53l1.89-.17a.41.41,0,0,1,.41.3c6.3,28.37,4.41,58.49,4.41,58.49h-2.09A272.79,272.79,0,0,0,290.6,152,.34.34,0,0,1,290.92,151.53Z" style="fill:#0ABDE3"></path><path d="M290.92,151.53l1.89-.17a.41.41,0,0,1,.41.3c6.3,28.37,4.41,58.49,4.41,58.49h-2.09A272.79,272.79,0,0,0,290.6,152,.34.34,0,0,1,290.92,151.53Z" style="fill:#fff;opacity:0.1"></path><path d="M295.93,210.82h1.45a.65.65,0,0,0,.66-.67h0a.72.72,0,0,0-.71-.68h-1.44a.66.66,0,0,0-.66.68h0A.71.71,0,0,0,295.93,210.82Z" style="fill:#263238"></path><path d="M297.61,212.59l-.07-1.9a.92.92,0,0,0-.92-.88h0a.84.84,0,0,0-.85.88l.07,1.9a.92.92,0,0,0,.91.88h0A.86.86,0,0,0,297.61,212.59Z" style="fill:#263238"></path><path d="M321.47,124.11a.29.29,0,0,0,.16,0,.34.34,0,0,0,.23-.44,3.67,3.67,0,0,0-2.24-2.43.34.34,0,0,0-.43.24.37.37,0,0,0,.25.45h0a2.93,2.93,0,0,1,1.75,1.94A.34.34,0,0,0,321.47,124.11Z" style="fill:#263238"></path><path d="M289.53,164.76c-1.15,4.71-2.31,9.61-3.33,14.38-.5,2.39-1,4.77-1.35,7.11a42.65,42.65,0,0,0-.63,6.55,19,19,0,0,0,4.07,11.14,31.81,31.81,0,0,0,4.58,4.89c.86.77,1.76,1.51,2.7,2.2.47.34.95.68,1.43,1s1,.67,1.39.91l-2.18,5.47c-.8-.24-1.4-.45-2.08-.7s-1.28-.52-1.92-.8c-1.26-.57-2.5-1.2-3.72-1.9a35.22,35.22,0,0,1-6.8-5.19,28.5,28.5,0,0,1-5.36-7.24,26.12,26.12,0,0,1-2.7-9,48,48,0,0,1,0-8.66c.23-2.7.56-5.34,1-7.95a139.57,139.57,0,0,1,3.4-15.34Z" style="fill:#e4897b"></path><path d="M285,152.89c-7.95,1.42-12.45,22.67-12.45,22.67l19.66,7a48.16,48.16,0,0,0,0-16.17C290.79,157.37,292.55,151.54,285,152.89Z" style="fill:#0ABDE3"></path><path d="M285,152.89c-7.95,1.42-12.45,22.67-12.45,22.67l19.66,7a48.16,48.16,0,0,0,0-16.17C290.79,157.37,292.55,151.54,285,152.89Z" style="fill:#fff;opacity:0.6000000000000001"></path><path d="M322.76,151.91l1.89.35a.38.38,0,0,1,.31.32c5,28.38,1.69,57.57,1.69,57.57h-2.1c2-30.89-1.59-54.17-2.21-57.83A.35.35,0,0,1,322.76,151.91Z" style="fill:#0ABDE3"></path><path d="M322.76,151.91l1.89.35a.38.38,0,0,1,.31.32c5,28.38,1.69,57.57,1.69,57.57h-2.1c2-30.89-1.59-54.17-2.21-57.83A.35.35,0,0,1,322.76,151.91Z" style="fill:#fff;opacity:0.1"></path><path d="M324.92,210.82h1.45a.68.68,0,0,0,.68-.67h0a.68.68,0,0,0-.67-.68h-1.45a.69.69,0,0,0-.68.68h0A.66.66,0,0,0,324.92,210.82Z" style="fill:#263238"></path><path d="M326.51,212.59l0-1.9a.87.87,0,0,0-.88-.88h0a.89.89,0,0,0-.89.88l0,1.9a.87.87,0,0,0,.87.88h0A.91.91,0,0,0,326.51,212.59Z" style="fill:#263238"></path><path d="M296.87,409.92a2.26,2.26,0,0,0,1.49-.15,1,1,0,0,0,.48-.88.58.58,0,0,0-.24-.54c-.77-.55-3.37.54-3.66.67a.16.16,0,0,0-.1.16.2.2,0,0,0,.11.17A9.72,9.72,0,0,0,296.87,409.92Zm1.3-1.36a.52.52,0,0,1,.23.08.22.22,0,0,1,.08.22.68.68,0,0,1-.32.6,3.62,3.62,0,0,1-2.66-.28A7,7,0,0,1,298.17,408.56Z" style="fill:#0ABDE3"></path><path d="M295,409.36h.09c.83-.3,2.52-1.69,2.46-2.54a.61.61,0,0,0-.51-.55.94.94,0,0,0-.78.11c-.95.57-1.39,2.68-1.41,2.77a.18.18,0,0,0,.06.17A.2.2,0,0,0,295,409.36Zm1.88-2.78.08,0c.22.07.23.17.23.22,0,.5-1.06,1.58-1.9,2a4.11,4.11,0,0,1,1.16-2.19A.66.66,0,0,1,296.87,406.58Z" style="fill:#0ABDE3"></path><path d="M292.45,217l2.3-4.18,6.31.22,4.91,2,3.34,4.92-8.58-.52S295.47,220.93,292.45,217Z" style="fill:#e4897b"></path><polygon points="309.87 154.87 308.36 153.81 305.35 156.81 309.87 154.87" style="fill:#0ABDE3"></polygon><polygon points="309.87 154.87 308.36 153.81 305.35 156.81 309.87 154.87" style="fill:#fff;opacity:0.4"></polygon><path d="M308.36,153.81s-2.45,3.61-2.86,6.22c-3.13-1.28-9.07-4.48-10-9a12.81,12.81,0,0,0,3.14-1.5S301.83,152.17,308.36,153.81Z" style="fill:#0ABDE3"></path><path d="M308.36,153.81s-2.45,3.61-2.86,6.22c-3.13-1.28-9.07-4.48-10-9a12.81,12.81,0,0,0,3.14-1.5S301.83,152.17,308.36,153.81Z" style="fill:#fff;opacity:0.2"></path><polygon points="309.87 154.87 310.43 153.64 314.58 156.81 309.87 154.87" style="fill:#0ABDE3"></polygon><polygon points="309.87 154.87 310.43 153.64 314.58 156.81 309.87 154.87" style="fill:#fff;opacity:0.4"></polygon><path d="M310.43,153.64a10.54,10.54,0,0,1,3.18,5.76c3-1.28,4.09-5.46,3.19-8.23a18.3,18.3,0,0,0-3.7-1.2A3.41,3.41,0,0,1,310.43,153.64Z" style="fill:#0ABDE3"></path><path d="M310.43,153.64a10.54,10.54,0,0,1,3.18,5.76c3-1.28,4.09-5.46,3.19-8.23a18.3,18.3,0,0,0-3.7-1.2A3.41,3.41,0,0,1,310.43,153.64Z" style="fill:#fff;opacity:0.2"></path><polygon points="382.45 183.44 319.48 181.21 310.37 218.02 373.34 220.25 382.45 183.44" style="fill:#0ABDE3"></polygon><polygon points="382.45 183.44 319.48 181.21 310.37 218.02 373.34 220.25 382.45 183.44" style="fill:#fff;opacity:0.1"></polygon><polygon points="384.38 183.5 321.42 181.28 312.31 218.09 375.28 220.32 384.38 183.5" style="fill:#263238"></polygon><polygon points="375.28 220.32 375.02 222.36 312.05 220.13 312.31 218.09 375.28 220.32" style="fill:#263238"></polygon><polygon points="312.31 218.09 312.05 220.13 287.34 219.26 287.59 217.22 312.31 218.09" style="fill:#0ABDE3"></polygon><polygon points="312.31 218.09 312.05 220.13 287.34 219.26 287.59 217.22 312.31 218.09" style="fill:#fff;opacity:0.1"></polygon></g></svg>