<svg xmlns="http://www.w3.org/2000/svg" viewBox="0 0 500 500"><g id="freepik--Device--inject-77"><path d="M339.07,416.87H246.24a9.38,9.38,0,0,1-9.49-10.4l24-274.12A11.58,11.58,0,0,1,272,121.94h92.83a9.38,9.38,0,0,1,9.49,10.41l-24,274.12A11.58,11.58,0,0,1,339.07,416.87Z" style="fill:#0ABDE3"></path><path d="M339.07,416.87H246.24a9.38,9.38,0,0,1-9.49-10.4l24-274.12A11.58,11.58,0,0,1,272,121.94h92.83a9.38,9.38,0,0,1,9.49,10.41l-24,274.12A11.58,11.58,0,0,1,339.07,416.87Z" style="fill:#fff;opacity:0.4;isolation:isolate"></path><path d="M329.07,416.87H236.24a9.38,9.38,0,0,1-9.49-10.4l24-274.12A11.58,11.58,0,0,1,262,121.94h92.83a9.38,9.38,0,0,1,9.49,10.41l-24,274.12A11.58,11.58,0,0,1,329.07,416.87Z" style="fill:#263238"></path><path d="M329.07,416.87H236.24a9.38,9.38,0,0,1-9.49-10.4l24-274.12A11.58,11.58,0,0,1,262,121.94h92.83a9.38,9.38,0,0,1,9.49,10.41l-24,274.12A11.58,11.58,0,0,1,329.07,416.87Z" style="fill:#0ABDE3"></path><path d="M360.57,131.82l-24,274.64c-.2,2.26-1.61,4-3.18,4H232.76c-1.44,0-2.39-1.61-2.2-3.69l24.08-275.3c.16-1.8,1.21-3.37,2.46-3.37h25.15c.71,0,1.3.67,1.48,1.64l.72,3.7c.18.95.76,1.61,1.47,1.61h42.83a2.12,2.12,0,0,0,1.76-1.59l1.36-3.72a2.2,2.2,0,0,1,1.77-1.64h24.79C359.8,128.12,360.75,129.84,360.57,131.82Z" style="fill:#fff;opacity:0.4;isolation:isolate"></path><polygon points="359.4 145.28 338.78 380.94 232.82 380.94 253.44 145.28 359.4 145.28" style="fill:#0ABDE3"></polygon><polygon points="265.64 139.19 266.95 139.19 267.17 136.67 265.87 136.67 265.64 139.19" style="fill:#fff;opacity:0.6000000000000001;isolation:isolate"></polygon><polygon points="263.51 139.19 264.82 139.19 265.11 135.83 263.81 135.83 263.51 139.19" style="fill:#fff;opacity:0.6000000000000001;isolation:isolate"></polygon><polygon points="261.38 139.19 262.69 139.19 263.06 134.99 261.75 134.99 261.38 139.19" style="fill:#fff;opacity:0.6000000000000001;isolation:isolate"></polygon><polygon points="259.25 139.19 260.56 139.19 261 134.15 259.69 134.15 259.25 139.19" style="fill:#fff;opacity:0.6000000000000001;isolation:isolate"></polygon><polygon points="348.02 138.27 347.24 138.27 347.46 135.75 348.24 135.75 348.02 138.27" style="fill:#fff;opacity:0.6000000000000001;isolation:isolate"></polygon><polygon points="348.47 139.19 354.65 139.19 355.03 134.83 348.85 134.83 348.47 139.19" style="fill:#fff;opacity:0.6000000000000001;isolation:isolate"></polygon><path d="M307.87,128.48c-.1,1.16-.84,2.1-1.64,2.1s-1.37-.94-1.27-2.1.83-2.1,1.64-2.1S308,127.32,307.87,128.48Z" style="fill:#263238;opacity:0.6000000000000001;isolation:isolate"></path><path d="M310.81,128.48c-.06.75-.53,1.35-1.05,1.35s-.88-.6-.81-1.35.53-1.34,1.05-1.34S310.88,127.74,310.81,128.48Z" style="fill:#263238;opacity:0.6000000000000001;isolation:isolate"></path><polygon points="359.39 145.28 356.53 177.97 356.04 183.61 353.75 209.8 353.39 213.87 350.14 251 349.79 255.07 346.67 290.72 346.22 295.85 338.78 380.93 232.81 380.93 253.43 145.28 359.39 145.28" style="fill:#263238"></polygon><path d="M254.73,218.08a.58.58,0,0,0,.38.13.75.75,0,0,0,.55-.27.64.64,0,0,0-.06-.91l-1.82-1.42,2.05-1.43a.67.67,0,0,0,.22-.91.65.65,0,0,0-.91-.14l-2.81,2a.74.74,0,0,0-.31.53.62.62,0,0,0,.22.53Z" style="fill:#fff;opacity:0.5"></path><path d="M263.81,215.6,261.76,217a.68.68,0,0,0-.21.92.59.59,0,0,0,.5.26.66.66,0,0,0,.4-.13l2.81-1.95a.67.67,0,0,0,.31-.52.59.59,0,0,0-.22-.53l-2.48-1.94a.67.67,0,0,0-.93.14.64.64,0,0,0,.06.91Z" style="fill:#fff;opacity:0.5"></path><path d="M257.67,218.17a.78.78,0,0,0,.22,0,.72.72,0,0,0,.65-.44l1.71-3.9a.6.6,0,0,0-.33-.83.71.71,0,0,0-.87.4l-1.71,3.89A.61.61,0,0,0,257.67,218.17Z" style="fill:#fff;opacity:0.5"></path><path d="M268.59,218.42H272a1,1,0,0,0,.95-.87.79.79,0,0,0-.8-.87h-3.46a1,1,0,0,0-1,.87A.79.79,0,0,0,268.59,218.42Z" style="fill:#fff;opacity:0.5"></path><path d="M280.8,241a.79.79,0,0,0-.8-.87H250a1,1,0,0,0-.94.87.78.78,0,0,0,.8.87h30A1,1,0,0,0,280.8,241Z" style="fill:#fff"></path><path d="M284.57,241.88h8.83a1,1,0,0,0,.94-.87.79.79,0,0,0-.8-.87h-8.82a1,1,0,0,0-1,.87A.79.79,0,0,0,284.57,241.88Z" style="fill:#fff;opacity:0.5"></path><path d="M250.31,236.36h11.36a1,1,0,0,0,.95-.87.79.79,0,0,0-.8-.87H250.46a1,1,0,0,0-1,.87A.79.79,0,0,0,250.31,236.36Z" style="fill:#fff;opacity:0.5"></path><path d="M303.55,235.49a.79.79,0,0,0-.8-.87H267.46a1,1,0,0,0-.95.87.79.79,0,0,0,.8.87H302.6A1,1,0,0,0,303.55,235.49Z" style="fill:#fff"></path><path d="M250.78,230.85h20.59a1,1,0,0,0,.95-.87.79.79,0,0,0-.8-.87H250.93a1,1,0,0,0-1,.87A.79.79,0,0,0,250.78,230.85Z" style="fill:#fff"></path><path d="M275.31,230a.79.79,0,0,0,.8.87h5.1a1,1,0,0,0,1-.87.79.79,0,0,0-.8-.87h-5.1A1,1,0,0,0,275.31,230Z" style="fill:#fff;opacity:0.5"></path><path d="M251.25,225.33h24.31a1,1,0,0,0,.95-.87.79.79,0,0,0-.8-.87H251.39a1,1,0,0,0-.95.87A.79.79,0,0,0,251.25,225.33Z" style="fill:#fff;opacity:0.5"></path><path d="M293.63,225.33h18.65a1,1,0,0,0,1-.87.79.79,0,0,0-.8-.87H293.77a1,1,0,0,0-.94.87A.79.79,0,0,0,293.63,225.33Z" style="fill:#fff"></path><path d="M332.66,267.72h-54.1a1,1,0,0,0-.95.87.79.79,0,0,0,.8.87h54.1a1,1,0,0,0,.95-.87A.79.79,0,0,0,332.66,267.72Z" style="fill:#fff;opacity:0.5"></path><path d="M344.54,267.72h-6.69a1,1,0,0,0-1,.87.79.79,0,0,0,.8.87h6.69a1,1,0,0,0,.95-.87A.79.79,0,0,0,344.54,267.72Z" style="fill:#fff"></path><path d="M295.19,263.94H317a1,1,0,0,0,.95-.87.79.79,0,0,0-.8-.87H295.34a1,1,0,0,0-.95.87A.79.79,0,0,0,295.19,263.94Z" style="fill:#fff"></path><path d="M333,263.94a1,1,0,0,0,.95-.87.79.79,0,0,0-.81-.87H320.77a1,1,0,0,0-.95.87.79.79,0,0,0,.8.87Z" style="fill:#fff;opacity:0.5"></path><path d="M345,262.2h-6.58a1,1,0,0,0-.95.87.79.79,0,0,0,.8.87h6.58a1,1,0,0,0,.95-.87A.79.79,0,0,0,345,262.2Z" style="fill:#fff;opacity:0.5"></path><path d="M333.68,256.69H304.55a1,1,0,0,0-.95.87.79.79,0,0,0,.8.87h29.13a1,1,0,0,0,1-.87A.79.79,0,0,0,333.68,256.69Z" style="fill:#fff"></path><path d="M345.47,256.69h-6.64a1,1,0,0,0-.95.87.79.79,0,0,0,.8.87h6.65a1,1,0,0,0,.94-.87A.79.79,0,0,0,345.47,256.69Z" style="fill:#fff"></path><path d="M318,252a.78.78,0,0,0-.8-.87H287.53a1,1,0,0,0-.95.87.79.79,0,0,0,.8.87h29.7A1,1,0,0,0,318,252Z" style="fill:#fff;opacity:0.5"></path><path d="M322.61,251.17a1,1,0,0,0-.95.87.79.79,0,0,0,.8.87H334a1,1,0,0,0,.95-.87.79.79,0,0,0-.8-.87Z" style="fill:#fff;opacity:0.5"></path><path d="M345.94,251.17h-6.57a1,1,0,0,0-.95.87.79.79,0,0,0,.8.87h6.57a1,1,0,0,0,.95-.87A.79.79,0,0,0,345.94,251.17Z" style="fill:#fff"></path><path d="M324.57,247.4h5.71a1,1,0,0,0,1-.87.79.79,0,0,0-.8-.88h-5.72a1,1,0,0,0-.95.88A.79.79,0,0,0,324.57,247.4Z" style="fill:#fff"></path><path d="M334.35,247.4h11.91a1,1,0,0,0,.95-.87.79.79,0,0,0-.8-.88H334.5a1,1,0,0,0-.95.88A.79.79,0,0,0,334.35,247.4Z" style="fill:#fff;opacity:0.5"></path><path d="M260.17,153.76a.58.58,0,0,0,.38.13.72.72,0,0,0,.55-.26.65.65,0,0,0-.06-.92l-1.82-1.42,2-1.42a.67.67,0,0,0,.22-.91.64.64,0,0,0-.91-.14l-2.81,2a.72.72,0,0,0-.31.53.6.6,0,0,0,.22.52Z" style="fill:#fff"></path><path d="M269.25,151.28l-2.05,1.43a.67.67,0,0,0-.21.91.57.57,0,0,0,.5.27.66.66,0,0,0,.4-.13l2.82-1.95a.75.75,0,0,0,.31-.53.6.6,0,0,0-.23-.52l-2.48-1.95a.68.68,0,0,0-.93.14.65.65,0,0,0,.06.92Z" style="fill:#fff"></path><path d="M263.11,153.85a.54.54,0,0,0,.22,0,.72.72,0,0,0,.65-.44l1.71-3.89a.6.6,0,0,0-.33-.83.71.71,0,0,0-.87.39l-1.71,3.9A.6.6,0,0,0,263.11,153.85Z" style="fill:#fff"></path><path d="M274,154.11h3.45a1,1,0,0,0,.95-.87.79.79,0,0,0-.8-.87h-3.46a1,1,0,0,0-.94.87A.78.78,0,0,0,274,154.11Z" style="fill:#fff;opacity:0.5"></path><path d="M318.29,161H323a1,1,0,0,0,.94-.87.78.78,0,0,0-.8-.87h-4.67a1,1,0,0,0-.95.87A.79.79,0,0,0,318.29,161Z" style="fill:#fff;opacity:0.5"></path><path d="M267.77,160.15a.79.79,0,0,0,.8.87h43.71a1,1,0,0,0,1-.87.79.79,0,0,0-.8-.87H268.71A1,1,0,0,0,267.77,160.15Z" style="fill:#fff"></path><path d="M256.69,161h6.68a1,1,0,0,0,.95-.87.79.79,0,0,0-.8-.87h-6.69a1,1,0,0,0-.94.87A.78.78,0,0,0,256.69,161Z" style="fill:#fff;opacity:0.5"></path><path d="M301.52,166.53a1,1,0,0,0,1-.87.79.79,0,0,0-.81-.87h-17.4a1,1,0,0,0-.95.87.79.79,0,0,0,.8.87Z" style="fill:#fff"></path><path d="M268.1,166.53h12.35a1,1,0,0,0,.95-.87.79.79,0,0,0-.8-.87H268.25a1,1,0,0,0-.95.87A.79.79,0,0,0,268.1,166.53Z" style="fill:#fff"></path><path d="M256.22,166.53h6.57a1,1,0,0,0,.95-.87.79.79,0,0,0-.8-.87h-6.57a1,1,0,0,0-1,.87A.79.79,0,0,0,256.22,166.53Z" style="fill:#fff;opacity:0.5"></path><path d="M293.26,171.18a.79.79,0,0,0-.8-.87H267.69a1,1,0,0,0-.94.87.79.79,0,0,0,.8.87h24.76A1,1,0,0,0,293.26,171.18Z" style="fill:#fff"></path><path d="M255.75,172.05h6.65a1,1,0,0,0,1-.87.79.79,0,0,0-.8-.87H255.9a1,1,0,0,0-1,.87A.79.79,0,0,0,255.75,172.05Z" style="fill:#fff;opacity:0.5"></path><path d="M284,177.57h25.33a1,1,0,0,0,.94-.88.78.78,0,0,0-.8-.87H284.15a1,1,0,0,0-.95.87A.79.79,0,0,0,284,177.57Z" style="fill:#fff"></path><path d="M267.24,175.82a1,1,0,0,0-.94.87.78.78,0,0,0,.8.88h11.52a1,1,0,0,0,.94-.88.79.79,0,0,0-.8-.87Z" style="fill:#fff"></path><path d="M255.29,177.57h6.57a1,1,0,0,0,.94-.88.79.79,0,0,0-.8-.87h-6.57a1,1,0,0,0-.94.87A.78.78,0,0,0,255.29,177.57Z" style="fill:#fff;opacity:0.5"></path><path d="M276.66,181.34H271a1,1,0,0,0-.95.87.79.79,0,0,0,.8.87h5.71a1,1,0,0,0,.95-.87A.79.79,0,0,0,276.66,181.34Z" style="fill:#fff"></path><path d="M266.88,181.34H255a1,1,0,0,0-.95.87.79.79,0,0,0,.8.87h11.91a1,1,0,0,0,.95-.87A.79.79,0,0,0,266.88,181.34Z" style="fill:#fff"></path><path d="M303.81,187.73a.79.79,0,0,0,.8.87h46.62a1,1,0,0,0,.95-.87.79.79,0,0,0-.8-.88H304.76A1,1,0,0,0,303.81,187.73Z" style="fill:#fff"></path><path d="M291.22,186.85a1,1,0,0,0-1,.88.79.79,0,0,0,.8.87h8.83a1,1,0,0,0,1-.87.8.8,0,0,0-.81-.88Z" style="fill:#fff;opacity:0.5"></path><path d="M350.91,192.37H339.56a1,1,0,0,0-.95.87.79.79,0,0,0,.8.87h11.36a1,1,0,0,0,.94-.87A.79.79,0,0,0,350.91,192.37Z" style="fill:#fff;opacity:0.5"></path><path d="M334.71,193.24a.79.79,0,0,0-.8-.87H286.38a1,1,0,0,0-.95.87.79.79,0,0,0,.8.87h47.54A1,1,0,0,0,334.71,193.24Z" style="fill:#fff"></path><path d="M350.45,197.89H329.86a1,1,0,0,0-.95.87.79.79,0,0,0,.8.87H350.3a1,1,0,0,0,.95-.87A.79.79,0,0,0,350.45,197.89Z" style="fill:#fff"></path><path d="M320,197.89a1,1,0,0,0-.95.87.79.79,0,0,0,.8.87H325a1,1,0,0,0,.94-.87.79.79,0,0,0-.8-.87Z" style="fill:#fff;opacity:0.5"></path><path d="M350,203.4H309.05a1,1,0,0,0-.94.87.79.79,0,0,0,.8.87h40.92a1,1,0,0,0,.95-.87A.79.79,0,0,0,350,203.4Z" style="fill:#fff"></path><path d="M291,203.4H276.71a1,1,0,0,0-.95.87.79.79,0,0,0,.8.87h14.28a1,1,0,0,0,1-.87A.79.79,0,0,0,291,203.4Z" style="fill:#fff"></path><path d="M344,320.43l-5.38,60.5,0,.21H233l0-.21,11.42-128.58,5.8,1.52,28.29,7.37,1.57.41,1.93.5,2.38.62,1.48.39,18.95,4.94.12,0q2.07.54,4.05,1.23a52.25,52.25,0,0,1,35,51.07Z" style="fill:#0ABDE3"></path><path d="M344,320.43l-5.38,60.5,0,.21H233l0-.21,11.42-128.58,5.8,1.52,28.29,7.37,1.57.41,1.93.5,2.38.62,1.48.39,18.95,4.94.12,0q2.07.54,4.05,1.23a52.25,52.25,0,0,1,35,51.07Z" style="fill:#fff;opacity:0.8;isolation:isolate"></path><polygon points="285.89 263.16 249.42 263.16 249.59 261.24 250.24 253.87 278.53 261.24 280.1 261.65 282.03 262.15 284.41 262.77 285.89 263.16" style="opacity:0.6000000000000001;isolation:isolate"></polygon><polygon points="285.89 263.16 249.42 263.16 249.59 261.24 278.53 261.24 280.1 261.65 282.03 262.15 284.41 262.77 285.89 263.16" style="opacity:0.5;isolation:isolate"></polygon><polygon points="282.03 262.15 281.94 263.16 249.42 263.16 249.59 261.24 278.53 261.24 280.1 261.65 282.03 262.15" style="fill:#fff;opacity:0.6000000000000001;isolation:isolate"></polygon><path d="M284.41,262.77a2.14,2.14,0,0,1-.16.39,2.55,2.55,0,0,1-2.22,1.38,2,2,0,0,1-2-1.38,2.07,2.07,0,0,1-.11-.9,2.46,2.46,0,0,1,.14-.61l1.93.5Z" style="fill:#fff"></path><path d="M296.18,277.26H250a1.61,1.61,0,0,1-1.64-1.8h0a2,2,0,0,1,2-1.79H296.5a1.62,1.62,0,0,1,1.64,1.79h0A2,2,0,0,1,296.18,277.26Z" style="fill:#0ABDE3;opacity:0.4;isolation:isolate"></path><path d="M309,269.9a2,2,0,0,1-2,1.79H250.46a1.62,1.62,0,0,1-1.64-1.79,2,2,0,0,1,2-1.8h54.06l.12,0q2.07.54,4.05,1.23A1.92,1.92,0,0,1,309,269.9Z" style="fill:#0ABDE3;opacity:0.4;isolation:isolate"></path><path d="M340.1,298.81l-2.58,29.06H243.67l3.62-40.72h86.16A52.12,52.12,0,0,1,340.1,298.81Z" style="fill:#0ABDE3;opacity:0.30000000000000004;isolation:isolate"></path><path d="M309.48,294.24h-7.36a1.47,1.47,0,0,1-1.49-1.63h0a1.82,1.82,0,0,1,1.78-1.63h7.36a1.46,1.46,0,0,1,1.48,1.63h0A1.81,1.81,0,0,1,309.48,294.24Z" style="fill:#fff;opacity:0.5;isolation:isolate"></path><path d="M329.82,299.47H301.65a1.46,1.46,0,0,1-1.48-1.63h0a1.81,1.81,0,0,1,1.77-1.62h28.17a1.47,1.47,0,0,1,1.49,1.62h0A1.82,1.82,0,0,1,329.82,299.47Z" style="fill:#fff;opacity:0.5;isolation:isolate"></path><polygon points="291.1 324.04 248.44 324.04 251.38 290.98 294.03 290.98 291.1 324.04" style="fill:#0ABDE3;opacity:0.30000000000000004;isolation:isolate"></polygon><polygon points="249.09 316.75 261.66 307.51 268.25 312.73 282.18 302.76 292.15 312.18 291.1 324.04 248.44 324.04 249.09 316.75" style="fill:#fff;opacity:0.5;isolation:isolate"></polygon><path d="M263.37,298.77a3.85,3.85,0,0,1-3.66,3.53,3.08,3.08,0,0,1-3-3.53,3.86,3.86,0,0,1,3.66-3.53A3.07,3.07,0,0,1,263.37,298.77Z" style="fill:#fff;opacity:0.5;isolation:isolate"></path><polygon points="333.44 373.88 239.58 373.88 243.2 333.15 337.06 333.15 333.44 373.88" style="fill:#0ABDE3;opacity:0.30000000000000004;isolation:isolate"></polygon><path d="M305.39,340.24H298a1.46,1.46,0,0,1-1.48-1.63h0a1.81,1.81,0,0,1,1.77-1.62h7.36a1.46,1.46,0,0,1,1.48,1.62h0A1.81,1.81,0,0,1,305.39,340.24Z" style="fill:#fff;opacity:0.5;isolation:isolate"></path><path d="M325.73,345.48H297.57a1.47,1.47,0,0,1-1.49-1.63h0a1.82,1.82,0,0,1,1.78-1.63H326a1.47,1.47,0,0,1,1.49,1.63h0A1.82,1.82,0,0,1,325.73,345.48Z" style="fill:#fff;opacity:0.5;isolation:isolate"></path><polygon points="287.01 370.04 244.35 370.04 247.29 336.99 289.95 336.99 287.01 370.04" style="fill:#0ABDE3;opacity:0.30000000000000004;isolation:isolate"></polygon><polygon points="245 362.75 257.57 353.51 264.17 358.73 278.09 348.76 288.06 358.19 287.01 370.04 244.35 370.04 245 362.75" style="fill:#fff;opacity:0.5;isolation:isolate"></polygon><path d="M259.29,344.77a3.86,3.86,0,0,1-3.66,3.53,3.07,3.07,0,0,1-3-3.53,3.84,3.84,0,0,1,3.66-3.52A3.07,3.07,0,0,1,259.29,344.77Z" style="fill:#fff;opacity:0.5;isolation:isolate"></path><path d="M324,278.76c-27.68-13.82-71.48,13.38-72.76,13.85-4.41,1.64-9.54-.56-14.18-3.87l3.6-41.21,2.1-.13S302.15,262,324,278.76Z" style="opacity:0.2;isolation:isolate"></path><path d="M179.52,234.62s6.4,3.85,9.87,5.52c2,.93,9.32-.42,15.26,3.39,5.73,3.67,5.09,7.36,7.51,10.62,7.33,9.88,23,9.56,23,9.56S301.86,251.17,336.07,291C336.07,291,310.75,241.59,179.52,234.62Z" style="fill:#0ABDE3"></path><path d="M179.52,234.62s6.4,3.85,9.87,5.52c2,.93,9.32-.42,15.26,3.39,5.73,3.67,5.09,7.36,7.51,10.62,7.33,9.88,23,9.56,23,9.56S301.86,251.17,336.07,291C336.07,291,310.75,241.59,179.52,234.62Z" style="fill:#fff;opacity:0.4;isolation:isolate"></path></g><g id="freepik--speech-bubble--inject-77"><path d="M145,140.47H98.55a4.78,4.78,0,0,0-4.78,4.78v25.12a4.78,4.78,0,0,0,4.78,4.77h32.31c1.25,3,4.79,8.92,13.88,11.66,0,0-5.45-4.93-5.17-11.66H145a4.78,4.78,0,0,0,4.78-4.77V145.25A4.78,4.78,0,0,0,145,140.47Z" style="fill:#0ABDE3"></path><path d="M145,140.47H98.55a4.78,4.78,0,0,0-4.78,4.78v25.12a4.78,4.78,0,0,0,4.78,4.77h32.31c1.25,3,4.79,8.92,13.88,11.66,0,0-5.45-4.93-5.17-11.66H145a4.78,4.78,0,0,0,4.78-4.77V145.25A4.78,4.78,0,0,0,145,140.47Z" style="fill:#fff;opacity:0.6000000000000001;isolation:isolate"></path><g style="opacity:0.5"><path d="M99.47,148.84c0-1.85,1-3,2.32-3s2.33,1.11,2.33,3-1,3-2.33,3S99.47,150.7,99.47,148.84Zm4,0c0-1.55-.7-2.41-1.72-2.41s-1.71.86-1.71,2.41.7,2.41,1.71,2.41S103.51,150.4,103.51,148.84Z"></path><path d="M106.57,145.93v5.82H106v-5.29H104.6v-.53Z"></path><path d="M108,148.84c0-1.85,1-3,2.32-3s2.33,1.11,2.33,3-1,3-2.33,3S108,150.7,108,148.84Zm4,0c0-1.55-.7-2.41-1.71-2.41s-1.71.86-1.71,2.41.69,2.41,1.71,2.41S112,150.4,112,148.84Z"></path><path d="M113.46,148.84c0-1.85,1-3,2.32-3s2.33,1.11,2.33,3-1,3-2.33,3S113.46,150.7,113.46,148.84Zm4,0c0-1.55-.69-2.41-1.71-2.41s-1.71.86-1.71,2.41.7,2.41,1.71,2.41S117.49,150.4,117.49,148.84Z"></path><path d="M120.56,145.93v5.82H120v-5.29h-1.37v-.53Z"></path><path d="M123.56,145.93v5.82H123v-5.29h-1.37v-.53Z"></path><path d="M126.56,145.93v5.82H126v-5.29h-1.37v-.53Z"></path><path d="M128,148.84c0-1.85,1-3,2.32-3s2.33,1.11,2.33,3-1,3-2.33,3S128,150.7,128,148.84Zm4,0c0-1.55-.7-2.41-1.71-2.41s-1.72.86-1.72,2.41.7,2.41,1.72,2.41S132,150.4,132,148.84Z"></path><path d="M133.45,148.84c0-1.85,1-3,2.32-3s2.33,1.11,2.33,3-1,3-2.33,3S133.45,150.7,133.45,148.84Zm4,0c0-1.55-.7-2.41-1.71-2.41s-1.71.86-1.71,2.41.69,2.41,1.71,2.41S137.48,150.4,137.48,148.84Z"></path><path d="M140.55,145.93v5.82H140v-5.29h-1.37v-.53Z"></path><path d="M143.55,145.93v5.82H143v-5.29h-1.37v-.53Z"></path><path d="M101.08,154.36v5.82h-.6v-5.29H99.11v-.53Z"></path><path d="M102.47,157.27c0-1.86,1-3,2.32-3s2.32,1.1,2.32,3-1,3-2.32,3S102.47,159.12,102.47,157.27Zm4,0c0-1.56-.7-2.41-1.71-2.41s-1.72.85-1.72,2.41.7,2.41,1.72,2.41S106.5,158.82,106.5,157.27Z"></path><path d="M108,157.27c0-1.86,1-3,2.32-3s2.33,1.1,2.33,3-1,3-2.33,3S108,159.12,108,157.27Zm4,0c0-1.56-.7-2.41-1.71-2.41s-1.72.85-1.72,2.41.7,2.41,1.72,2.41S112,158.82,112,157.27Z"></path><path d="M115.07,154.36v5.82h-.6v-5.29h-1.38v-.53Z"></path><path d="M118.07,154.36v5.82h-.6v-5.29H116.1v-.53Z"></path><path d="M121.07,154.36v5.82h-.6v-5.29H119.1v-.53Z"></path><path d="M122.45,157.27c0-1.86,1-3,2.32-3s2.33,1.1,2.33,3-1,3-2.33,3S122.45,159.12,122.45,157.27Zm4,0c0-1.56-.7-2.41-1.72-2.41s-1.71.85-1.71,2.41.7,2.41,1.71,2.41S126.49,158.82,126.49,157.27Z"></path><path d="M128,157.27c0-1.86,1-3,2.33-3s2.32,1.1,2.32,3-1,3-2.32,3S128,159.12,128,157.27Zm4,0c0-1.56-.7-2.41-1.71-2.41s-1.72.85-1.72,2.41.7,2.41,1.72,2.41S132,158.82,132,157.27Z"></path><path d="M135.05,154.36v5.82h-.6v-5.29h-1.37v-.53Z"></path><path d="M138.05,154.36v5.82h-.59v-5.29h-1.38v-.53Z"></path><path d="M139.44,157.27c0-1.86,1-3,2.32-3s2.33,1.1,2.33,3-1,3-2.33,3S139.44,159.12,139.44,157.27Zm4,0c0-1.56-.69-2.41-1.71-2.41s-1.71.85-1.71,2.41.7,2.41,1.71,2.41S143.47,158.82,143.47,157.27Z"></path><path d="M99.47,165.69c0-1.85,1-3,2.32-3s2.33,1.11,2.33,3-1,3-2.33,3S99.47,167.55,99.47,165.69Zm4,0c0-1.55-.7-2.41-1.72-2.41s-1.71.86-1.71,2.41.7,2.42,1.71,2.42S103.51,167.25,103.51,165.69Z"></path><path d="M105,165.69c0-1.85,1-3,2.32-3s2.32,1.11,2.32,3-1,3-2.32,3S105,167.55,105,165.69Zm4,0c0-1.55-.7-2.41-1.71-2.41s-1.72.86-1.72,2.41.7,2.42,1.72,2.42S109,167.25,109,165.69Z"></path><path d="M112.07,162.78v5.82h-.59v-5.29H110.1v-.53Z"></path><path d="M115.07,162.78v5.82h-.59v-5.29H113.1v-.53Z"></path><path d="M116.46,165.69c0-1.85,1-3,2.32-3s2.33,1.11,2.33,3-1,3-2.33,3S116.46,167.55,116.46,165.69Zm4,0c0-1.55-.69-2.41-1.71-2.41s-1.71.86-1.71,2.41.7,2.42,1.71,2.42S120.49,167.25,120.49,165.69Z"></path><path d="M122,165.69c0-1.85,1-3,2.32-3s2.33,1.11,2.33,3-1,3-2.33,3S122,167.55,122,165.69Zm4,0c0-1.55-.7-2.41-1.72-2.41s-1.71.86-1.71,2.41.7,2.42,1.71,2.42S126,167.25,126,165.69Z"></path><path d="M129.06,162.78v5.82h-.6v-5.29h-1.37v-.53Z"></path><path d="M132.06,162.78v5.82h-.6v-5.29h-1.37v-.53Z"></path><path d="M135.06,162.78v5.82h-.6v-5.29h-1.37v-.53Z"></path><path d="M136.45,165.69c0-1.85,1-3,2.32-3s2.33,1.11,2.33,3-1,3-2.33,3S136.45,167.55,136.45,165.69Zm4,0c0-1.55-.7-2.41-1.71-2.41s-1.71.86-1.71,2.41.69,2.42,1.71,2.42S140.48,167.25,140.48,165.69Z"></path><path d="M143.55,162.78v5.82H143v-5.29h-1.37v-.53Z"></path></g></g><g id="freepik--Character--inject-77"><path d="M185.49,239.39a15.51,15.51,0,0,1,3.66-2.94,14.36,14.36,0,0,1,4.75-1l.77,5.25a25.51,25.51,0,0,1-3.83,2.49c-1.35.57-4.41.31-4.41.31Z" style="fill:#ebb376"></path><path d="M154.76,227.45s6.87,9.88,9.48,11.6,21.25.34,21.25.34l.94,4.06s-19.12,3.49-23.14,1.35-14.09-13.29-14.09-13.29Z" style="fill:#ebb376"></path><path d="M185.49,239.39a15.51,15.51,0,0,1,3.66-2.94,14.36,14.36,0,0,1,4.75-1l.77,5.25a25.51,25.51,0,0,1-3.83,2.49c-1.35.57-4.41.31-4.41.31Z" style="opacity:0.2;isolation:isolate"></path><path d="M154.76,227.45s6.87,9.88,9.48,11.6,21.25.34,21.25.34l.94,4.06s-19.12,3.49-23.14,1.35-14.09-13.29-14.09-13.29Z" style="opacity:0.2;isolation:isolate"></path><path d="M178.3,203.65a.26.26,0,0,1-.18-.07.24.24,0,0,1,0-.35,3.57,3.57,0,0,1,3.13-.82.25.25,0,0,1,.19.3.26.26,0,0,1-.29.19,3.15,3.15,0,0,0-2.67.68A.26.26,0,0,1,178.3,203.65Z" style="fill:#263238"></path><path d="M179.59,206.83a13.75,13.75,0,0,0,1.67,2.85,1.78,1.78,0,0,1-1.77.59Z" style="fill:#d58745"></path><path d="M180.87,205.13c0,.54-.35,1-.71.94s-.62-.48-.59-1,.35-.95.71-.93S180.9,204.6,180.87,205.13Z" style="fill:#263238"></path><path d="M180.13,204.14l1.19-.38S180.68,204.7,180.13,204.14Z" style="fill:#263238"></path><path d="M164.94,215.11a.81.81,0,0,0,.19.18,9.55,9.55,0,0,0,3.15,2.12c3.46,1.32,6,1.17,7.79-.23h0c2.57-2.12,3.72-6.34,4.12-11.57a19.73,19.73,0,0,0-.3-6.21s0-.08,0-.1,0-.16,0-.23a7.15,7.15,0,0,0-4.61-5,15.09,15.09,0,0,0-3-.77C162.11,191.77,158,208.27,164.94,215.11Z" style="fill:#ebb376"></path><path d="M165.13,215.29a9.48,9.48,0,0,0,3.17,2c3.46,1.32,6,1,7.81-.37a10.25,10.25,0,0,1-6.34-1.41A5.29,5.29,0,0,0,165.13,215.29Z" style="opacity:0.2;isolation:isolate"></path><path d="M168.6,190.09s7-.78,10.37,2.46c3.93,3.78,5.13,7.29-.75,11.68,0,0-10.85-5.25-14.73-5a41.1,41.1,0,0,0-6.74,1C157,192.62,165,188,168.6,190.09Z" style="fill:#263238"></path><path d="M170.06,217.82a4.49,4.49,0,0,0-1.88,6.64l-14.61-4.09s6.93-3,7.49-7.9C161.06,212.47,168.74,211.85,170.06,217.82Z" style="fill:#ebb376"></path><path d="M170.06,191.77s-1.72-11.48-10.55-11.21-9.89,9.49-4.36,13.45S169.4,198.49,170.06,191.77Z" style="fill:#263238"></path><path d="M157.53,194.27s-7.48-1.45-7.76,5.15a5.5,5.5,0,0,1,2.88-2.5s-2.59,1.31-.9,4.74c0,0-.54-2.13,2.81-2.92s11.8.94,11-3.54S157.53,194.27,157.53,194.27Z" style="fill:#263238"></path><path d="M168.74,191.75h0a.24.24,0,0,1-.23-.26c0-.07.28-6.68-3.34-10.26a8.55,8.55,0,0,0-6.82-2.27.25.25,0,0,1-.26-.23.26.26,0,0,1,.23-.27,9,9,0,0,1,7.2,2.42c3.78,3.73,3.5,10.36,3.49,10.64A.25.25,0,0,1,168.74,191.75Z" style="fill:#263238"></path><path d="M160.9,210.26a.23.23,0,0,1-.15,0c-.07-.05-7.1-5.53-4.53-11.56a.25.25,0,1,1,.46.19c-2.42,5.68,4.31,10.92,4.37,11a.27.27,0,0,1,0,.36A.25.25,0,0,1,160.9,210.26Z" style="fill:#263238"></path><path d="M148.56,197.54h-.08a.25.25,0,0,1-.16-.31c1.5-4.66,8.41-3.3,8.48-3.29a.26.26,0,0,1,.2.3.25.25,0,0,1-.3.19c-.06,0-6.54-1.28-7.9,3A.25.25,0,0,1,148.56,197.54Z" style="fill:#263238"></path><path d="M179.91,199.33s-.42,7.17-7.56,9.29c0,0-3.9,7-8.16,6.49-5.82-.66-9.78-9.61-6.62-17.72C161.67,186.86,178.28,188.25,179.91,199.33Z" style="fill:#263238"></path><path d="M176,207.05c.15-1.11-.48-3.09-2.23-3.07s-3.41,4.27.83,5.85C175.24,210.06,175.72,209.36,176,207.05Z" style="fill:#ebb376"></path><path d="M184.65,409.59l4.74-1.3c-1.73-23.92-6.43-52.78-10.42-74.42-.62-3.39-1.22-6.6-1.81-9.59-.27-1.42-.54-2.78-.8-4.1-1.26-6.48-2.33-11.61-3-14.77-.49-2.31-.77-3.58-.77-3.58l-17,4.94,1.42,4.3,4.69,14.19.53,1.62,3.1,9.37,5.27,15.94C171.29,376.59,184.65,409.59,184.65,409.59Z" style="fill:#ebb376"></path><path d="M143.29,408.43l4.9-.47c2.56-25.94,2.66-58.24,2.31-80.68-.06-3.48-.12-6.73-.19-9.67,0-.15,0-.29,0-.43-.15-5.85-.3-10.49-.41-13.43l-.14-3.57-17.65,2,1.1,7.34,1.6,10.79.32,2.11,1.1,7.36,2.95,19.71C135.74,373.63,143.29,408.43,143.29,408.43Z" style="fill:#ebb376"></path><path d="M134.8,320.29l15.51-2.68c0-.15,0-.29,0-.43-.15-5.85-.3-10.49-.41-13.43L133.2,309.5Z" style="opacity:0.2;isolation:isolate"></path><path d="M175.08,313.7l-16.32,2.77-1.79-5.4,16.39-5.66C173.79,307.42,174.38,310.24,175.08,313.7Z" style="opacity:0.2;isolation:isolate"></path><path d="M132.79,255.56s-10.58,24.73-.69,60.58l19.28-2.2v-8.53l3,7.77,20.51-3.8c-5.94-29.09-11.3-42.29-11.3-42.29l-1.44-14.64Z" style="fill:#0ABDE3"></path><path d="M141,407.43c0-.61,7.58-.13,7.58-.13s4.65,4.73,9.17,5.79,2,3.78-3.05,3.78h-12.5C138.57,416.87,140.81,413.81,141,407.43Z" style="fill:#263238"></path><path d="M152.52,409.23a9.38,9.38,0,0,1-3.13-1,.2.2,0,0,1-.07-.06h0l0,0a.25.25,0,0,1,0-.15c0-.08.67-1.84,1.69-2.27a1.2,1.2,0,0,1,1,0c.34.16.51.38.5.63s-.56.8-1.18,1.13a3.14,3.14,0,0,1,1.7.18.82.82,0,0,1,.4.52.74.74,0,0,1-.18.8A1,1,0,0,1,152.52,409.23Zm-2.44-1.08c1.11.47,2.5.89,2.85.59,0,0,.13-.1,0-.39a.38.38,0,0,0-.21-.27A5,5,0,0,0,150.08,408.15Zm1.35-2.08a.89.89,0,0,0-.31.06,3.36,3.36,0,0,0-1.29,1.63c1.12-.43,2.2-1,2.22-1.36,0-.1-.17-.2-.27-.25A.74.74,0,0,0,151.43,406.07Z" style="fill:#0ABDE3"></path><path d="M183.3,407.43c0-.61,7.58-.13,7.58-.13s4.65,4.73,9.17,5.79,2,3.78-3.06,3.78H184.5C180.91,416.87,183.15,413.81,183.3,407.43Z" style="fill:#263238"></path><path d="M194.86,409.23a9.52,9.52,0,0,1-3.14-1s-.05,0-.06-.06h0l0,0a.19.19,0,0,1,0-.15c0-.08.66-1.84,1.69-2.27a1.2,1.2,0,0,1,1,0c.34.16.51.38.49.63s-.56.8-1.17,1.13a3.1,3.1,0,0,1,1.69.18.84.84,0,0,1,.41.52.74.74,0,0,1-.18.8A1.06,1.06,0,0,1,194.86,409.23Zm-2.44-1.08c1.11.47,2.5.89,2.85.59,0,0,.13-.1,0-.39a.43.43,0,0,0-.21-.27A5,5,0,0,0,192.42,408.15Zm1.35-2.08a.89.89,0,0,0-.31.06,3.38,3.38,0,0,0-1.3,1.63c1.12-.43,2.21-1,2.23-1.36,0-.1-.17-.2-.27-.25A.77.77,0,0,0,193.77,406.07Z" style="fill:#0ABDE3"></path><path d="M151.38,305.4v5.05c-20.14-8.42-15.15-28.55-15.15-28.55,1.29,7.73,10.14,10.6,10.14,10.6Z" style="opacity:0.2;isolation:isolate"></path><path d="M139.33,261.18l16.26,1.7v-3.69l-15.78-1.57C139.68,258.52,139.49,260,139.33,261.18Z" style="fill:#263238"></path><polygon points="156.86 259.31 156.86 263.01 163.59 263.71 163.59 259.98 156.86 259.31" style="fill:#263238"></polygon><polygon points="138.51 257.5 131.68 256.82 130.82 260.29 137.87 261.02 138.51 257.5" style="fill:#263238"></polygon><polygon points="141.37 269.45 149.76 269.45 150.65 277.8 146.01 281.41 141.37 278.54 141.37 269.45" style="opacity:0.2;isolation:isolate"></polygon><path d="M133.26,268.08l-.46,9.72-3,4.1s-1-.85-1.79-1.71a96.13,96.13,0,0,1,1.39-12.11Z" style="opacity:0.2;isolation:isolate"></path><path d="M207.72,252.93a15.64,15.64,0,0,1,4.21-2.08,14.42,14.42,0,0,1,4.87,0l-.38,5.29a25,25,0,0,1-4.28,1.61c-1.45.26-4.37-.66-4.37-.66Z" style="fill:#ebb376"></path><path d="M153,312s.4,2.77,1.06,2.24,21.62-3.81,21.62-3.81v-2.78Z" style="fill:#0ABDE3"></path><path d="M153,312s.4,2.77,1.06,2.24,21.62-3.81,21.62-3.81v-2.78Z" style="fill:#fff;opacity:0.7000000000000001;isolation:isolate"></path><path d="M131.46,315.64s.36,2.79.95,2.28,19.39-3.12,19.39-3.12V312Z" style="fill:#0ABDE3"></path><path d="M131.46,315.64s.36,2.79.95,2.28,19.39-3.12,19.39-3.12V312Z" style="fill:#fff;opacity:0.7000000000000001;isolation:isolate"></path><path d="M132.79,255.56l30,3.36,14.9-33.59s-10.38-8.94-29.59-6C148.09,219.29,141.2,222.35,132.79,255.56Z" style="fill:#263238"></path><path d="M180.3,234.62s4.58,11.14,6.75,13.38,20.67,4.93,20.67,4.93l.05,4.16s-19.43-.72-22.89-3.68-10.89-16-10.89-16Z" style="fill:#ebb376"></path><path d="M177.68,225.33c2.23,2.37,4.69,13.13,4.69,13.13H171.69l-3.51-5.8A16.94,16.94,0,0,1,172.9,228,25.88,25.88,0,0,1,177.68,225.33Z" style="fill:#263238"></path></g></svg>